<mxfile host="65bd71144e">
    <diagram id="oCoE4YG07AWWMsI7iQNW" name="Page-1">
        <mxGraphModel dx="2577" dy="2287" grid="1" gridSize="10" guides="1" tooltips="1" connect="1" arrows="1" fold="1" page="1" pageScale="1" pageWidth="850" pageHeight="1100" math="0" shadow="0">
            <root>
                <mxCell id="0"/>
                <mxCell id="1" parent="0"/>
                <mxCell id="2" value="" style="strokeWidth=1;shadow=0;dashed=0;align=center;html=1;shape=mxgraph.mockup.containers.browserWindow;rSize=0;strokeColor=#666666;strokeColor2=#008cff;strokeColor3=#c4c4c4;mainText=,;recursiveResize=0;" vertex="1" parent="1">
                    <mxGeometry x="-650" y="-30" width="1390" height="980" as="geometry"/>
                </mxCell>
                <mxCell id="3" value="Page 1" style="strokeWidth=1;shadow=0;dashed=0;align=center;html=1;shape=mxgraph.mockup.containers.anchor;fontSize=17;fontColor=#666666;align=left;" vertex="1" parent="2">
                    <mxGeometry x="60" y="12" width="110" height="26" as="geometry"/>
                </mxCell>
                <mxCell id="4" value="https://www.draw.io" style="strokeWidth=1;shadow=0;dashed=0;align=center;html=1;shape=mxgraph.mockup.containers.anchor;rSize=0;fontSize=17;fontColor=#666666;align=left;" vertex="1" parent="2">
                    <mxGeometry x="130" y="60" width="250" height="26" as="geometry"/>
                </mxCell>
                <mxCell id="5" value="" style="rounded=1;whiteSpace=wrap;html=1;" vertex="1" parent="2">
                    <mxGeometry x="20" y="130" width="1350" height="60" as="geometry"/>
                </mxCell>
                <mxCell id="6" value="Logo" style="text;html=1;strokeColor=none;fillColor=none;align=center;verticalAlign=middle;whiteSpace=wrap;rounded=0;" vertex="1" parent="2">
                    <mxGeometry x="110" y="145" width="60" height="30" as="geometry"/>
                </mxCell>
                <mxCell id="7" value="Home" style="text;html=1;strokeColor=none;fillColor=none;align=center;verticalAlign=middle;whiteSpace=wrap;rounded=0;" vertex="1" parent="2">
                    <mxGeometry x="950" y="150" width="60" height="30" as="geometry"/>
                </mxCell>
                <mxCell id="8" value="About" style="text;html=1;strokeColor=none;fillColor=none;align=center;verticalAlign=middle;whiteSpace=wrap;rounded=0;" vertex="1" parent="2">
                    <mxGeometry x="1070" y="150" width="60" height="30" as="geometry"/>
                </mxCell>
                <mxCell id="9" value="Services" style="text;html=1;strokeColor=none;fillColor=none;align=center;verticalAlign=middle;whiteSpace=wrap;rounded=0;" vertex="1" parent="2">
                    <mxGeometry x="1010" y="150" width="60" height="30" as="geometry"/>
                </mxCell>
                <mxCell id="10" value="Contact" style="text;html=1;strokeColor=none;fillColor=none;align=center;verticalAlign=middle;whiteSpace=wrap;rounded=0;" vertex="1" parent="2">
                    <mxGeometry x="1120" y="150" width="60" height="30" as="geometry"/>
                </mxCell>
                <mxCell id="11" value="Logo" style="text;html=1;strokeColor=none;fillColor=none;align=center;verticalAlign=middle;whiteSpace=wrap;rounded=0;" vertex="1" parent="2">
                    <mxGeometry x="1160" y="150" width="60" height="30" as="geometry"/>
                </mxCell>
                <mxCell id="12" value="" style="rounded=0;whiteSpace=wrap;html=1;" vertex="1" parent="2">
                    <mxGeometry x="20" y="220" width="1350" height="260" as="geometry"/>
                </mxCell>
                <mxCell id="13" value="Intro" style="text;html=1;strokeColor=none;fillColor=none;align=center;verticalAlign=middle;whiteSpace=wrap;rounded=0;" vertex="1" parent="2">
                    <mxGeometry x="665" y="290" width="60" height="30" as="geometry"/>
                </mxCell>
                <mxCell id="14" value="&lt;meta charset=&quot;utf-8&quot;&gt;&lt;span data-metadata=&quot;&lt;!--(figmeta)eyJmaWxlS2V5IjoiU0pMMUhMb2I1UFZtTjhCdUQ3anhwbyIsInBhc3RlSUQiOjc5MTk5OTA4NiwiZGF0YVR5cGUiOiJzY2VuZSJ9Cg==(/figmeta)--&gt;&quot;&gt;&lt;/span&gt;&lt;span data-buffer=&quot;&lt;!--(figma)ZmlnLWtpd2lQAAAARVgAALW9CZxsSVXgHffmUlWv3tL7xr4jIvbG5p7Lrap8L7fOm1Wvu12qszKzXiUvKzPNm/X6PcZxEBERERERERERW0RERERERERERGwREREREREZhmEYh2EchmGY739OxL15s141+v2+39e/fnUjTpw4ceLEiRMnTsS9+aZMrR9FnXP99qVJ35jrTzcq9e2wXWi1Df/VG+Vgu7RRqK8HIVlvMwxaqbyv2EG9TDoTVtbrhSqpbNi+qxqQyGliOwyEVl5xlfJ2eKbS3G4F1UZBai7VG+3K2l3b4UZjs1re3myutwplqb/sktvlRl3yK3G+Fay1gnAD0LGwFNSDbcDNje07NoPWXQBX08BW0KwK8Hi5srbG80SpWgnq7e1ii9ZLhVB4O5ni7XRjs0U/AuHsVNhuBYWaLSF/hcvbHl9ZqbeDVqHUrmzRyWoFxqxoKLuqFZQa9XpQorMpZmIOrz66OOb1GuWHVrYr9VIrqMFvoUqpqwPGtToy8NXeDOetXle4OIgYljtJGyHkFbpdhhcQfJe3G3UlbzRztlVpSyWvPu71m3udqA8arRXa2neQao0tTXpnB6PeYHSudTAUnHqjfnfQalBgGmUtFwpWf26lMABkyo3SpvBN0isV6luFkJS/3mpsNklk1lqFmuBli41GNSjUtxtNRNmuNOoAc1t0stEilaeH8lyqVpTsclCtVpqhJFcQR5t+q6YdawXrm9VCa7vZqN61rkRWaapeDsoitgTveDu4U1g6wXCVBHAyvKtWbIjWnqrUaayuUMa5Ujojoroy3Cg0g+2zlfbGtqt7lRsFZfDqkoxDsdoonSF3zdlKeV21/Vpo1aSn19WCcqVA4vqNyvpGlX9SfEMIAdvZG11yG2G3qgVp9KazhXCjst2mZXIP2iq0KoWi8v/gtks8RBPbJeRB7qExiptrD6N7OoMeXgjDSsiAbkO5sSllj7hca4OqqhiFj0wICTctCgE+qtYob2qrj7b46xSQe4zNtRpnyTyWCdls1EOlqkw8TkVTatQAW+qPFwluNwttmblfp8UpoT9BAdVKsVXQOfL1ml+raMtP1AydCETq31Bsber0f1KtUC+s0z0mZqW+DuQb261CPVxrtGpkbi7Vwu1WpZSM3S3hXmfSPzuY7bX7F2dWZR8a3rFZaAWUGqTptMtj0GoNneY+pFV/sExkM0m23DgrA5g9StFyzUKrUK1i4pjZNXiw455fBFeDNYEuBfX17XKBIS1o48uSx1RsSmZFMk4KxzTdqJZVCqt0tRnc3dDBON5sBeVgjWlS3m62GqUglAl3Aj0KqlJ+Mp6Q2yGCUmqnElBts9quNBV4BRLdxNhU6k1Vlys3gjsLdkZdVdoItlqavLpJNQe+pkG3bVK0Xji7rlndlOavL7TQjribN9hcLIsbw81aDV62T2/W0UYlcJNOqgeFzSBg0IqbRVQRwINVZ7HKjHOjxYADe0hx2B/1algeYQc9325vMBLrohasW62arkVeudA6Ewhp33VSVCsj5gRrUcTUk82WGtVGksvpJNU6+RB7qCk1QNQoN5jg5JdtlTi7ItMF7SR5LGystVFjaJBb3Si0mHwup2tQ0Aqswp8I7iwhJ9vzkxs62qdCLHpiCK/QVkhcWd1EVI2w0pYmrmp2BiOnvSthg1kI0KBR5QrDQmvCKhAvAclT5YEFJikgNFUsJrBMAgPJKX22UrNizrEKnK6QyG8x2cXoLzGBZTRILlf28RzCbmfYtwPB0t8K2iUdg7WKdNlDdbXhtlXhTLC72+865vMVLGmLhb/AXKLQlFuN5jzrMY0DWTJYCIvVTeHVLxZKZxZBGVZNFi1SWYx5LWir9cjJBC/popZvoHIVtAew2Wyy0PD0qo2zmoCxtuUsRGWq26VCU1Q3O88x41olXQiVaLnfHU87s8F4RJ14uYMfFADBk/YQQuVMMFdHf7FaOLsk62gmGblyA4FKyjtb2BLm/Wq/IwtuezrYJxc3AjPbG4HTJa9+sL/Tn26OBrMIYq2CSMw0K3cG1ZCERzfxLATTL41H0Ww615kldAm4kXKVgVcriMvgw7gbvUxYwgcikV2DYnnb1si5jGLnw9l0fL5fGA7OjaiQEDPYdFSFhMeK45K+RS51Juh43B/ko8rmJRbYtyZCBCmdyNhscMdmpYpbgukEmHVaKkbRumk55I06Y5ITUD692i7N19PtW8gvp/K3kl9J5W8jfyyVv538air/ZPLHU/mnkD9RqrRK6dZP2t6eHg9EMjX8rBZQUwy2AumBF3fcL47Hw35n1Jj0rWrQu826nfuIkWriHJD2ws0i1l7T/p1qEjKiVCr8jfF08MzxaNYZUt3Z2tTYovwqBf/0Jm7NWkU5nNfe6k9nA2awwBpNilJViyhmo0bKr40Pon7pYBqNp8iDhaaANaXAlFqNkAlbaZH2grsCmcGoHjkfr1SbahboCta1xJwgn2Xt4JHjUapUSeVrYqOlyhJDzA6D1HIyfppdqWLgxfgc28J4jKe1wXQqnCTzT4efp6cJjBtGl8VSPQ2/3In2rH3ySyzwgMxc0z21YXZiZJvqQ5jTzUCeXrglD79Zlo1DJrg4GU9nhydTBneQ1YJ11c0YEwNwBrV9LwYkc9evdi6ND2br00HPEsna+ZUS/ZxB3063zLxOszOb9acjisCqNHWqYP7VmHg6sAezcasfDZ4J6UREyo5KJuHDS1JqotrTg1HX6aFfroTiCApNw06EhZqEp7Yr7Lu+M4atsOEsa5udEQ+vhJpZpVlrMXMZZTFpmXaAI+hcu2xMBmHO+okkE4MYL0gkvXghwoJ0uuftMGbjPm1g2u9GusqBxxqM365p1jklldFaquhUu0zKVrR+Ea0Tm0PaViiND2Bs6urlH6ge4neDlClstkU/sylSOSV1+iCaDXYvkX1AKs1CCSd8K7C7s4zNF4P2Wet7IC3ohHY01QIDZHsWVu4OttsNzI4KagGA8jHYlVqTfQ45KQHHyrA5jgYyyCwwgBzjplBE/Jt2R6hoZ6dirFl82CkWmoCNe9ritIjcMIIdUzvcBw+UEVOXZu1gH4uHENuAM4FrJzta8t5mSwewyELPM1OqNtQpzrKr2I63J+Rzm01c5mBb91fbrc16u6I7yjyzrVwRB0oVYSldbZudjOAsN4qnMaxMBrRLUIGtVOjDtJNi8Qo2ZdgLZcMU1mBzW9pgUSPv1RoEQ3CTSfs2bQsy1NoQd5B01hbgzQhazuZ0F5EHC49dnXTiHyqK5TKuLc8Vys4Ed8XVjpHdatjt6ipp2+ENHfTjSZ4pSv6EbSLWsJM2ywZ7S2qfak87Izv2toc3sVSzZWlvs7awaDtJGKY+uqBVvDXiLTx9u9dbazWSXUsmBYrXmGwKZleTXAqSLCf5Jts3C3PEluaQmNbyHGRJrcwBCaVjEqOwMEdpdQ6JKR2fgywlxBQDEkonLaMMIkgxsVMLwJjeFQtQS/LKBVhC9SptyUEd0avTsJjmNWmgJXltGpRQvA57WCmhyTo+1+OmErSyiiyAG9iyNHBc55Abg07EVLcjfpK4UmmzWClRYIR0nPHYXqSyvtgwuzughszFpCgreAuQnK27AMvbZSDJL4VNt0NfXkc9mYsJYMWhJoBjNqUThNlrZ8fqIrB9VuzM8UPADbZrgE+E3el4OCwPptbkwLSbY19jxUDCasltXezVTKxBv4e1m/UpD+5ssnha41uCgrhjmvPWN1lrPD8i0kZjpJeMNxzjU2nSL42H+CpedmpWjHeOP/4OfzId/mStO0Pli+S8S/zxW4DAngPu5U9mjz9ZpRTOxhMqdCVtdow3ceYcBNuUIGx1psbPdCUrOJoQ2Adzxk9VyNQ6s+ngovHy+zffTN7bv/kWHv7+zbfyyOzfIsDs/i0CzO3fIsB8szPF1ldGvT71/HMHg565J8XFqvHtzoTCC53hQZ863oHuUh5q/DXEWu/s942X2e3sD4aXwPci8QZICGezqDsdTGbkMoILz4MOVQ72+9NBd21w7mDKWODTuP29QU9RABIeYRGNN5PWZharhpNOl1mwUJc4CS6JWD3NewRg3Jb4CAJrog3SwTQFLC+RD03jsaH/qhDp2qXOJEL751WYsLoh9nhsxxm/GbANFdYzALaTnOwGiFFLMgeIzq6TzKfoN2O5p9lit8BfNg34ZySUn1CFzOAkWBUmgc5NL+zvQ2rQPdsfnNubLSARHJUuJSgVthmD7gLKnE4J7ywc0eO9Me3ptMkyPm0bezBhnd30BobMdsNryMrqx9BtAo52Z1Mdx44efbLTFqnw1xMT43b/Lpbts3fS1Wyt35mpcvyT12SjTJEp3dq0bFkJ+qVmKPCMSJKnCpdnzkWz80TGxNFfarTKdZ7LhbWWlK+U62p5j9U3a8LfKvsSiegexzmQfpwo2+dJ2bDwPEUgQJ5XFAq6R7qyZJ9XsUmU59WhzV/T2tIoyrVihXheF57VoOb1pfCsPG9AsQR+Y6mkoeSbQutrPmiDkC7PBzuv7iGNVl34e6gMBM+HsZjLmD283NZQwCPWqgXpxyNr6y2R+KNC5gnPR7PpkvYfs8bWgOdjN+zzcRu23ce3bf7r7rDPJzTt8+tlI8nzidW1ouS/odHU55NabX1+Y9PWv7l5pi5yuqWKreR5K0/h87ZWuyr523lK/smFYmuL51MKxS3JP5Wn8P20LUvn6VswxPObitWzMj7fzFPwvoWn4H1r4cyG9OPbSqd1g/ztpTWdxN9Ramq+UNpsCV4Rv0byJSy5PMtrln6wRnCI5xrPW3mu87yN5wbNSnsVnkL/9IbtD62tCz/VjcZp0Rv8enXG6hW8Jp6N082nPo1n83TzaULnjtPNp9/Ms3W6efPtPMPq6ZrUa3NqIPibLOEyLlviyfE8y1P4uLN2pibwu+pV9UHvrm+eafP8TlY74eu7eIY8v3sLgfP8nmbYFvg2T4Hf0zrTknyn1dyQ505rsyjj3g3ZFvDstS0f/XZdd267DJOM37ktYpA897Zs+WDL9vsZW2dUX85vtdotnkOet/LcD0NWDWNGPCU/5nkbzwnP23l+L88n85zyfArPiOdTec54ipwOeD6d54UwZL0x5l6eQu8iT6F3iafQeyZPoffveAq97+Mp9P49T6H3/TyF3n/gKfSe5YXhrULwB7zSlnL4bEkIyR+UhNB8jiSE6A9JQqg+VxJC9oclIXSfJwkh/COSEMrPJ6Gs/qgkhPILJCGUf0wSQvmFkhDKPy4JofwiSQjln5CEUH6xJITyT0pCKL+EhPL8U5IQyi+VhFD+aUkI5ZdJQij/jCSE8sslIZR/VhJC+RWSEMo/Jwmh/EoStwnln5eEUH6VJITyL0hCKL9aEkL5FyUhlO+ThFD+JUkI5ddIQij/siSE8mtJ3C6Uf0USQvl1khDKvyoJofx6SQjlX5OEUH6DJITyr0tCKL9REkL5NyQhlN9E4slC+TclIZTfLAmh/FuSEMpvkYRQ/m1JCOW3SkIo/44khPLbJCGUf1cSQvntJJ4ilH9PEkL5HZIQyr8vCaH8TkkI5T+QhFB+lySE8h9KQii/WxJC+Y8kIZTfQ+KpQvmPJSGU3ysJofwnkhDK75OEUP5TSQjl+yUhlP9MEkL5/ZIQyn8uCaH8ARJPE8p/IQmh/EFJCOW/lIRQ/pAkhPJfSUIof1gSQvmvJSGUPyIJofw3khDKHyWhJupvJSGUPyYJofx3khDKH5eEUP57SQjlT0hCKP+DJITyJyUhlP9REkL5U97hqBlu4Yzl2jzFeLF76IsDXetMJuKgef7udLxv7jHebMxfvzgc48B6O5dm/chkPBuuM36GA+s9yY/Em8R37HVmHcVdMpmtQa8/Nr4f40S3bU6HgtTsRLN+OD6YdiHhR1M8SpwicUGn3bp4HDQIiEBASTzmQu8ZBxEcL8+EcfzYaK/TG98bkfT3cJWIfezh1+Ip9/qzzmBIKtunv5E4InjMF4iN9InVkc7P+vsa5bVFSxcGO2zGYWOFja7IxTbrLmMY/9j/v0128QinCIP0ys5UaI5omdwxZcb4D9dBusLYrQN7CH8sHvRMdiSZC4NosIPgPJPl4U7hTppcxM4jMnteHtqjaHc83TdDszTQEXuRZ5Y11d5jezAS1gGtdEYA2WVVpEggV1gILi0eN0O7ZK4knz5lusocs5C98cGwVxL+ap0RAPi5bjrG76QybK5GUoXE8V2VrWK6IX2pZ05MpKdrWoRNNSf7++NnDMSFbRK3R8ZL3qkLqkgv9sxVxNjPDUZs6aTls4PebA/Orl6Abljveclc05WWcNBlu3XtQMpc5mEqIck8w7t+JoLY6ER7RY6pMDSr5oYEhNbeGKmeilpWZIt1UyQDwAxZMQ+a2AhwG+1tyzi9wjMPvuAC+QVUZLTPFg2Tbx6yB4v2cGAB/tCBkHx48xAdzpGIixFDd/ug1HaZqLEeBKurkWycF6BMLyU3b4ndNCfCbcrwulxQyrOhKt2U1NDhMhPX+Lnz/UuGPeMu0OpgFAsTrRdIeXCuz6hl2DWSs1uZ7zdZybg9S47DKXKIdmDH3890Lg6iduccA+JJsi7ahA2IrY4egdjGr+7udWR7159GYHhJThuqlEUV/EjSDYRMAL7f7qD35rnwM4TXyLw+6x0fanx+CxrS/JJZ3u0MhztESoWvyEy9Y/uDOFKa9O5KW0uDuz1mE5rgKHpe7tzw0mQvYqX08r3k9DBinfSWdobskb73YCxG8U2ed8UudBNhvsrzVvYYzimkzhfHF8F5reetzpLwPnuzqdvB58wJB+/3Eq5ODsfnRJUUpT0uxfJo7O5G/RmW2qx4p2SAoWXpv87zruqxTb7Q71WV/zdkvavLFjCXs5OR66230Ft/3ltM20JvMTILvc0d7m3+8t4uuV5BY6G3yw6e6u3Kv6G3xw73drVnO1dV/unt8Y0UD8bP7hAf70Vml+CHXXtcpCSzF+OxmcoRIk4IMwnmlaI504SQsLFxOjPAfgwhhfHdt3XPMHWWTK7oxGn8ZdYDGxUA7V41VkwkKbuLhOps0vus5ApRF1Lklpi542m/mjp/ZrXYHUyjWSIXaQuG0vn8ugye8Ve64/39Dl0o2pV4HhbqGTuD6DR9kAFULaD9y4l3ehfcOpW/3CYvKagiRjXsz8zz82Y5ZfNXyonqsMBPCaUhTQ9pxk2LP+F0CRNxwdnMIhYZoSu41pkyhG4c0kzbWJ3qnNSUTL0/u3cMuustottnbJ5J0JA/SZ8vtxoyJTCWe6GMMoxit6xRwv5N7+1MGTbrFQmS8T3Rncjc43nhpf2d8dDxEGkG5u5BXzQdtxRJKz5RN8jth3Swv4Z0WccZ/Zgsiq0Ol++jTFCYAMN3JrKDuNf7I/EcEKNra5ym7B1E/TXUZl08Ojp7aaQLk4cXNtjdbYyGl1qM0oXOULEzZTtVKvv7BzMRgS7slq6/SJeMs55+IYr6s0oPLuk/yjkdgPNuz/NcQQDoEgQ6kpUZgOHWdKWHx+3qt/oMoX/elsbEmYtaCKK/JJKV3ncEIujvoW6EPtG58cGk0sNZNxkdRtL3M+mspMm838PdkvWGLpH9gGfycTZU6h/yCHunSfmxEVhsLnTUH6g4bvAByrdcoyjCv4LRQAQi7ErvX8MM6UD5gZDwwg5orvdA5Rw9TzDdjHkImQdEa+/1978G0zLrqwNc1umlSu9rIeHCfQ1mBKM03oehPlHrB0RT89rqjMSLlPGfG1+Uzxrf4GJ3eCC9AgjZ4bCzo6bmQl+mc2NCV6iKG42SkaZmFzOCTdPMUTWsz+VzCoc7hU9kykE1aAckCKUewg6ZAZNJv9eYtA5GcoNR/BLfWs9Kj42W8aYHo2p/dI5pTHMTG6bvRRR5mWl/h9Wh1xjBpgVl//UWquMua9JMmPy0kFfpfBJhacq638V+hR6i48io1Ue/IgRoMl0MPM0XZddWGRUPdncx7VTNOkZaQkEAucvY0OZZwwa2Uwv9sFtHmMlMYwJZTX0tZnKOGSZ+3jWfksOSA7WEjBBcXuCoOcTECVvIem+A+z691JhEIh2p/xns0SJUZPZZGHVQkenoXMky4MSARezuSWtRe1xA4KOe+RzjMZ810pzaBJ2NMO4v4Tqedeu4tzvoD2n7uRnxZUFguq7RgC457DEyMbCKbXbLPOBsApbt4TR0mwlKEiPW7Ew75zj130sV5kfYaiS3tDbsTJzC5pqcMKKkJqgV9cCDU+JS0LQX/HwOA9brcq2UTEYuHW8WBZ4NcVr6Oueb0zHbRH95JpktRokJQxPEAywfoVoNrKc/iyUhwr4fPcajB8QI6Z7vAA/7Utgfshb3e4x0dhAVx9Oe2+odgZCLDnbkgGkHr1Qad7M/H3XJdWJWlnCDIrcC9ntrhCPK/QjHCALL814srkxfQhMWygIKZH2aSZ7ufBRd1rTt/RfpXYjTI6unmHc46aPoeD3+yi4G7YxdsyItxIDcw2Bb9nR7yPGYmLFmJ1nHI2JaeMoy4dCw3NBaTlns2+PQ9Ro0ARCt9PLd2CbalpYORrtD2b7JtZA0yeVBtBkXqQxXLNuluH6tQ0wldou6MdRS9SYHO8NBtAcxaVjYbY/b/c5+dc6eNOIfbiRTIV4kTmC8ZIUz6fbcDxFSjd3wXjiV2R4psrgvGN0FFhY9jKPpbt36b6I8lDPdMDUicRVLujg8mCY2fX48xinjOoF6uRlPzmv1J5xUOSwO9OwpuyH0bk/JvE3OSl1xcpvTtIJqQW7sk3QUGqLn4Kw1WmcLLZmFILEtDxXH3rItsO0F5U4g9nUQCzb+tTNp4BoRFhNFozu62cFlxbL2BgcSCsrOwzw5HkmYJx9Npv1OD4ylaG98L+pAgKrYZ5B74jqCvmxpbOFVY0LYFNCIyxyzlV1u9aJLHL/kEid0zWQKnpxqN9vC6HN8c6ojfXm+b644iOXzXN9cOVYpPM83V+3Mpf9s31zNsE1njbhT12i2pVzB97XtqYtP0aUB9nSq9fBcAneV2KSuEnuXYYvtkgov9I03jtvw5+JiGthOsNylO5GLO5FPd2Ip6cSytqQbpspoVyKYM8G503i9A2wRYJj3MSCzsRSU+xcGXRe4ycYnpXIopPcsvRLHdHpw6SuMII4cdZPHIZeKrXjbJNpqK5dKZ7c1EOwdaoTVTzLmJfQ4koWG/jKQ9LzSY6pZqWCUqGVpvtQ32QbTgx1/0+0B20KA5RVONBBk2o1mfCfGk3RS4ksuvhmTKXJi3Eju92RdNkHOOUCMn7dvMJBacgwUCcKcwwUXPw5TxU4Ibmgl6bVcMeNA2d72khs37taydxkB24ekJgd+lfJ2fEv/cvQCNoRFVQyI7+8kYKXySkQ5B5VkjshErHcI4aoMFcvk6oUtzpvVKzQNJrh9zcALz+ohty/PbaJsipBxt3/0El42IC4soXcoM5yyqoARv/QBgglb63pRgIPRJmS3m7dtb90OwLc1QzwFLDdL9fEI12VwkRH2BrLzVtZuN34Xh2Umm0A24qh9dOGcrAN1cRlYjclWysyZvnktuk+ucTAb4pTIEk45SxDDwa5eNozkl8BYGxPyDPX2NOvK+QjwMpvNwk40Hh7M+m5fziLUTffqPt8c+17WehueXqVCcdA92Bl0w87+ZIhmeua469LWumMJt3ttux4E7kZPoXq2cFdIwqtqjEru2Rr/xEw6+jT2CjJx/YU5PjrYDzGmDFRkcK+cHSAEH1loKNOEEMa5A1a1qcstKd+M8/JEFrvpyHyTWUlRclbwmKXmcquRLRUaDnR8TtVBTqzjD6BmGvaE1dgwYTDOUcJylWmysoFwL4aaYdW3+ZYNS8BCyIbNj/hbsmXJhJJsiwjkBotVebnkzsML263GGYH47t2qTLC2RvCYVJYD9oZuaHLuGm6+OD2I9hp4SkSipStUO3rhUkTbZOp6rQlL+tIJKa98adTZZ2hVScJERTO70/73HuBBiQoQ9Dp3ju7R+Wh/PMbvEsuZIRKiUjtc9Ryu3EIlvPODYWd6eiDoADJU6c+6ezwWanrjVJfehNAZDHVh1VnXmBXkJ84AQohNp4u0+bgNLplhCcWjUmmn/EA/EoD1YuLghXP+YtdREJgnMCnzjqYigbgqEfrejJumjkwVW4Qg5I4bazbGBnUEoHZD9J8BvjMob5/dCLCHG5Vqebuxtm2LK/X17bWWfXGT8cdW3uVKpKJfmHYTLlhtkVBhZOWJlywaF2f9wQjfOlmNM9alqhISpe7BdACHXm8QTYadS3UxJasIy2bVcsB/c3jAuYtrbaIZ9IxqxJwOtMJ529GmlrX6ww5R3z1bITtRoK2w37cHblRxE4Ek24wymwacfyZ6tnYwnA2k9f50TbZeW3YoGCBd5lEQtvrpfb9fGtNBibfVOnIaJ1eH3Oxx96NluePhuzUtY5cwUtl4Fcsl61te6mzPD2IALQX2tbPl1KXtlaTRYNSbOM3ru6T4ZbB2Dw55rBBYt33L3ft9k0kqk0DHh02pRQ9T6NYGUg0UiyujEZKScqJClXK5qvfPWY109ps5yJ75ENVwVRu7uwXI8YjgIHXPq8gSx9MrBlV9B2yxtdrA9oeuRQCl4Q8x68aWDJpFKkX3w+meoV+sLEwPmguqxcZZa/gxMgUnczymln3jOdWqNUWJT6FX/pgDpLzCaOTcHRYigvqzSxb7Rmcjhba1kd5ZtmFiyPzkjYtMrVLfjsFZySRFuVrhzqQId+bOedGSJZmULpcaLXmFTrYPmzILVxIrfEzsMmNhr0Suak735ou6dHyN1PZaoVbR+3QnNOtulp3UzNm48VNYgGDOyxXEqlDRbbnrj2kAciUjjwM1B1xlAc1CuWwBV1uAu4d/jc0pV84nubYhlfV+2nXpd4evV1bi3txwueiN781E+h9HH+alJXbw54jDNNVXRdB1CELAFEryimylWKnaxlC4DRwt9eN8ud5rm81cTqqkK7hZviuoWhU1jRYnpkLVa1ntaVbqcmErAz1kRCpbrG4KQq4dqNDz6y37XsTSEfQPiBzto+FdbehT9KeroJLmdzjI6ez05UjpCOaopmu9N7Ed/qSPXdPa5tNMhssqSOjCjyMLmC5vMOvvE9fyPX+Oi8mMm4SuilvqfQIkhbN9hpmupSjB2ntMdl671u/I5QQ5qxIzFIqXYrLWAJrE8HnOFPqxAUzxmqJAdGQg9L1dojJCjrQ/G7sUPoCFaiOfZwsyG+MC2iy7WF13rG2QJUHiexiNPO5eDF4bXMTo46dZmqGeV6jfRABgGRfDOq+rZsVFMGrjC323VxsPe2d01SFmyZK8liy3fgp3w8YFK4iZKoeO+FmyJV86FMFgC9YfitiVaT1zPM+YjGw12tudNzWkzC2acs53flMPH7P4I+f6eAPYTtYrn5MqrUuTQW9AqFs6kJ0NWA1nuMyVaPy0p9x8CxXlpGcKolCmU4Lc7xVka5vpso+PM1kpiI3lUjmQb4EwhubsRqUdFBvWzfP0FQkxUn452NqW1wMb+kmOTAiWwLOlhnwHglQOC8r2NXkTOo+Xc96SzxSqzQ25jyjvL4hFIuXp+9HuQwLufMJhxxM+xACxFsVvGenb4HHOD7H1KFqIvuGSzCsVN3GAeHpiipjKdnovYFvZ5SLNmGdnCBMhqM1JD+FsjgYX27FQEZP6fATZpTYizSTCzTJdL4QJiVyd4SlpjNj492ukT4ZKnvZCw5Mnex1i23nja8ICnzLBJyRULmcVZmQyqaxFeOpMRHKMWcHTgp42srqSk6cFPX0QNW3UTnSfafMGb5Htd/jDuT5r97/gm2elgU7JzRd972ecJ/b76n4W5MhFYrnv8sz/tf4tbsmSucUlLQf9QRSOd2fOBQulCDbe6A2i+nhkJetY+w1ga4PhMMb5OfLOR3eQXwDSwL6xndOYn0zfuOxLloM20jBv9M0vepotL3T292PPm/SvesjkCLf7nb55fbpo7sO/wze/plOI41cc4K2E1I9nDnnn7/THzyD2Ex4wzdEvdhuiA+pvUmb+hoOlC7XxeMQetzoYXorb/Ri+9B7HqxguJwXkeY95pefAKWFowavjgkQOCv7lGOx2yUnBa5MCjRzOC34lLpCN8hz8uhic4oc9vWWD8t/xIgX2AAoKQX1zvx0GhVnEuOTPUiXCsMDen4JZpgT65ymocCSwD6QiLs0Oli8yL/e8P/CO5LCYoMLlu1AamY324BZN+QfYjrNNuwISsGSr0ZDQXWRek/U+H2uAbmbmKvBlzzwTagpdnFf/jlRSIR1y/750wVxnvt+Ck9UhpYFf8czL3FnBovq+yDuI4+pQTzdyn1w16GKiji7+VBy6R0xiID7s1qaqneVndFL/aMYh6dj/tYQSLGu2+COIsXQrPf2bmFg/2TytciCC+8E+rLRY6StzKiLpcn83Ml/JeM/3F8DINzL/kvF+1He9Fim8zTPfO89aWyLjwzLvhClwidX/+1Ef2REOZFgZpFY/IpASjGRg2OiY58eHAcQ2bUXt4I8vsoYx41BIvJLIfDnjvYCAKCc7hWm/eLDjCP1GckQQyjmD+arnfclbAOE7Pcv3vqy2PfYzxnHGdmESV6iKH2By5g/8/fkK96yM+arekQvpAp7LtXHaVq6wCthDPVkIcKBWzHWHQBbxdAKNT/9WzPWHYRb1zIy5WJBLfhsMob1daJ5gHn4E2FZoJyVbzBy5cGOeaB5xGdAibwq8xKpmrjOPjNO2aEuyqRs+N5hHLUIs2lkcn/jkc2IeP8/Z4u8SCdVZ78zUfF2ctkXfreRESe7zzBPijC37HqdJbQc1r/HMf1TJa9BnRKB1f388qkr0Fm9VopT/YaEU1+vi7KBDoGOO8SxmYYJSHjB1+9IPZlga6wfSWHZxFXmlUZ6dRsEqya1UwD+YBod4JkzBu/vTMUXPSRfVD+xLbvYFu5n5oSMKnQ6YC+a5R5SuxXH1i+aH08WlDqedzzTPS8OSde/7zI94LPKYsZj4xPySxUzsxPvA6NAfexvtweZdvjhG5JuEdJCnEvLMX8TgKvIh/5eENy5WGXqJzv69j5SYuUedrkfmnz3vF+J4ApPSOWGfYMlNgdTReU7G/KM/g8Ama3pVA8Uxo0vmTz0pYQUdDrqs0odKX5CZjSW8KHcP2mu4zgg6Qizen3lxwe7uYsn7veSuoHl/1vy9J7ZGqH0wS9hDpSRdEFDEyu49R1krDnqDebM/rbD2FFkpovk28zIkFW10eq12tU0ZsrrP7x++VPfDmcieZh/Yy9obqA6D8bzU3e+8S9rp8U2cjp5Xo7dkUxb8zZKp4cqgNOZNmfkl8mWXtGjfAp3kgHElydjCb40wZ0SeVuVpQd/OqYM9kzNDczzJ2MLv6MEs9hO1GpkV70QqaxEK++wm4PQKeVpQOT65auiiRGuvzUhpJWrYQwvQr1oA2HprAlND/FXf/F7K42jY7tHTqy8D2qrrWC32o0kc9Jp03qJsROoPuTvOK+amdN6i1C1IDal5pHlIKmsR7rAQ5qF5tHlokrGFLZvXL9U8Vq6nxzlbHO7iJM19p8fOs7b8blvBggTjcWmAxfnOvnppkXmB7329S9uS7blg4tjGrYdAFnFX2l3vj/f7cqfiDb53Wxpgcc7ZlmOgYN2+CLJ4ezN0fr5irEHIcivs/2xmsTQ8P5hUmH2eeYWWbLJgynzsM1cjJsrE/JzC5zXae4PueYxORNnPHypTq2NuMq/KJAqLkuvZaWRe5Ht/nJELq1gx5tR4Uu3vsmjMNYLh/wkvjdASJTiE8eI5RnE8I+xzBJWfPIxzFKGXzJHmJQNxGOTCEnYImfzUYZz2GE+J0jnKSzVgxJaC7kcsgYwIwlYz8dMepwQEJQrRBCotkZD5eM78suyKLzvve7a/MxZXjm5vqFsG7OcdzHYiAb/KgaXnCfAXHFC7mkBf7aDoI5sk5qbM8tc4IE3ZeYY0ftnBbFMJ+LUOLE0lwF9xQG0qgb7OQUNVSQtmTUnL6lf9vXHsNyWimpmHmwcfBbfa3IzkWyxoUd+UDQufy9jCZ2he+sWyCA/n03mLMlRQs9OTBRaU/XTeotAgoBIjgQFVu2I2zEUFnj6w37Y5bS5p3paumQ94mt1I2HYEaeAvbBELlLp884IP2gICVTjBVfOXNmv9NvIfsvkmPgDOUTh4ptSqmn9aAGv7FUJrESx92halGbdFa+Y/uqK9wbDnqq5Px/Kdhc/YEseWDiHQ/7QAtUoA+LMWrGSUftgf7iKcz1l47OVQxdTNj7FDBdjCh59G/btl6C8y6D9uwfqxnab5Q5tzPLuRoqV3+/uDEZ0mvJ0zfySeTZx5z0IN5QIdYT83My3z175EGfospRego3zS7qCLe5HzXpo5x6aiJe+WfThjflNz2NyDfZwJAG9WAMXrcLZifkuzttxC3qIQEAqcrGG87zG/rRCLkwDfqkDQ6I04JL+jeYvkQG/jvC0cMQXXO/tMeXv9/SM+eo7DJhKUUIjuwH5UzIm9lxJiPTRGogUvmBcUEce5+QrCovJj3pyUunEv9s3PpGBtapk7sf9zUHl+3+ZnPcLPiE+x7javSGE1cdT60wv9UI9TYfq32CESY1a3UfHb5i0pkHzaaNX89pxXIruMBh4Z2z7mdHw3pU2R2TK/m2pKwojjA1HGt6cxax0y/FOL+nsembgk1YN3SACP81jN47+ggcOO3Lh4Z6qBUG/QhsyFWUHfwBNb+OdzVitz0pF5a9b7pDfeeQbdssgx9HWZpIIOEHLToLN5b9b8L88evOrm6b2+d7/LS1Qb99Sezr7P9/42lpiEg6BBIMd8YQ4LCNEA+e9zSJX+27X1o7754hyutXF18Hv+xxxKfQv7lzmsxJRhCJXVyHzQ9/7PvKzNGp6cO37EN/83VUQ3CcGZ/+F3ksOKyHzO9/6bv4/S4MeLx84Gw/eelZmjlBAuJyVyhvJZ3/xRhrjOoY/SHjf/zVPoJvrlbOCK+Z+Mo25Bj3iT4p0ewYUHLN7C5tAwoTY6N2LSuNutwKQYDWET1AVeFHe9ypJ+wFbAvDJrfpC4iwO35faqeVXW/IaeLKD8Fwb9e7X+R7Lmpb4y7HYadM0zL493UCXEK4JIFt6f9fXNyiZquMN0xUiY14sh258ouQ9nza/FdWkGT0un7QvzRJonhKvEcwqlNaJDg5Gqr3l13vxM5l495pD3UYj4IOy+eWfG/IQ/B5fsJwyXMAEWWLYiCw92ZhzuuOJ3ZMxPuvJSp8uWGWvGDKLkS755iSupjCYHs+QKxYuz5udcgXhBs8GEmf5KB9kYX8Caq4a+PWN+0R9EZxUesgael4FCJL+E/GQGIiPHRtSQO9+gaXVQPuPI1fqzTk/k9JKsea6DBRdEwOZFWe+HHaSJ48Uqe6nWHx3Yhe8VWe9HXKEyL+pWZ3RV5V6eNT+RUa3BVsdLF3OBlcBXMNYUk71Q8lu2hApWRyPz0Yx5iwVa9LOynCv4t4lUOwuCwZS9JVqxO9ALYzJK//2y8iazl500a4SNt4D0RZ9opbuG/gXPvNhuUsNJn8VjWh+L2q2aH5LlBMd9wrBKMZJ7eWYmystS8VHP/G8/EnBbIEr4Y3nzf1IwwqDYBsKEFtTfF5WTmLQ7Y/sRW0DcQ75y9PG8+d00IOxPCJqJrqya92Z6A4mf7Tc7BIM5+GCl+s8cpElkoDUez8h+1mVjuVLrc76rVdUSuaelHf7nDEearsgRVCfiCxnzX2O4rdLsHESsCF/MYHk4zWEqlwcy4USJvmLlTHgoGB3sr2HE0Gzz6qz533b1oECEEhfclzU/4Hf0e5IjjAkETs5z1kEsyhS2K26QhFBPXQa0yKW+njAw9moRGvbq35WXQy16sD+Ap+qABwbwRh4uZ4trM1S4jdKcZ6EB4UHpvEVpMHdQo7TrjEv9mMuhFv0uy0lIUAoSRPZ97xsWQRYPjSB6qZKIxBX7FvOkRYhF2xnqgKzj8kTsAbxvTOUtRneXYUPnovOE/1RQyCO6DGiRsVFKe7yGPDzDApNkLcKFHYzPwhdlH28efRhmUe8kXtbjHEs/pUrHzM3miYdAFvGeLqMop7zHNGGB3xaxuFZYB6chUpTA8w2LEItW7bhLYe/2zR9ylCarpubf7Jmb51mL3LOAhM8tt2otmV/RnTQxnL2QRmY4VeaNGTssRQbb6lksKgRzr0TQMQav973ne4ytqrVoFWUv9CJ11+Zfh/su8/MsfrKBDfeZlXv0nP68yuG5rX6PeK9tsQ0rhSjcWpcEBH/dIaJKaFIXfxsmWXq+x7wJsgmMgYLIb3JYf5FDHPHFp/1RPC9XEYilkqwo7/I50KAMc5g6vaiq/sSSyZl3eyPQiQOTVSvxajwKPWIYHrp5/XLfvCcuEJdL7GyMAGN/HJfNBVoRwcG8ILzCN++9HKOAkcXasTqy7TZ/ogiothrKe8xfafc7eGdTzjVFdO6wVrbAhRH+uchcPIWP2R1TCZo0iahkCKrm7+YE5GRUKDwAgY975/uXCBCfO4cw78+aT3gXxnjWgayKzb0pJwiI+B894VTWcdGkYn93PMWDIP4sHbzH+8/uBK2KcxOxsfL+izdjhCWeLJI3r82a/8qAwOheg/M1lBxG8bHGWFGC66Rh5If8IfhsbNzO7XmEVnf6PSXwoax5oU+ofK/Wx1wr6E05Aj/oAeMsowx7TnlY7H7KjwasPWyw43OqZmfUH0p3X+F3uvREw68b7VpV5s8ncsS8JB7cYrabT+bMr6eQqnJPBxG8MXllTJv/YM68KYGUMIUH+/RMthUT8242hUmZBBWKl0J8D0relzFvT0oERmFkPpTz3pqGsth+yDO/k4BafWI66LIq41ty5m1JibCip6lsPHPmdxN4m1Ee1TGEMP7xBBp2xxMwP5rz/kFecqQYlbmc99/LiOOKSGedi+b9GfNpkKPk4y8v4fwjM2FhVG6+4psfy0SqVXr/eB3rgf6+I3mVTt2YpuwAOBz1vd/P9I68hPwWn3GLcH/h6FDRW33zB9LEEbeI3+abd2V2pF1l5s0+7O8wGyjccu2DW+mJOP+Xf6gE8Lvz5sss8zhc8p4bEggusor2pBRV+YHMFJsWo59hYq5yuiGGfry7G6JrB5FI7Cs585985EG92CgI+OMZ88cOXEPze4yUgD+VYQO3P8DjEERLxXwqZ/4EPlJXN2j+fT66jqOC+/5l3/wpuwn25Limu7hT5rM581e+nVHovU4++vN+z3zY74qBbNmDn7ml/nyOLd7UQq3zs2r+1u+Nu5xBcdSUpv25nPk7aHNiirqkb05xbux7n7T+XgGynAiJ18fBthXOp3QSFWaz6WCHECToOfNP2gvVPO3KV3Pmv7BB2cc1Tb6a+CwPwjHMfSbx2Z75n5Cz/ixyti8kCufYORHPT+KrMjHc0RTDDOwHM73+budgOFsoQDD3mBeC7gJWRcRwfiIqSZX3se1W6LyKOPZa50+IKsdA6PC/VbvnZ8yLMjtutYnMfXnzkkyks6NEVQTxSmZQ6k3YcF72eY99DAZlDJ32WEBIb0rzNPgxApluabbvTkrxGiNC2cc983qI9vqBlteZu7TzhljbS5RwiAqviAf0T3jm1xSd4FDqm5LPYcnNdPc67IP07nZkPpn3/nABkXMq86eZ7n5ERA7VYTV9IfsuARwyFK/ImPsE3MIqt/vuYFAKXp0x92c6g4Bh7+trbSWmzDk60h/26uroy8cofsqhqGZUnY19WUZfyi5PO0wEJox5ad78dAp2ZjALhmic29a8PE9j3TEE0FLWTwt9S8b8UmbvYEckF+siPJvXZcxrOJiSzx2xUoiTpuivz5j3ZEqwmUjAz05YOLFXHGvEF6R7xmf5xn/QxapnUDSJPzXxSIYtBnmMq5VtHakt/lWzwYxptWpYAvFUkhsmPvZuCIosAhxyGrF/mh+MkmVxxWRjaOdiCpqLoYNRVflSO0tBPi7gCHehYGnIKNDq8i5q203eh1iJxt1Bx32GyYKOnRuPOZgo4PhdYkJGLEerZnVHAhkhPktXLz9cpA3jmePdA7wC1dQNjAtqho+5ak4sggMCT6vm5BxYHPcuxbinFsEW9wrHJW3fY65M8aiAq1KSdt2ltjF+K1hzN4vDUqEa8PRKtTBRZT+LwpaYmmQZAyYKg7Kr37EqTVFXrBczm4FhikVoo3ykiB2TjC1k1lKIHeMTS2ZF0oXnxZmYTIQp8PxDyAMsf4xq/FqhXdrYtp9lNS5T14vUVItZtdWNLzNMZ47ldTwxL4W/LlMdUxvh6MviT0nmsroNZoVupo0X3LFZqIa0YFJYIX2kE4foy0FL8RK7fmM7QUnDwYxfkF9cc9fRTTlI5YT1EgOSsg/zF7xfmfEuLw8ovCTtz6HaGkd8xltgShgpHcZCjJVQLqbSuNEL+uVCW662SkuXmaQ5L/dZXhYwAsqElUgypWGHE8jXwMSM8nI/6sqERYyvtSJZqGmRzcpGUBBByOf/jEvfStJz6dtI+y59O+mMS8unALMuLV8D1J++Wm8VmvJ+Qr5qr8IvFauN0pk7NhvtgNxyioUUc75yqzwhs/s9mr7cAPr+ngWCwli7jFtK/FrnsGW0XxYDs4vdgTxJHyPADpUUdhcgS+ibMibr0iHOyH6HVcnkFqiVFoqNt3UzPTELKLJO2PnhyWhSfHk5HZgJyhvd4AhMGX0zQ7OA3U6X+smrTV7p8Frho/FyaaEz3BIceRsd9vA45gFWP9MhMjEhi7nz9vvsP6qQIeMTK1ZXJFMTqHhESNmsyAuh8G+ahU37Zl67sS4XqAW+HQP9mn35KLNZd6msQ5PsdgLN6S8+zt/4y2u+WCidcYAlBei7UcvYeiKUGvRUXTB+fpddX3O+nEXqQM8B6W8T4m2tJdgsX/QsCyxMVbHQ3CBq2Go2n7ftlrF07FIWA8JMK3wNBIPhXhJV0n0qST/1ctjiHH0Xc3SxMKBEZqjTxwsyViSSb+7IWIKWovEeaBwqDSiCSGaEYlgjAj8XUjiyp0v2ShbjvazKWwsQ8+iU4Tn8CpGXTODUmzz+HFipl93LMaF7GSl+Iyhr3+eZ18pZgHv/J36FW37VMQW1r4IsLQLj10CWF8HJ+yIrW5WwUtTF0b7o5Cznavxm1PHkPaUT7puGaCVNKRPbh/t8chFHW78M6dQcyfJxNK0rLkM7mtyVxUarDEAaTER4lQO6mgn8agfXFhPoNQ5qG0jA1+oPntTb282WvE/RrgTS3nVWlKXGZn3xta3ra5X5q2g3yPtmceZGKUkEeZMUJbkH6RtZyYtjD9Zs/ILWQzSnbLQrjbo0/9D5m10P01L3ktnDq4dfI3ski0bqPbNHN7aCVqtSRuu2Q/25zm2moTGPiXVa3KYkODGfPfenZk8aJaCcKZRMEqDQY3OdzCPBBnSP8cWfszEEKqZofwDaC2UBBUKU2a7HU+ZjOaHnpnhbqHJMgtfGoUh6gz0n+SFIPiBeAJKQH/Tgav4SJ6TlEypNlwcxRfAjEDxUGlB0NJnFlsU/Bz1F7GMQOxInAGFOMgKIFfYLGjJougZAS5H6BKQuKw8onJOZuALhzKJWZv39tqybxncv7Rh1KXg6Yun4xLyxTyeNpcoDCueNCdB8htV3EY9lZ9RRr8K+WPhJMHD2WSLqDLyqR2bGqTwxbyICn8WBuMABlGY+h++wfxARBpDc5zMmb0m3E3RcHUlX4891OR63Ygos9yRLss7MS2sJSdYj9t7wAHMRTM3aUKuxIzV+OX0QlJwdidTsK03tViBPz+E1WRvZbMteyHjxlwIW5O8QLUF3siTkIGLuUsPCTHCbdoIvcjUfp2uEjOxaA/vEM+D1HuM/c7y/M+ivEQQRr6RuxYsTlqpeTyp+CZGmX8TOlY7GM9n5WrDoRT+A4fAr9Y2gVcF4VapVa7JsATvoVAsFVnx7v9/42bgLbk5/FWXAWmxphhU3M+yf63QvOedBPLeyqNBrcD4WaJZFOMeskEe2+5zHIWvnuwlhojALrwaxkZcxctUrUjc3k0F9Vtbk0wJamkzltRMiyUorMs/OmuU0lytQolFcF5xZzl7Nc7Lm2AJ/FlW+Xjp2DGEWZ3THZu7z7NckbO4ek9kdjjuujE3+Aqm2sGjy8gPPiFYHhocXfyyFQWA9qpeCbfmCCYBMfbNWdC//1exvvuUXCDYP9Y5JwByXUKhmVz1v4OLk8vEmB31B1vObh3qN96QRHCHqQM/PGrw6zMJ4aJ6bZe8sAbsY/3lZkzlEg7+Ky/QI1uLfQtT3G6UD9ktgDpXm9gcjEb+3TyiaJ3z3J5LI1A/zwd7eUYYLz9Vjj671iB/betlKqqOLYkEqMxH8C6luHU3/gZHbgml8ebkR66A+nWFQ8NzlR1ZkUDzrFAdyjsLA2N8Tcz9MZvRzOTw9GdvtoMyMYi8NwC+0cTU2AvldZlDkp9fiXymXYvzGTRwRaSn59XKBu7dU9W5C0QUmwXY/O4fl2qyXCu2ApH19U9wEMr6tVkvs9sIXIWx6i6AGs0lB7gpEnfEklzmrORkD9lPJbQkrmqVCSdwXGjFhIB5wW3V3rsRlHCwnjowCt8OgivunpW4vRCoHqyIpt8dINxZHMuRIienus5fRBKzPmITsH0i6Lqpk2sxGMX6WQx9XbT0Q57KOM+5+f9Skf/PaDWG6Temg8VcmDuQkkW5vAIY28FJ0X0JYALOWM0JKWS8XKdv9XkNhlGKJ2vY9BkzG0h56BnAZS4+/cGBDY0TnKVsRv6nIFnx+z8hc0b6rSSSmVdEfZjGlpgy4536vxC+FsspkThe2iN04nKwce/HMnQ51fPK6N7lDQEvNu9obClxel1VqJVTwsfBsRbcfq2ca8t4wqeOtzVAgJ4oF/eWdk2xuKzjHKrdTCZ96PgDdtcr66UKN1UV/rsWUW4XSZlUXmjKBDWYQgy9ZP8ni0gYAMjEgKLTUr87GALbEgbKQiyFV5/XmK7LFZE8fjObXNFjS7PvIcWEZhY8L8Sl46JpYMFibUKLl65zTMuvtQOuk10gYejZxQIbJLmpiQn3RrionmEIYazQkyaSB2s4BAUd7O+11GMgBHgOurwx+/FoaYcaRuwRDLlucVzBZ3aZY3dyszzNespfEoaDrKoqM5WFkt7P+sSFJJfPGrMHbISLAGpgzx45gAbdIDimSAyOiqnTwTVmz0lsEvRm1XgSJRLFxb8mabG987wiXB+8+aSzHFIiQRX/UJeQbQ/MiHsScfGkuJ1+OXJNIfxWmG7tVylH55fLcL5AC2zFvkQHhyZNS7SthNNFFxGGcuGLxeIkAY4ivnnAcXMtILE6XoWx4lDRM/Fulpqo/4+O19New/MNovi02thh/MV3spMXiUrM/MQqKCe5M0vPvxwlmfInAzw3Ee/EYLSq/DTWyBZF5Z9bjaGvuymQjBpbthYTD9kF29hsB5xLKgVLxlwbzFtqAzZbBEUhACzdkUdukIHVBNsNK2SaE5i4P4MhzKqLkk7sDudk0vikrvjauMPXy+xIy2xio+01+KeFty+0k27phYLbR8Q/gSo2wKXaGDgcdAjyobGk84gQJup1hQRkTz6bjUshF/BKLIEv//Ot/BUUx/iPmnNWhzmxFwnNYG1RzJ1uXBJLueL8T4UEpzt0mO8eRDtk+pjoe6gXFQ1eE87Ant2EpVzJtsySRu+GRl0xWLr+scmxOH+ckWrhOvWrZWzsYKX2z4h1nBk07FsHNuZ78gkFMogUFQrRSnDTrmRsPIVRiLbjQTzxMuVZx07wv9qr2MiZytDkdVkb1/r1sf8G5aqZDGg+wivvkImxLrKl5a86cWoSbt2fN1YsgtQQM6zWqSQVt2rwtY644xLGN5s57dKXiyy3H9ljGioG6NgEVLxX2dee4Yq6jR1Z5Iprxrk+yc2V7R9a7YZGpEAmVJSDyoEV4EhZ58CIc/DPqaj6ko2oBWR3dd2fNQ+cQrVLpUf1hCbC5J7PrXVnz8AQUysQ378maRxRikMXC1lhzuKkGJinVpkw+3t+6H6y1HxvZ1t94lZgZoPRv2GrADFj6R2yJwwHJpiA2CAcwl7Rm2RMvTUPHiNjOtV2J+QxT0xPEqRydNvWIni2Hc7J6/UjPO6BFdv6BLTxRZ4LKeihLo2eCu+Jvp7BqnqnjZ879PLHN3p3Fxp3btuN+M7ydRwYvRw7jiPyRyzIujio8n+9fEp9GXv6AaYW6tt6HKd6AaXm37TzMHuhXY/SldMaLzvZHlfkU4KRgJDzb5cWwdMz3QKVG867t8qYsBLGrbpHFUAsxb9/m+71NJnulRzt+AipeSoCZXY51zqhaZSPb0AeyhFViVItYQbanxA47aEzAwpcCnBF798o/4foUTbubmvLjA+3MLH7J1RZk73WHzbk9e7MDQ98XQm0kRPlSgl+Rs9wNe94cn0inYeJhX2Dmyv2+Y/EZjTgB5FcZiJQiHNcWtuwypwI4gQa5+/AMiPYKqMSF0KrQHUcIiO0kiPO+A8pUGUfMaXJB318+0L55cafF/YtZyyyykj2yf7kj+pdfxDzr5HZYQLEUl7dgRy5+4Fh2O6MLnUjuyXFefiAv+e2yV5OLCI5t9MzXfLkvhlBmWsZWWrdama2NDzALfq5rz2ieZDxbrkSrHPFpf3rGT4FDPAy1e/J7K7uHKVpKG/qWQou1h+pLhJ2Gg+55gmPgEMua6HyGanholdH3KqDi7nEmq5PfZuCZauyVLjDB5AROPy9ByrXr7Y1n0WQ8c1k/YqPu0rFNSCrb0cyNbc5hfS0CjLM1SJV40RuPXFnWVSuyXE2IpMwqPfNWz+SSNsO5jS9oRdu6fnlqTY7oWUzwHsaT/TF+cJfzMtFI+MH2YezjusBQuEWYUkL1pn17KzCGyxrDRoS98xFMSOH/F0YgZS3KIWaELviwswgHHzALYXaLqTIOxfaX9B6QbT9n0eu2Os0NoiajAiuivUkmFAUHkkG/JJInCzaxWi/b0b7Iy6fqcEUyj9GxXCC2oNfvNeOxs82phtmGomT+L2H5ESJkEZUwCJ78oIGTQlmwnbZE5lNEw9qyXKnOJi69MQ/wNVYkqlsr6cgOEVvbeUz5GD9QG/t81nij/r1Jxr9Mp8qiUxlSsfYBQfcG0YbFrIzq/XsPdQEl7CXM/bOEOeMY1kzGRa7vCtWlyhwcjwyjEklOW/EONxuzFy7QgbsoppMCZyd7CNJ8mWVHjHZJrQPGOFo0Is7suEml31uoM1Aur7vZMK6B6KI4TW3UYBcH/2vWl3wY12lpF3vYaKCC1ZAoo+xv0LPKrquDXtKNUn845LSmIpB8AiEMo5ClxTFtaldNRn7LljM73Z3L1zhbNknEq1arcE4nGX+xKlNKX1dAMhOlgsDkvcFzjKm8Ss5CG+s2NjyUweEMRr40xAyOlLFY4vrttFjpLHXzBZTqcnAImYPIfIV9fJp8FrXH+Cb0MzuLehhPhQqxA/lxFz9S/MRYZ+Ku2c+MMVyXNy0cHcFomHDkiDomIvOsnLfIpK4hnP7M16icRM8stTWRpSXJPMhTKZFXZL6a9ZYoI9ipVx+Z66IIWC4EzrLJiti2eX9L9rDzmKjsImVr0++ViMmhAVQpIJghm6tYsWWFAzybsnK7l3bgwN/o48nu9DszRh4zEUhsWMO8psh5cpLzNvE+4E349h8bG6gyQp63LeScI8ypj8QDd7AE4iTY/VZOVn71ED7KpN+nO33zsayZzxlzj7c83qEheaEZE7rS6+OVxNd/jmEysCK6YEfm41lv1Y5EvEhz9pj1js/ilaVhdSEyn8x6J2hqCrer5qQObYyzYe0FE+bUArwZm+aKjGTKwlyxgNZYfEc2VrvHzhIEx0NZRgnzfOWE3FwBOcPJeVd1UyP+nJy5+sLC2D6X7SMm5Kzc0kPA18rPhK6xtQ3RHBTSM9elzFtsJiPzxax3/QxlcaP/L1lzg2TDRNRfypobk5Er6KoVwvtNu+PuQdQYtUF2ddkp7iVK8vwc+8O4e+F8MS0o1bJw/Oms95ALgyNW1M9mvYd2h/JJbWS5ah6mTUFFjlMqPaT78KMoy/Kdov6ZrPeIzqJqPy9nHtk/clH9XNZ7VIe6iEsaiQLFEqoJHs0+2qLI7ikJGCg/j0mG3xEIhn3ZjNg+Yd9g36qV1xmNR5dEpTdjkF3Py5DJYCqhGlme8H7qlIhwDqKYkkXGT75H7j9JiZ4EP4eDyBClJ9DbmezdcdCfXkodnSxszOptAoqV+vp2056uec3q5rruqQ9TMKxxuDay0ajTKgyybZ1gojGYOzH1FxPxlVLLYJSoo+/tDJmiGuVydhUTYAcCpxpRoVu+/R2BTbspEdVy5+LLeE32jBljPQPe6u/b1c0ebzMkbKGAazYzIyXCXDJZGiqKb5fDbZej8SXCs51o1sIkMDi9EGgbbDq2P9HKSxGgzU1Q2b3V5mfr2OI5C1SQaQcSjUsFUhivr00Z5yacjSfsySCRazK4qIS8oMqBXsf2318wkIOoJPOTgLnUSBw6J5NF3NGcyitzxi/pdClOx51eF6aMn1/A7i7K/WXUmMHr1Lyc4ZvE7ZhXEbCfxArfTIPtRQbzCqLdNQgjC+M/TrDQGy/dlI/R0gSB3FafRWQU7Q+0mC49ZjTXFPPcjKfzIs6/IOflBtKeMHnkPHphzjxcKISq+A74opx5tKqaeaHn5SVV7ET92MQ+VA7vO0O3MizZV6EMB+KRhO9DvHZbshLn29Kn7zDH4nwJvwoOFFw0q/r2EP3LmeOadKpN9FGza0m04qRtuNm5xNl4D8CpaGF2ya2Ul+S8K6Q/tifzufPSnLlyF0pbNg5AN65S6hU0kunIyn2pcTCLRD6j7pBVjeCouAtI+GpFbDI+apiuQaWI37IcDPEyhpujnhjb7nlzX867TkGtfgp0/U6sQJF5dc67YdrvWssf2h9ViM91lsyN2k6R4e3usbEhLrMGw7brN2lZQIRxPFW5fcU3D5rIluzSqFtgcDFxoD04+RpkQb4HK06rmLWH4PLPLskrIxV7I6IKS/TgYd3hYLIjnwVJ1qZW/xx/I/OivPcIuEOSztRgFGX4X4O9xxVt9SesSAipZMcSYo8SzW4zAyKZrcSIHnvkdxk+43uPC44gbLecbtgOmbjDJcnlHl9008ISbL3AabEtLDKvzXlZua9VkFemU00TWjiHiBjU+D0OSJYHu7ulvQOJ1q3OSWF8PM864Xnj9+yPJtQpZs6ZTFf3GRWhlLVpNwdyNlehk8xClBdB5btCPSroB7sQYXsPjRIQTSztEJcXlUSWGwPm7bS7d4kmvOXJ5bCVo5DX6ZCM+bHJ0fBV6Z+qkPGLrUK9tMHChcUx9QbBWXtlICTyqVcPOZva3Y3nm780or+xOGjfLkdiIxCIE1pkXodPLtmiMCdo2R1JNZWd+iKF3OQoaF6qK4uv59hPrrPX+gTgFWL8Qr1Sk23UNg9dbc0WYWWJyXoJalmmvE/0k/SGjah507hQ6bwxhyPfsV6OYCvQXCF3aoKCrNxmrdrQH6zywnbLisgvVCsFPTDXCwkk5PdYOGYO7U2GXE2vU+TTN6KW7IVMuQlFbllOwDnm1ktUK5X6FhQF65gKf60SVMvbgLSR1VItTDLHiTo3t1uBfNT7RNzxk7VCnZTcBREOE+RTccdafRsCmndw5Wt3MOmX7Uku3ZP8Qk+W0j1ZjjlaiVsujOyRuPFPPcCFp1XjL1xxynT03I6jvKzuXyx8x+T6FydTFhisiAW9Pcf+xd1CMu9EQSL3eqOFvJ9D4V2MUiiLjQW9K2dWpGERg4Xc55ljI5ROLUdBGrbw9+TManc/SkHeJ6sS5/mt/q4F3J8zJ9TDstl358zJfT1M7YV40KNzqbof4JwqSLjHZ2a6s/SYq+XKdXL7ZbPYbiWXYTy0qVHdCuwFX3t+rzdymjofM+WKKDupbPLSTq7eaG9rjky+ijZut5nFZJaSzHajlaAsr7cC5k9LC8ivpPNpxGMF3X2uqkYcpxUeJ6yuVNaEm5PUqhf0l9xOwa/+9sR2tdE4oxecrqgH7se1rqzARWuzvSGYV80lwgztJ5lEPG/LGfkcgAMXpucOxF3RQ7Zkxtbi8dejF3TJ3rMAZz6rwcEZVjhHcRzMxAVrsXbgjBO81lGTml4nWhONlLQvYwi6cCRNE76RMW/Gd9W2hKw4tAI1L0KzNdWOw/MC8jtDvVIEexnWPj2iqAiWC9vjzS6AbZCfIGV9QTPhkhUVviWU0x5LocZbRiQUy7w3R0hUFtHG9IxKQ3cPWqYU7NT3F15McPfS5DSruV2gwP5OiCiUvACl9WiZqegcAxY3xDyY9fc15e8KeU1mmun54bOhsVcpvVp6XgB6gB8IXkBzDXv7aWClZ97P+OiIIAiZx/B2Qdt7KwU9ANrJN+eMj+IsGr23MHpx1bCv79RTe6CMjBhOusD+Y+FiaIIvRLakHeEJNVQX5iMpZZojBJSyv5MvSIs3C/ELKRzRoUQ1Q3mp1ZjrCnJJlnO9QMSu9zj1FJJxIEtgcPGtBrmQ1t6Y397PrKuRzgoVuW8rOLm1VqEmK4m+PpgPNwrNJGdNtsssM5Eb+gs6Kza1HS8Hx+zv3CT5VZeP14bj87cN3E/auCXB/qZN8trCKc26VxGuqFbqqRcPrrzszYSr5A6g3jRLAa+eA5PrTNcoWcwNsVRspnT62hIixxGedS42h+4lAZM5G8gv8BmMWKvBeCDQQUOwfXuxrjPcQrHZbTsbwX7Dk5tv8sEHU4sv8hRa7UpJe+eFCIEGSfr1whaPTCF0tnhD3uzLbdzK3/zGbfxd2ridv8sb8gbfysZT+HtsQ8J5Ml6ryS2i42uNBlIgdYIVAcsfkjwpOKc2BHoFvgWPKxcuIV2ll36v3pS/1zBlN3leW63w97qywK4vt/l7Q1l6fONaZX1TadxEqlRoug48qEa8gueDWU54PETW8IcGNf4+TJRBZf/wsIZikXiEcPVIRlzoPOoO/jy6vCa1H1MoFoXNx7rbhI9rScuPb0kHvs55Bk9oV2pS7+tLrA08n8jA8fiGsFATtCedKQqf38giyOPmUAV0i3TmVgHcJp27vWZvBT65WJaCpxTLMjJPDZu6ej1NWXj6WX18U7NSatsOf3PY2GzpFcFvqdSkP99KgFV6+G3VQjGQfn17pd7UCw/fUdxst1UuBXvFlFRR+HeXwJig7XjwyqStDAOZTQWWTtJrjc22pbWOPWU91ZHcqIEjbFXUsbO/HXq6Gqzbq7xnZCWXrlRFl1tj1iNzT6x3dawzj9sLzaae99s2H1os1DEJpEpiwasB4w8PIvyyMxyV+poQCFxv19xIr6Oy8luXls4GoWabqoRBoaU/BHg6fQ33xFzvH8a836zVE6V9FJEvgl2O0qPLFXknq6E8PLY8/wXMx8USe6LUtNP5G+xIPMnJ9WZ5olbC5y249MLFrbgZ0uqTUf30D6s+taWvbT+NR0z46aSFtnL1TW25Ck3i29o4uEVVskIyrl5pIyidKTbk53p9+eHEUqCqncEqiWplYXrTcZKL06k6+RgmtljEu5SowXI84LbNlRjjWFhqNaqOk1W9+SKpk2GzUk/4OgXXPK7kgTarVl4lamVbvbrdCgJplfQ1jHexYeHXSg94Xifys6DrhUGeN8jTtnmjchIL6yaaEHSSDxKyPB8sT0fqISI1nEySxUI10Il8ptqQ0arWCq07NrVGzd4rJ4We1bQ/DcUuVwoWuZmk7rCKZdk7bq/OkLpiwZY9fG6SHuGG5JFlpqCDPSaoNTcwstLi49cCPSH7OgyZneFPYB4FrUqJ5NdX6iFs2FrfGE+720SfdfUg85QwNmzfjLFhcOxl52/B5HAkG2e/lZoi7m+X/vH8jnhj0xJNQ4u3byETxplbybTjzG1kNuPM7WS24syTyaiqSuYpZO6UjPJ4V7IE3C2LiR2675wvNd8l89dNbbLfLcPILt3K6ntwCNbVqmzXDn0xBi8s6pWG/c5If2XFSxxC6xX38VXEk/kMnky6KACOD5P8LtKuwHFJ9ZiwZr+oTazoUOAqU5ING17gLvEqZpj78Vsz//FbMl6ZEwfx5BeRM9jDQkmsxxG/mUvOLx35uRpcXGshjVxB2243kntnniYEIiUA/ALmNX7PPbUxzS1sTCPK3Qsv+H+HtqaDkUsTy7WIhem04witermFFsTbU79Tfj852Wyjfow+CS/2q/yKDmnGlsQ3jrOX0cKlnAm5L+TEo5QW/zl3qFMRQ5ca1S8xqpeVBxQytH4nBtJNR++L0NvoEMdMfbYoRo81YS9drmcjG2kINVIMfBkGAmKV6ue6SHs/zlNBzhCfnfe8yH1ShYPcvOcHCYYDU2tX9lsWeYSelvYkSLQmWmm1T8JyqYpCGj4ifT6HSkkRSq1SfG7ecMJsPyejPM3jqZmArCIrJB2fwTcP8WWDthpTbxNrw9NPjnky4V2hNdRZ1oL2dqEprkquUddbhgwvubys7WFBf4RzqSDly6HV5iZblj5b0g6DImoBdeJbIBhpSF//0awXLPyWhPHFOwgowF1Qt8E7FMZdY8q53V8yX5otbJou1x5mplEv24y/wIsdsyyB5KHs5U4Zj33fBN9aQuCnOOhwuTqjgyBlgwrvz8ubbOkBIsrMt4nG+kSZZCglFuljRlKx9oaNwfZMRqPdFYkZSrT6gUPz2d2khy/Is/mR9wPiLwEpFPvSKGk0w1QrhDu1r56Thb+Aj7ad192zfSn1xYR55+VuIp7juMHaWeQA5nmqvWQB8UzyCaK2UJnLvSg/eIcmbOsKCMDTtZnoHUu73YwDPJKSbdyy9TL0t4noZZMTyod6saQTfdnEZN3WTmwNGzoSnjgTPOX3noHQkt3CyV2MOYWiO3dsC31UWfaMIOH34n+xbZMaXqG8RaxYuZ1D5brKnE7MCbYgwBCI9Zg4kHkFbMuoSwwjInzhLVYtz7827HN2Zis5OmJQXsVU3kmz+UqEPouDLXUIQxNZkyg6NNZAeb/lvHkDTXc4MexMzRuptTe+wKL1pjxKhqpH5s0orWqReQsa5G41EOYZDjsXzVvzJm9BbY5l7FXkt+fNkj37M+/Im+X9zpTlkEhk3qx0ad+8K+8di5nQWq5f2T5hcKL9wv7dxrO5JOq14j3AewS9PgcNJLIF7cOcsp7WM+py5kzUraAWor1BrI3FE7NRqW9vVQLxmv0GTkrrMrD7aept68JbfyMbv1qQWmqz1ui5l/F8t6xmdJ0lka0i5YQt6Z3x5c4JVYQ1nn4aA0HMBOn1DMuBHlL7EwwaZiHDsI8qcmftLNGssdxTPdRp4y/PXL9fS/VewuPrGNjxbK8vvxxEIbT6ct7STiRqXsMwKyxUU8WhDYFljMQCRl5ACcLSZNi5FDXwdOBkeUP0Zs5IarSkphfFtfymqNW/BXFNtO7fghiqBsZKOa9hf5D+u0Cd9DneXjHEvuzotcdNkSlTwtZtC2nR3rhy24kRU8AYzQMz/y8V6Gjixs/PHP230ZGFgTnUy8wuh5Jh3NPsTM5NbTqXln6+pBNu3kAG9yCajGd30uv4ju5dpP2uIq5bryVTs5MzVW9BZ+aCw9044FxxPJ6w9Ikp6usXbfFs5xYFE9wlm76m8gk8xzioV+k1CAvbdANdka+1gjL/GgaZD4AfZ1M4H/RY9iWAK6HpLSkXDgsyul5uRkCKpWYkKx6TZX+gZkFeXMYo9Pr6PcMt9eNWTO5oKrYYC2NJXdAsvU6wQxsOTz7LMBlzXK0X18n599p4Na0OZp3hoGuYmNFsKh/cBJi7cFlTkXlv3ssn1NfE09dPDfXjBui7RPfZPPi7nf0BwlYvAi4i8768l03RBPKevJc7iDRwL8G7rv0+LGy4NpRCyxL3/PGwZyHQlBu0Scb2N5RW0sgKoFhw47RFtTUVxom3q7GrwLpkqBNJoS3j8AovVivGgBjbvJ8FTFHNB2McdebivZTxVLf0+qL4tN4cBSoZuYHo5OVFdF1Q/MjVjcyH815GhKOVMLCRfklrK5Ex+zh6YO6n6anj7EPMvb4l/xFMo94MaVMr2XJIGt/3o6KxjhBiUTzrepv5m0Ea3uApHqVbSHzZZSe5TLtBOG2bKACnzdtlAisAswvAObKef+Dpxxfz2rJcsKaIL1wj0oLBAotgHZGBNmdkKaBuZlNV8ToHYgis7/QJVgnUyL3IMeNoJr69sIpC8yzIoUzu/wEMNAAA7ZyJe1VF1q/rnECYUQENMmhEcAITVBwaM+CQqNjSorZDa9AAUVBMMJwoYItHhRAJk6iIigoJkzMoDiQkIs4KaCJOIA4oGBBFbRBn7/vbp9jrdD997/3+gM/niXud/VatWrVqVe2q2rWJRKIuxbX9+I3F/2reblLEvT4x4i5uf/7Avx5z5l9Lhh5/7oXXDjrp1LLTT7x67OgS19F1cpH9XVfX3R0SiUSi0Ui0VcreTM1cc+eaNYs4F3XNIs1PLxlWdm1RccylRlre7Jxrq//xX+IScUG57hDXLNr83MKritKP+a8JO+r/+5DaRYP0PZT+rOJYUWlx4aj0vxWPGpd+WmHx9YVjXKr7v+aeHkFBtJUURCiwXfMLRhSlXzSuMBZLv2hk0dCi9NOws7Qo/cqS0vQziwpHjSy+Kn3kmPQxI2NlhbGi4eklxekn9UsvHFZaNCa95Mr0UYXFw9NHFqeXlpViwymjhhaVxgoz0i8qSi9ESQzdI0quRShJLyRtKXUrHTlcOsHFhX0opqw0fWhRYVls5JVlo0hcOqZoTB8Sjy4pGZU+quR60lKv4sJrKXtgyTihhJ7C0lj6mFjZ8JEl3MMI6h1Lv6q0qKg4fczowmFFYwIrRhReX5R+bdmo2MjRo4rS0T1mJDUoLSm5dkz6lSNjlF+aXlRcVHrVuPQRidr2SR9WWDo8vbSoUHbyq6Rw2IhAwoSRscIYCvqkjyu5qjB92KjCMahMlD+mhHKGjUi/tqS0yIoeUTJGXvO69xpAFhyIKlLcUFJ6zZgRJaO5JzUl+AyTrqcV/J0bitJH42Z5Xtqk5trC4nFBQXI9GdKvLIuV7S22ZHTgb5qyMOEJ/bqqkGSlgb5hJcXFRcNiuhsYEaQrKh5TpPYcVnLttWXFI2PjMlbPc/vf6lz8EHfEJOdmRo8MIs2dV3RVGQ3g3FGRCyj4fyPnfyPnv0ROW0aZ1ox9rVwL15Jx56topMK5GwmkntHmEXdrU9WN0Qp35KiUkQcWxJoRZp+14H9XNHeptzE8udtiDY/D669P4e5nSfy2SOrtURJMrGkaFK2IfzI25TZYUoLbo6mVjGxK8Coamt+YMtG5EUkJKlNSpzcjwaTLYgdHJ7l/dkyZ+MefnyYlmN4s9d5mLuVeBu9oYKhYHMsm9K05sxWjdSR6i1u1w0gkdcKCygyRaPRWN+AjI9HUCVMzjhJJid7mrrjMSErqTc6lizQTmWWkWeqE6xu2iDSPTnTn9jTSPHVCflp3kVTIERcbSZVtgbYWkAHTjbRIvalzQWwvSV9mpGVIUiBuvZFWSbZBdhppHdrWEtft28tIm9R/ehKFxPoaaRv6oBVk+F+NtEudEGvIFlGeflcbaR/mSYH0LDeyT2hba8iCO43smzrB10faZj5rZL9QWxtIvNFIh9QJ26t6i7SA3PWtkY6hd9pGy11yHHRKvSk/7SaRKGRKSyP7h+WkQG49wMgBodXtIKd2N5KWetOQ2HUi7SFDkjzaOXXCkNgxIrJg6XFGDgwtUDkPZhnpEpazD2TIaUa6pk6oaRovIqt7/N1It9DqVEiXYUa6h1G1L2TeaCMHha3dEnLe9UYODkkbSLN/GkkPfb0fpP0UI4ekTnDuJBHV54k5RnqE9VE5xQ8ZOTQspwMkfaGRniqnjYi0PZIU8b1Cbcpz9fNGDgvzqJxdLxs5PCynBWTRm0aOCCOkI2TIu0aOVMsdKSKPnvu5kaNCj0rb+0nx1jvUpva5eo+RPmH7dIpOdsuiRo4O+08KpFdrIxlhTdtDJrUzkinbgqhqA3mik5G+8kFvEWl7uquRY0Jt+0M6HmzkWOU5WeQAyNjDjBynmgajpbT1zjDSL9SWCqk8xsjxyhOQNMigk4ycoJp2F2kLieYaOTHsC1FI/mlGTgr91gFy6kAjf5HVbURk2+RzjfQPbZPfvjrfyMmh39pB9r3USFbYg6Vt2OVGskNt+0JeGmokJ4wq+WBukZHc0Adqn8tHGRkgq3uLKA6GjzFyiryTLSILPhxv5NTQgpaQkyYYOS20QOXsd4uR08NypO2ACiN5oTa1wvWVRvLDVugI+WaGkTPkt6AvKM/W2UbODPPIBwX3Gzkr9IH8ll5lZGBotWz7eYGRs0PbOkMuWWLkr4qDf4hIW9lSI+eE2lpBBj1tZFDoUUXV6hojf5O2IKpUn/oXjZwb1qcF5MFXjQwO+7Zq+subRs4La3ogpK7ByPmpN03N6CKimrZ5z8gFYU2bQa750Mjfw6ezrD7uCyMXhlZLW+Z2IxeF2mTbjG+MXBzappqet8vIJWFNVc7sn4z849/KmfWnkUvDclowKxsXMXJZ6J0IZEWKkYKkeVVF/PQWRoYklVMRX93ayOVhOWiLl7Y1ckWorT3l/LGPkULF6DEiXcgzq6ORoZpx1YnIgjc6Gxn2bxac0c3I8NACahrfk/SsLwprigXxbulGrgwtQJtbdqiRq0JtqZDCXkZGhO1DnvjqI4yMDPPsCyk9ysjVYcRL26e9jVwTamtLngGZRkaFrb0fZOgxRq4Nn9vyTuvjjRT/m3cqTjJSEtqmck7qb2R0WE5LbItlGbkutLoTeT7LNlIa9lPyxO87xciYME8btLU4zUgsHN9Un9vzjZSF9ZHVxww0cn1oNX6Lf362kRuS/eZO+5uRsWF98I4rGmxkXOgd2fbFBUbGh7apnKKLjdwYltOVPK9dauSfqTctqDxIRFaXFRi5KbS6HaTX5UYmhM8sRWKfQiM3h5HYkXJeHG4kHhHyQ3lFPHuEoVsiYV2xwY272tCtIG9Eq2iwrEvcZx23t+miLKfcJkMTQd4/qayn3DpDk0DeDR1ZNvU931A5yJvXArRqtaHJ2OA7XksWNAOaGaqIhHHSDtSyq6HbyeWd1BE0L9vQFCtrX9CIMkOVplDLqr5TDU1FoXdFRGixoWkoDAenia7pU0PTQb5F2rJGmdPW0AwUerd3AMUOMjSTXH6Oo9VQxYmG7gB59yrX2CQfzgL5XF1BU0cZupOywjBjFT/e0F0gX69UUHyyobtR6NtLuaZWGZptubqB2i41dA+5fEdsD/rrWkNzQN4bQt9tM3SvIS1XBqYYui+5Ucrdby0N3W9mKNfKfQzNtVxamxXvb+gBK6s76MxDDT0I8qt0rSUW9DX0kCnU4ujCEwzNI5fv+VodXXG6ofkg7w1Z6JLaq8oUNgc9dbGhanJ5M1Tl9lcaWmBVlhnrklp5Ibm8GVq6fJjUyotAvim7gIZUGFoMCh+T5a7/A4aWgHywdQId+6ihh0F+BJCFXWoMPWIWHgTasMrQo0Gu/YXUKJuTYuMxkG8UeWPlRkOPg7w3uoLymww9QVlhYOPenYaeBHkz5I1Vuw0tRaH3hmY61RFDyyyXJpwpzQ09Ze2l2dbHLQw9bQo13XqovaHlKPTdfD/QFx0MPUMuHxuaih3XxdCzIO95WZh5iKHnUOgtlBkzehp6nlxJZpzX29AKcnkzNME9Nimwa0B+gFVZ0/sZqgX5srQM+zZpIFpJWX60kcLjcgzVkcsr1IJixqmG6snlx16tgyrOMvQCyEeUlju/nWtolXleK7v3kjrRi+TyYdMV9Mc/DK3GjDA2JrtLhxh6CeTrJR/WFhp6GYXeh1pbTRhh6BWQ718y/rYSQ6+CvPEqa8/1hl6zsrqDLhpv6HVy+cCWGY1xQ2+AvBny/N2TDb0JSvL8hmmG3qIs73mZccIsQ2tA3gzF4ey7Da1FoY9Dhc3WuYbWkcuHjUL0qPmG3iaXD1Ghw5YYeseQfNjjSUMNIO9DWXj4s4YaKctbqCpPXmHo3SBXG6FuoDUvGFoP8sbLh91eM/QeyPtQWxKfrjX0PsjvScj4O9cb+gDkjZcZM5IGog9B3gyt+NZ/bugjjE9a8vXYYmgDyNdLa75bmwxtRKEPbJkx8F+GPgZ5M6Qw/xdDm0xhBLTod0OfkMtPRTQHHRI19CnIe6M707yq5oY+A/k41Gx3Y0tDn4NCMyrcJW0NbTYzWHm5VkmD3hfk8s8UTUQHdDT0JciPAFrfrDzA0Bbr5iy+3JGdDW2lLB/YrBXcRV0MfWW5uqHwpa6GmijLx4bKuuZgQ9ssl6r8Ybqh7eRKqvKFSQPs15jhq9wBlHqYoR3k8rGBwvgRRxr6BuQVkiu+qI+hb0E+F8i9kWlopyGqHP/6WEPfmfGsANzF/Qx9Ty4/HrI8ie9IGrF/AIVdr8KVnGzoX1YvVgfu4GxDu0B+BFBZp+Qa2o1CXxYo/t6phn40pNi4Ot/QHpCPDVV5/tmGfgL5KmNh/KVBhn7GDG+hlkNjkp4Ov4D8VB9HuQfOM/SrOYqIire6wNBv5PIRpbJOvNDQ76Cksr66yNAfIF+WqvztJYb+xHhfZfnwtgJD8WjoQ5VVf7mhW0C+LIVNcaGhW6Nh2ARNOdzQbSDflORyJSMMTQT5XDLjm2sMTaIsbwaLZ7dPsaFycvme0hz03HWGJoP84IDxrn2ZoQoUeuMjUb2zG5S4z1u8vaOQloerXjE0BeTN0/LwitWGKkF+gNqXNeAV5xiaGg3bsSXou/GGphlqA4ovMTQdhd5L+7EuG9HW0AyQr29XUFO+oZlUKpw2THTvFBq6A+Trmyb0T0OzUOgfKHq9N/opQ3eCfL3agiqaDN2FQt8inVgQXdDc0N3kCmcUvEU71NBscnkztKhc0NfQPSCvUCvH5acYmoPC0PPkKjB0L8hbKDOWjjV0H8iboZeG8dmG7k/2/CT35XxDc8kVen6S+6nO0AOg0POT3EkbDT2I8aHnJ7nHkhz1EMhXOQ3U50dD81DoPa81xYSWhuaDfJfUEuCdAwxVgXyV00AX9jRUDfIKI6D6YwwtAPnA1vJwR66hhcne4L1enqFF5Aq9Ue6WnG9oMSj0BkvRoYaWUOXQG7zEHGnoYZD3hlZzq0sMPYJCP7pqNffgREOPgnwAaDU3e5ahx0BhK+PDpKZ83Oqlt159Fxt6AjP8ECr3Nj1p6EkUevcqV3FSACy1XCrrsFcNLbOy1JQfvmXoKRT6ppR7j9pg6GmQd6982K/J0HLKSvLht98aegbkfaj15hO7DT2LQj/iablxVsTQcyBvhmbRpS0NPQ/yTamJ6Op9DK0AeW9oLjcpKQ5rzAzNUbccaKiWXD4OtRS9N93QSnOUyipNGhzqyOXL0vT1+KMM1YP841VofNK48YIhTURfOMHQKpAPG+WqzTb0Isjn0uLLnW5oNfUKPc8LojMMvQTyVZbxdQMNvYxCb7wWDvHBhl4B+VbW4mvSxYZeBfnoVVk/X27oNStLxl8yzNDr5PLGq5UfTOpfb4B8K0vha6MNvWkKu4AOjxl6i1y+62nZe/cEQ2tAftKrVp4+ydBakG9lTeZPnWpoHciPNjLjkjsNvf3vZqyYbegdcnkzVK/D5xtqAPl6aaF37hJDjSgMHxyT3V2PGXqXXD4AtOqZ+bSh9eRKWvV88qyh90DeQq16cmoMvY9CH70qK/UVQx+AfFlSGF1j6ENTKEcNfdvQR+TyjlJEjXvf0AaQjyitvt0mQxtBvpvLjNIvDH0MSjKjeLuhTf9uxrpvDH1CLm+GPL9ll6FPQd7zisP2vxn6DOTjUHPUIyOGPqcsP1QyzYsPSjG0mVzeQr1WWZNq6AtQ2B0q4uWtDX2JwtD4ivgJbQ1tIZc3nrL+bfjaCvJlsahkNWfoK5B3r1ZY8w8w1GRjlKbl7Tsb2mZIM9vxSYPedhT6bq456u/dDH0N8gMs9XILk8bDHVYvrSn+3sPQN+Ty7qVe8Rt6GfoW5OtFrvjuIwztBPlcINe5j6HvDFGveP9MQ99bvVgduMV9Df1ALh8AqvLJ/Qz9C+SrrLLqTzS0K0BthHhxFP+sv6HdVDkcYCvcjCxDP4K8N9JAuTmG9qDQjzZaHdx7iqGfyBWOABWu9jRDP5PLO0oB8JekwfwXkA8ARe99Aw39ikIfvXLU63819Js5SnsRxw8y9DsKw15Z4YqTHgF/gLwZqvKOCwz9SVm+ygeD5l5oKJ6isJknRKPEL7/U0C0g3yjyxq4hhm5NCb2RTq7MQkO3kWtB5QFCaq8xww1NBPn2Uv+6+ypDk0C+f2GGO+QaQ+Ugb4Z2MJ4pNjQZ5GOesuIFpYYqQL4sYsPFywzdjvEWG/GMGwxNAXlHpQZLtlcT9yvR5tuxjZZsSw1NBfn47MSSza0wNA0UDjW8tjvf0HQrqL3Q7YZmkMvXVy/7zv3N0Exy+ZjRW7Yj1JE9uoNc3oFR0Gf/MDQL5ANDK6xVswzdiULfjlrNjX3W0F0gb6EUjm0wdLcp7M5y47MUQ7NBYXxOcku6G7oH5HNpQTTnL4bmgLwPdVbxsb8buhczfJX1Rm/BlYbuC3K1EdJa6fmbDd1PrrCJWRBNMzQX5Oulhd5j9xl6AIVhK6PwGUMPgryFWgOuSfLGQ6CwlSe5uTsNzbOydBy32++G5pPL9zutRObuZ6gK5B2lafldBxuqNoXdQBccZmgBuXxf0Ku0Xf0MLUwJxxOtRBb1N7SIXGGVy12fMw0tBvkqy4wTLjS0xMzQSuTHyww9TC4fvVJ4pjqyR4+AkhSeN87Qo6ZQi8oOcUOPkcsHtsoaMN3Q4yBflg49zppr6AmQjw2tsLo9bOhJyvIRpRXW+mWGlpqjZHz5c4aWBQp7C2mVOvMVQ0+BvOdVr77rDT1NWb5eWop+t8HQcnL5iagaZU1S2DwDSmqU85LC5lmQN6M5M6XS5oaeA/mup1lZeltDzyebwcJhH0Mrglx1QpqVfXugoRqQd6/mw2mHGKpFoR83NDm8tJehleQKo5cXOn0M1ZHLm6F3WM9lGqpP9jyz6GMNvYBCX2UpvPsvhlaZQr3r2Z1l6EWQb2VNRMtOMbQahT6iZPzUpJh/CZRkfMXfDL2MQl+WTkk2nWfoFZDf9tTS5uSLDL2KQr+0kYX99Az16DVyeQuVa+ZQQ69bLnn+9pGG3iBXkufXXmvoTXJ547USeSNm6C1yJa1E0sYaWgPy9dJK5IYbDa1FoW8UlZVbbmgdyJclhSdPM/S2KZTn759p6B1yec8r2J66x1ADyAeb3mFtfNBQI8j3L5nRe5Ghd0FJZhz+uKH1ZoY8P3mpofdA3vMyo2G5ofdR6M2Qwl9qDX1ALq9QRyr/8YKhD8nlHwGycN2rhj4CJVn45lpDG0yh1mVHNRjaSC4/AijXNx8Y+thyaa10zkZDm8jlBz35cNbnhj4BeR+qrM1Nhj4F+bK0+l6409BnID8fVr0u+dHQ56Ckev09aYzabBZq0vsPZ+gLUOj5ivjNUUNfojD0fIXrlGpoC7m8Qq16Xm5haCu5wnpVuFFtDH0F8vWSGWvbG2pCoTdDE9F2+xnaRi4foppg39vJ0HaQr7Lmw2mdDX2NQt8rMT5+XhdDO0DeeCyMR7sZ+gaF3kJWPW74wYa+BflBTwvYrT0M7QT5YFNZ8w4z9J2VxdImfu4Rhr4PcnUXkucf6W3oB5D3vMzIzTT0L5A3AxR/8VhDuwzJUaefYGg3yDsKM9zqpBH7R5A3g0Zx3bIN7cF43yjUyw3MNfQTyNdLuX4ZYOhnkM9FvdzBpxn6hbJ8vVAYfzrf0K/k8gqxMD7sTEO/kctbSCvH68429Du5fCtT5fin5xj6g1y+ymrlgsGG/gT5VpbxL1xgKN4sNB6F7ssLDd3SLFSI8W7oPwzdSi5vPGW5DpcZuo1cvixyxcdcbmii5dJa6dBCQ5PI5ccNmZE/3FA5yJtBALiXrzI0GeQDQArzrzFUEaA2QlI4stjQ7SCvEAvdV9cZmmIWqinvGWOokly+KfXOsfcNhqaSyz98pfDv4wxNA3mFadHgm7jE/elo803cntWce9zQDJAvqAuruXm1hmaC/EypC+uypRMN3WFIxylf39/QLJB/lLcBzTzH0J0g70Ad3Xx+kqG7moXTIX3aFp9r6G4q5WNG39Bd8YKh2Sj0M8ADQRXfG7qHXOEEYJL7rbmhOaCEl1Ijkf/4DDZ6c6zh+JRO62/b/NpPKX2uPOmdMw6Y8OvX81L2ST2rmWs+L9W1jLS6OeJc63ubOZbFO/SFIO8mL+Nvlr7vY4168UTN2V36sonOredvp76tm+RiffW9nL6M4+1dOQu7O/VdG6/QGvWtWrmLOn1/pi/N9E1ZuRvSS9+J8comC/k0feVV7roMK3fzRjNBvl5fY5W79lN4UzGH9ykPlbv0hfo+qtxd/TxroZdZ9LxJvnf1xZK+TeL+Hn1vpC+L2C1vp6+F9F2QvgDStz7MMjL0/c5kN+gk9llzJ7v809h9Hsg84lx9O6OvZPQ9jL580Tcu+ppF363oCxV9i6KvTvR9ib4k4fE9Y7LbOptt/vuZllexBb+AZ+kSJqVL0f80L0Nq9LUFm+yvMuN4kz3/Bn0Voe8fJrvjvpjsMrdPdjO+mezO2zXZzf6JB/ufFW5cRN8T6MuBivjq1hXx0rY6968T/jrLr1P7Op+vk/g6c6/T9aQ7gnRH6Wy8TsHrvLtOtusMu06r61w6m2jZbFOdolPlOj+uk+I6E67T3zrnrRPdOrutU9o6j62T1zpjrdPUOjaNXVcTCG4TkbUuOMPsVq0mAJrp+LHOGfOeuWyi6zuVv8W8WP6UfYC2BMNBOsar87qT3NRROoFLIExGrtLhWZ2S1XFYnXvVAddyt3IfGnl/VpeH6hAq7ydPKHdXnF7u3Pk6KEogXKmjn7wiG0+jV5S7/g/oeCYBU6MDlzpZiY6N5S6/iTw7y92q3TrmqPOMOrioE4o6iojzu+D8Q3B+T5zfW+cCeTvRj1XSibAc7p/KGuEsncbTsTudr2MtNIS3QIU6GqczcDrsxiJovI6vsXaZrANpOnlGQ95NUMxl2jdfp8Mmux5PMn99lgBboRNcOqqlM1k6fEU5G3WcijRbdEBKJ6EIyF90tkmHmHRaSceSdP5IB420B62jQzojpMNAFfGXuup4j87x6MCOTuboCI7O2uhQjU7P6JhMRXzHiRWu5GSeotk6yqIzKzqcolMo6BjE8+RcHSDRSREdCdHZDx3y0GkOHdvQ+Qx0DEfHCB2t0BkKHZZgd7uMoFj1ig40MDKcoyMKwVkEHTrQ6QIdI9B5AR0McBVNetXPqHAoo0JfvaXnWqD37gTFbL1J1ytzvRtn94a0fX7klWxLvb8mEHrqjbRePTNS5OllMkEylNFkpN4Dc2+i3uySfj7r9MV6KUsg1ek1K8Hyll6c6g2pXoUykuzWy03W2C3pofswShzAS4sD9aaRe4fq3aFeEuptIA2ezcuT0+nhZ9B7B7LCHkz6i+npl9PTh9GzR07mPRkNHCMIJhBEkxhNpsLu1Nsp7s/X+ya9WGIh+LReFemdkF7+MPqs0escvbehjE2U/YVeubDK+AZ7dultiV6L6P2HXnTojYZeXTDt2icRCPMJhPad9R5BLwz0ZoCnZA/t9WtTX7v3FWzTaz9eG+/aYa+If8ZoMCOLuWAOU+BTtN2tfW1GhoEV7FRrS1p7z9pk1m6yto21P6yNYO34amtXe7jarGUuVKrtV+2zKgiWMjKsYFTQyHB7sLupbUztV2pjUjuQbDVOYk9Rm4eMDn+hkf9OAFzJftzNNPY0ft+H/Iw24bTbpm017Z9po0w7Ygz3/Rju+2szS7tW2p4iCK7hMTFOO0vaQtJekTaFtPujbR7t5xAQ67VDo60Y0v6Oo5szXLelMfehx9PwaYfQu3vRm/to74KGOpbG/Iu2HRjKT9FGAqPB37Q1wIL4Ii32STNUy3et07UgR8dYLbG1libNNK2OtQzWepdHziIC4XFGgKVak/IoqNUqk4Z+VetGRooGHiUfaMnHI+BzLeK0WiOIftT6Swstrai0dGKi1kKLIa16tLyhETtpwaKViZYgWmtoUaHVg5YJWg/Q2IwELx6rqTzB8xdNzjUL13SbEeE0TaA1U9aUWHNfGnawZrOatmp+qokoI8TlmlpqDokNV2lWqOmf5nma0GnmRvCNIxDc45pdaRql+ZImRpoBaaqjOQ2jwPeapehfWnDu5kg8ElkYcdE3I+6tSLOpKZGJUXdPNDI5hSlL8G/BtNn77y8k/lEYRvVFwb8LgzCli4Tu0YPdYSiLIut3iv7XLNI84uamRNpHuroMpj+HnO8iZQ152VMzDsuNJoT+ueTonJskgGqbanJCAT2OxNNMCFAi+2G5rjzqIp0LeoKX5EQTAuny0x7I5poQAu1CobCt6uuc6Laq3oGQ0piXi+ByqyuvJHeL3JT8tMk5BbF2udKpa0p15cuB4NyGnMwaUgyJ7czJT4vmNub9yo0dOSnbqlJyh8TeQ09KbkFsmbSnkBwLOhd8jFYvVFc+kZMioazhbRS8Bdmck+JcTU7ngl1kvj+4Ul55IGyruiZnSAwTqysHkndzTmPeidxokI6epFjFn2q8JMdtT5Ef5qqOK1E4IhAKYkdDV2WRfyv+GJ3dmLc4O7Pmp2wqMDg7Py0bZYOzC2K35wQ3Ohcsp4TFgPdUpLL8iA290dUslyKHeyfMCa4pZQ2PB0J+2kvUp5VSfEjS1Nyyhm0U+5s8+yvka/6ipMJs51rmdi54FtoS383IodFb0ujjc2jrzTRUKFSpMb9EW5Xq+iUaVuTUNm2gvmvk7AZ+fMKPVZi3TeU8yY9dqJ0TXFMya/4ZCI15F5Hiq5yUqRnH4u+NKDyIrK/qRmta7ilutCbF/TlRCTVNtyZIdWU+ytK5dtGNEyh/U/aQWAE3l2Zj0K1Kir/mBlfKfzwQFLBlDXdnU/7ruOZhfN1Ilnd042OM2UPNNlNs5xwCuDmBEpGfo0TeE9nbqnZjYUE2xW1FqMsqiL2NdTUnk/d5hP4rVZyuLuLuj7jIkFghugkscmdxX/1FrkNQ/KgaVGpKQhgS+wgBpPYJhLKGoxFA26oyE0J15YUIoCGxaxNCdWV/mpsiGvMOTQhyaueCTkrzfUJozHsoYcZee9yXGEf1FFv1tPhnOG5wfVlDXXZZwzn1NN792YRzfXXldMLxjHosqkHYU0c9f8ILKfWoxXmRevzcJ6e68o+62qYcNH9YR8QNphZP1akoDKyjzOsk1FKJNuRto1HE0Z4I+WnTaOnN2dyZmRDy0zYlEMblBkJ+2t20W1UdPX4a5v5c15h3C74/sD6ltunqnLKG4+u3VZ2ds63qtHqM60MK1SNRMfd8cxepbSrVj5UYFnSlldWVHci/6WRadR1NsSFLtVVkBP1LkaBrdeVBiQ5XXTmICk4nkEblUNvl2Y15kyjuX3hqWk5KQezAnM4Fs7mRS6r7FIhXYu6D/CjHQfNzcO48omlBTlmD4n9RDna8gD+WYMNr3HhM0bWO5Ev5W4cTatTI6yArE6Qx7wPyKstWdaJl5NtNcXcGV5SNDITapnxu0ol4AJB0A1n25+abOdHMmgoq9FHC9tqmH0j+O5VyuSg7FMtaENmDKLt1bor6tgaLqRmzgitx8FAg5KctQ2GbXDy8GoNac+NdLGyuFF+QQuPytyj+Ri77mRQf4emfiYfnFdUSiD1VhmtCaMy7J5tAXRMIGP06+otwaR3O65CN2qdJG8/KrKmiNjX9qecdqBy8cm9r0r9cXEmyaYJ7A6G26RGuS7Lx2kqEdxgzX8EnLfa68XAquQ5tA/c6eKrc9xZm3w5ZzY1ytecKLLmNOj3O9ZYcLJmPsjh0NilvUhNUknw8NybivbG6cRU/YoHm6sqrpeNokhZSdld0nKOYaE1b9CdFa/667L2xgVDqTcrHs/HrX1UK0ZeolJvMIzOzZh466AIS1HJ0E0c1vRAiCUrdxEPhaI0eA1HqBQ2QFDeQ+u9hpLsAPY1y7+XceJKYHo2/q1R+nBv30B2mBFcqdUcgMFJi8n0aT++jMg9QxAMonZdNB10I6X8y1Z2PULNiW9W9OGRELU69A6GptqxhUnBF2VWB0LngdHQ0zyLFIShZlVXT1JrrFSq/ibovxcIm/loqahO1cS8yUFEmlMiRoNoSOZogeAGSQFzZ3GH4ozv3UDivDgSZPTXjcD37YgRFb55uuh6z98aJQYrMmpMTWZwbQIpdwRXTO6J/AAHfiyqQQk93ZUlc0ZEQegcpglKURcVKh65uR/DYX45C7JSA2zQI9iW9F2qbtucwSp8YCHhjAOgHBTp/vyuAh1JGM8q4BdUtNfu5gxvtKOOx4EqLvh0I1ZXbcQwzgcyaKOPnHhqxNbZ+oFDfL7e26VkaYL/cmqYpiRuaXiiFc8w3lCU/7Vo8sZ0AqsuiW76DHf1XEqLBFffMCgTnbkXPKydT7DBMXs2j7TyyZEvHAIRpRPaJ2PGoBvSjTcABCQ9wpaWqKzNglapfBuxicp7CjcPV687Hrp2ouQG3P69OPo2a38qNxcEVU1YHwtSM9WSpVYDqkbybsW4nJh0lL/4EuZT8ulKKhPy0h/mxk5urdGMrPfZD/tbTg7fKDg0DmpIsDq74eVogVFdeT9avcnjmnIelmmEOAKxWlgyKe4QUibq4n4PW7oNLnZ5i+wcCzu6Ym1nTikhrj4/3y02paWrF3KIzN6Jcu6sF96CkBy2oevTKZSR9D42H02irgyvGzA+EbVWTSHGw2vgCshxAFPTDF80Vz524sR3LOtFONRrzO9FQt3OjH1kGq8oXkKI9eiZRhw+zA6WdC+5iWFHV79JD8L1AkB2ZNQynMoxwYChQeGzJDkyvaUpFcXuK7qlI6sgz41Ru7E8lR2ha2CcQIEdibib5D6ViURnUjQo9wsjTgbC8SM2m2ebyrLKGPeQnpPLTPqUyPRjp1cA9VtKf7gyEzgWXEeL7qek7kHQhsfA2sXqElMYwdwJmx4iHoNoxRo/dtOPbhNq+6tcdyNuLki7DlmPUSe+kdlnYsjq4BsVKkB3bqk6SL1ticj+ydKAKfXSjG7QnPlBdDlSbHgmVDxKt/T9Z5wSDVkHsEMoIBdY5qoYECsnCUIfO4VQ6VZZrHtGOkhcGV26sDoQhsQ/I0kJRsIOkEWz6CQ/s0HCvhnqPCFBosc6RgAGa/n2UsEkCU1I9rj9C29tk1BP4cz3NnuPHLm7eG1xp7YmBMCQ2kj9MLIidRd7NRP0J3GiQzT1JsYo/1Zh1zhf/dcxOVNYLmisw4B0eCHSiE6iCZhFD0EKdGvNuwxyNb3ODK80zPxA0ccqs4QaPL7S1owGfwtZ2mlg/RXvvVIgvJakGgSX8facq6QH1A/nmBFcMnhgICtFgbZKfdhZ5P6daJ1B+o1Lo+fISP3qSaul/aU33I5XcVlVNMqokIXgw45CsUAiRhMQTmoyO1m7iyXCQmq6JjncUvUnzgWNz8e0hCP1ptjyuORoERiKcSm+qCK64ak4gVFdWofYU3XgMMweQZRl1yNWEeSE2E7BlDfO5wzPUzcXNGYrg2eTNIDg07ebGtqqSQMisuYy6H6ngGohneuLmgfjwwL1zCG8zVzYtGN8SnuSBwKQtECgPRav1yGhiBL6OpEvoir9oOBnMyBHMvLkxRRGnG8+gdQmjwPuascoJP8pmWpJHl5SqSVWKrlSxPhCYMnElxZDYHor7EQekECLokIOlVNegFAkqVim8HXuw4TpK2kBWLJXShOmJuiRqpUcKrfBMICSmpXWaUWrE/4mafYGv+yg+diBcxt8OMlNeQlhEEUpRr5DegEvfp5qvc3OLus0zkF3omRNcqffYQNAjJUjBas9n6QZAh6aJUpq4UooEFZtIgR3KIsOkI7BUSmW6StHV3aAhKfHAJYiX0wZMOfQ4CIVqJsMI+xJSXghQbdNhJpBb2fc1obpykRIruxcgQomyXKbK7bm3lP/oPIEQIgluMUs1bQ2wvK6nWtcFQn5aXk5+GgvSzgWdafnsegZ1BpND6/FEDQpa12uOynKnjlnUvrgkVkfLd8Ulc+o0C2eOWUf3z0VoqpuaMQRjo/WEwk0o269exelKcSsCQRs+Q2Kfaw27JYdJbp2uevTwHN9C3nXZ9IfNgYCSTSTRjHU9SQiaqRlrcpjjUL+VSqGu8Bjh1yYrs2ZmcEVrQSA4dwRZeujZuyW7IHYHz65F2cyLc1A6mKY8FSO08zMtcUOrKPo0KZjFYR6CZgqHoYuuoHBQ30BPcGVMeSwQMmtWUgpzxdqmNdxoxgPjPRQzm5ya8Qk+/4HA0yAeTDy/MgEL1Swteeh5gQXJSsqRsBQvOsaP5vVo+Q4rjq2XA7ZVnVFPgK/AzoJ6uTW4Mr+bDXpUD/mlgaBnFx1QYbqeNM1zGvM2Ydsx6i5bc+SfxJWaS5AH5WdtXqFjPVarU2kJylRM47L6j0rRlSzXB4Imo8qOiRk5THLQ041SXtQNdaRH+GudKEWCNip4tpOyn+Z3GfxoiZXqUJuyiZ4bAtNViq7uF8Y/PbSkmIXkqyRbq3yrUfQBP2op+zPdWM6PbShawpXHUk2THmW7KXtKcKX1CwOBcR4Lt+tGd8r+hOrqumbvjZX89ePm0xrVzibLw/y4CWOqtQ5cQs3uzcH5a0k2E/op3rlRNfuBoi7k7weSdk3cYCHAmPslNyo1VddQ42iUegKlRxbaF5Jc0/1JwZUU/QKBJTy97q0sSrmd5OOZeV1EFDZXwLQgRRfVrgPCBshxWMeK1rkL0B6nuInBlfarCgTnllPlp7LpDq/gqq0oegXD0nKCG6oq03lSnqlKLUO4jJtyXZG2wS6F3qji2mNzOXffQ+F9anvtVD2OwulY+GbihiY0PMVJsUs952f6VAoPkaMojn4xJHYJvtOUYkpwpf5PB0Jj3lsUSd/KT/sChT9SoURzBxM8fAgdrrp/gHb6SH5aJNFZJOBRbcV9gOFe0NyZfrQ+ELDrTdC52PYMhS3LopD5KG+qLYjdElxJMSgQyhp64dLxWbTcL7i/K39vMTo8onHjAfzaDIWaWp2dQ8ESsEDDaSgweKjbaHLWiXrkU+5nyjyS+t+Dt2YEVyL8oUDQBhVjjUxchQEfcuMtDGivCZSq05dUiaoHK1oNawoO3HZpILDVj0UsGzVGaR2pQStYWGIIPxJzgGDpKUFrUaWQUm58TgX+J8OaNneCYa26cg03mtGe61HMsKaRQkGuIToYzTRohwIWyivayfYC7aMG+oqqeUH9OxjhJQT6GISDER7rFdJr0LeapUotgcdShWTSu3KvKxIjXvA00IgnQSNesIDViMf0lOpuQv3hCtCtlHwxVd7KjcrEDZqXymzCy6vVdOtJkRjxgsXn/3PECxawGvG0otWIFyxxNcBpzatrUEpCuJTk3SjtKA1UGaTYTXucB2AhrRFPpqsUXd0LqdorfoAfrMYya0YHghb40Cys/I3GPZqAXMnfco0rY3mqtaLI8YRQnsweS4oyblShdLpmPq/j1SosbMbNper5vfBoHaYPok1f1Lg6CGMY9dno5e6bmPoDAfK5hsCnMfUn7NdOLFuSusEuLLO9b0jRMxftnVCWSWDk4/ETNKkdT1FZpHgguHKjPhC2VX2QSJGf9n2QZVvVnxSLjqkZLQi9AxkKWvBHKbqRKPYPUmCHNjxlmBpJlhJS6wPbIU0oq6OEnxK1U5Squo15rQhf6p+f1p5nqBzSHqPwkG7IZc6lMp/Fh3ozI6cOiWkxjJf1CJTbVQddEy1Ci6pDPxcIBbE3sOYxDawbybwW52/hRjO5dydl9UD9d1wHJm4wWSKVUkxRqCnMtMP3Gn/VsvkZqPZAHwiuWFQeCHoB51Ocwo/7UNonoaOm6QCEGNVMS5SiGyq2uvIoAHZUV+agYy3NNIwbWKqHg0xXKbrurdW7MnFZIDTmvch1o+L0HYQvKFxr2B8UVptR72iWzdxspSFiM8k70rE3cO2iNWID5RyCj18kZS+NKk9hwJHcUK2O1C5MRSBUV5YmUjTmnR9k0XZGoIPdAoSONM8xiVJ0Q8VWV56asKNzwQWBYduqxvCHpTwlEd4leaIubiFLxerKYmK+s0K7mAAemsMyWFYFg9HHJmgviDHozYSgGQAZNMJ3J6BGKJffY0kIXqEETUvWYhKDmYTGvExlW4sZgxNCUAYDsgmkTSTm6tyCYFSfI7wSdw8NhKkZR1EJnv24mdFMXVpj9p8aHwdT7gDGq6SVXWbNckpeTIr31N7/v9eTCjMJCRsY1TNrvqTCUVroXyj+Xs6M8GMTSlPonvQzuVgCSd/HJe9Tv1dIukW96D9WWI15NweCnvQa3wniftzYQA86iFQMsRoNG/MexbrWKPXDI+/Y+DuIv8OkQxOab6jYxVjIQK6NJrokNxIrLCx8OBDUD4Ot8syal6nUMpyyjqybshmi9NxsRgkbSdlDU4eUXAnkjSh+GRZ3Qe9Uj9iKktZEyDqy9Msir7TqGZNoGHcLwYRncCxtp10GrnrpfrewYujlhID1+BnEXCkhaMMns6abtiQeTQh79Wgnoys236G9olRi3Qt6JpC6K8OvF4TcAkzIT2tHOTW1WPwlNa1hulJHq1+Uhcfu4Skf5cc91KtYD5R7cM7jRE4dXf9dVVJZfuGmdPyi4e6IQGjMOxk3kELjv7LoGuiQwHYRg1we1w+ycHIW7TEgSytg6nsypRyMUFObUFpT6+YTzpoYUT0F+QOUzcRIOyxJwtdJe2+oQWWEYCxEA7tQzk2kwpoQJl6D0QdqAqExb20ihabbyjI1Y3ugg3K+CQTIHgRHzKbifZJ2LtgPx2pLKz24Eq7HBQI7h3TkiLQPRNEOnD0Qz/MeUALGO2w93gQhAud4uoVGwqOxl9CuruyJ6l147cDgSnmtA6ExL8pYtVk3dqH6HcJqF33mGT2xdpEfrXoTzjUhNOa9oL71Opr0dFxBLehbWnUovdpfV1LEA0FdOtgWZA1IU2koPp7galR5PdHxEil6Ap5QeT0TxagxuDp3N4GklmWAyabwM3HqeLX1qWhYQtMej+qGlVT2SPrNrDrNahhT6kjRHtXd67UGIVU9eSsIr+PracNZBM1B9byUood+V4edS5mWLCDvKgVAHY36TrYCR6sVHlfZeHkzBAP2WhJMb2UjA1p9YCwZ9waMF4J5pcY1CTTl8Zj+A7bkYTFz0dqmC3P02NcELZit6q2hGpulfnDFoW8Egga8YMabmHvswV2acjAnVr/VJFnXYNYsgYlokILRW+PKn7jhWgaLL7ky89ZzgyhmcrY4uNIGUwOhc8FYjGPKqhmn5rBaDqBLs4fjEaZRxd4U/6hWKj1NCD0gwUU0ZgXDpASpIgy5cbhG1jMJlp2ouYa2e162TcbyW+mw84MrpmjirgMZ68jCPFPLZE08tQPrZ6I/QC7lh66UIkGTV62jg9lsbdNnBMCH/NDouFVRuBJBYTk/uOLnyYGgswFBv2jMOwNLN/DjeMDqhOmaZuuqUlxw4skfNiBSSE2IslWYELiNhSB+kB4Bb6FgczZ3ZiYEBvkE2qvH/UpgU0n5Xu9om0zQbAGzmzCoHZk2Up9n5Yt11LIXIfssSVnz6QgBFrIWvym44uABgcDeG4YNyKJTvMgg2pqhdgrxPCcbpUcQCdvRcQRdICOHgT+K9gxVOUre9vzowN+3Kk7Nt4r8ORS7UFPGSzCmkhH5puBKcbMCQScAgqmaFtc8pWm+5ViYqv6u6h1GqlpSXKDeoBts5d1P5dm1o4Rk/2l8D4SyhjKsiSrDjQlBO0cB0kM6EPSKTE9M+mSHhJBZ0zdwLWnOSAh6glGCilB/QJia0Uj93teCb21C0MoMoiEnYY9bhHEMEBRzdg53u2PBfSomIyEw3oDQrkd0ICTmqHdKVzwh7M2uWiYGMhT9x35mIEASiCtPCdbUiVs8Jkk0Rc/YKdxZIlf4KuxN49z/AQ==(/figma)--&gt;&quot;&gt;&lt;/span&gt;&lt;span style=&quot;&quot;&gt;The Wyatt Wiebe Centre for Healing is situated on 84 acres of land in rural Alberta. We are the home to a large riding arena, four beautiful horses, a pool lovingly named Joy, a large art studio, and vast green spaces. We have multiple session rooms fit for energy healing, card reading, coaching, meditation, yoga classes, and so much more. We have hosted healing sessions, creative workshops, and other events, and we plan on hosting many more in the future. We hope to be a space to gather and connect to create a sense of community.&amp;nbsp;&lt;/span&gt;" style="text;html=1;strokeColor=none;fillColor=none;align=center;verticalAlign=middle;whiteSpace=wrap;rounded=0;" vertex="1" parent="2">
                    <mxGeometry x="420" y="320" width="550" height="90" as="geometry"/>
                </mxCell>
                <mxCell id="17" value="&lt;h1&gt;Our Mission&lt;/h1&gt;&lt;p&gt;&lt;span style=&quot;&quot;&gt;Our mission is to offer this land in service to our community with love and gratitude to honour those before us and those who will come after. We wish to bring a sense of community, connection, and healing.&amp;nbsp;&lt;/span&gt;&lt;br&gt;&lt;/p&gt;" style="text;html=1;strokeColor=none;fillColor=none;spacing=5;spacingTop=-20;whiteSpace=wrap;overflow=hidden;rounded=0;" vertex="1" parent="2">
                    <mxGeometry x="30" y="550" width="480" height="130" as="geometry"/>
                </mxCell>
                <mxCell id="19" value="&lt;h1&gt;Our Why&lt;/h1&gt;&lt;p&gt;&lt;span data-metadata=&quot;&lt;!--(figmeta)eyJmaWxlS2V5IjoiU0pMMUhMb2I1UFZtTjhCdUQ3anhwbyIsInBhc3RlSUQiOjE2MzU2MjAyNTIsImRhdGFUeXBlIjoic2NlbmUifQo=(/figmeta)--&gt;&quot;&gt;&lt;/span&gt;&lt;span data-buffer=&quot;&lt;!--(figma)ZmlnLWtpd2lQAAAARVgAALW9CZxsSVXgHffmUlWv3tL7xr4jIvbG5p7Lrap8L7fOm1Wvu12qszKzXiUvKzPNm/X6PcZxEBERERERERERW0RERERERERERGwREREREREZhmEYh2EchmGY739OxL15s141+v2+39e/fnUjTpw4ceLEiRMnTsS9+aZMrR9FnXP99qVJ35jrTzcq9e2wXWi1Df/VG+Vgu7RRqK8HIVlvMwxaqbyv2EG9TDoTVtbrhSqpbNi+qxqQyGliOwyEVl5xlfJ2eKbS3G4F1UZBai7VG+3K2l3b4UZjs1re3myutwplqb/sktvlRl3yK3G+Fay1gnAD0LGwFNSDbcDNje07NoPWXQBX08BW0KwK8Hi5srbG80SpWgnq7e1ii9ZLhVB4O5ni7XRjs0U/AuHsVNhuBYWaLSF/hcvbHl9ZqbeDVqHUrmzRyWoFxqxoKLuqFZQa9XpQorMpZmIOrz66OOb1GuWHVrYr9VIrqMFvoUqpqwPGtToy8NXeDOetXle4OIgYljtJGyHkFbpdhhcQfJe3G3UlbzRztlVpSyWvPu71m3udqA8arRXa2neQao0tTXpnB6PeYHSudTAUnHqjfnfQalBgGmUtFwpWf26lMABkyo3SpvBN0isV6luFkJS/3mpsNklk1lqFmuBli41GNSjUtxtNRNmuNOoAc1t0stEilaeH8lyqVpTsclCtVpqhJFcQR5t+q6YdawXrm9VCa7vZqN61rkRWaapeDsoitgTveDu4U1g6wXCVBHAyvKtWbIjWnqrUaayuUMa5Ujojoroy3Cg0g+2zlfbGtqt7lRsFZfDqkoxDsdoonSF3zdlKeV21/Vpo1aSn19WCcqVA4vqNyvpGlX9SfEMIAdvZG11yG2G3qgVp9KazhXCjst2mZXIP2iq0KoWi8v/gtks8RBPbJeRB7qExiptrD6N7OoMeXgjDSsiAbkO5sSllj7hca4OqqhiFj0wICTctCgE+qtYob2qrj7b46xSQe4zNtRpnyTyWCdls1EOlqkw8TkVTatQAW+qPFwluNwttmblfp8UpoT9BAdVKsVXQOfL1ml+raMtP1AydCETq31Bsber0f1KtUC+s0z0mZqW+DuQb261CPVxrtGpkbi7Vwu1WpZSM3S3hXmfSPzuY7bX7F2dWZR8a3rFZaAWUGqTptMtj0GoNneY+pFV/sExkM0m23DgrA5g9StFyzUKrUK1i4pjZNXiw455fBFeDNYEuBfX17XKBIS1o48uSx1RsSmZFMk4KxzTdqJZVCqt0tRnc3dDBON5sBeVgjWlS3m62GqUglAl3Aj0KqlJ+Mp6Q2yGCUmqnElBts9quNBV4BRLdxNhU6k1Vlys3gjsLdkZdVdoItlqavLpJNQe+pkG3bVK0Xji7rlndlOavL7TQjribN9hcLIsbw81aDV62T2/W0UYlcJNOqgeFzSBg0IqbRVQRwINVZ7HKjHOjxYADe0hx2B/1algeYQc9325vMBLrohasW62arkVeudA6Ewhp33VSVCsj5gRrUcTUk82WGtVGksvpJNU6+RB7qCk1QNQoN5jg5JdtlTi7ItMF7SR5LGystVFjaJBb3Si0mHwup2tQ0Aqswp8I7iwhJ9vzkxs62qdCLHpiCK/QVkhcWd1EVI2w0pYmrmp2BiOnvSthg1kI0KBR5QrDQmvCKhAvAclT5YEFJikgNFUsJrBMAgPJKX22UrNizrEKnK6QyG8x2cXoLzGBZTRILlf28RzCbmfYtwPB0t8K2iUdg7WKdNlDdbXhtlXhTLC72+865vMVLGmLhb/AXKLQlFuN5jzrMY0DWTJYCIvVTeHVLxZKZxZBGVZNFi1SWYx5LWir9cjJBC/popZvoHIVtAew2Wyy0PD0qo2zmoCxtuUsRGWq26VCU1Q3O88x41olXQiVaLnfHU87s8F4RJ14uYMfFADBk/YQQuVMMFdHf7FaOLsk62gmGblyA4FKyjtb2BLm/Wq/IwtuezrYJxc3AjPbG4HTJa9+sL/Tn26OBrMIYq2CSMw0K3cG1ZCERzfxLATTL41H0Ww615kldAm4kXKVgVcriMvgw7gbvUxYwgcikV2DYnnb1si5jGLnw9l0fL5fGA7OjaiQEDPYdFSFhMeK45K+RS51Juh43B/ko8rmJRbYtyZCBCmdyNhscMdmpYpbgukEmHVaKkbRumk55I06Y5ITUD692i7N19PtW8gvp/K3kl9J5W8jfyyVv538air/ZPLHU/mnkD9RqrRK6dZP2t6eHg9EMjX8rBZQUwy2AumBF3fcL47Hw35n1Jj0rWrQu826nfuIkWriHJD2ws0i1l7T/p1qEjKiVCr8jfF08MzxaNYZUt3Z2tTYovwqBf/0Jm7NWkU5nNfe6k9nA2awwBpNilJViyhmo0bKr40Pon7pYBqNp8iDhaaANaXAlFqNkAlbaZH2grsCmcGoHjkfr1SbahboCta1xJwgn2Xt4JHjUapUSeVrYqOlyhJDzA6D1HIyfppdqWLgxfgc28J4jKe1wXQqnCTzT4efp6cJjBtGl8VSPQ2/3In2rH3ySyzwgMxc0z21YXZiZJvqQ5jTzUCeXrglD79Zlo1DJrg4GU9nhydTBneQ1YJ11c0YEwNwBrV9LwYkc9evdi6ND2br00HPEsna+ZUS/ZxB3063zLxOszOb9acjisCqNHWqYP7VmHg6sAezcasfDZ4J6UREyo5KJuHDS1JqotrTg1HX6aFfroTiCApNw06EhZqEp7Yr7Lu+M4atsOEsa5udEQ+vhJpZpVlrMXMZZTFpmXaAI+hcu2xMBmHO+okkE4MYL0gkvXghwoJ0uuftMGbjPm1g2u9GusqBxxqM365p1jklldFaquhUu0zKVrR+Ea0Tm0PaViiND2Bs6urlH6ge4neDlClstkU/sylSOSV1+iCaDXYvkX1AKs1CCSd8K7C7s4zNF4P2Wet7IC3ohHY01QIDZHsWVu4OttsNzI4KagGA8jHYlVqTfQ45KQHHyrA5jgYyyCwwgBzjplBE/Jt2R6hoZ6dirFl82CkWmoCNe9ritIjcMIIdUzvcBw+UEVOXZu1gH4uHENuAM4FrJzta8t5mSwewyELPM1OqNtQpzrKr2I63J+Rzm01c5mBb91fbrc16u6I7yjyzrVwRB0oVYSldbZudjOAsN4qnMaxMBrRLUIGtVOjDtJNi8Qo2ZdgLZcMU1mBzW9pgUSPv1RoEQ3CTSfs2bQsy1NoQd5B01hbgzQhazuZ0F5EHC49dnXTiHyqK5TKuLc8Vys4Ed8XVjpHdatjt6ipp2+ENHfTjSZ4pSv6EbSLWsJM2ywZ7S2qfak87Izv2toc3sVSzZWlvs7awaDtJGKY+uqBVvDXiLTx9u9dbazWSXUsmBYrXmGwKZleTXAqSLCf5Jts3C3PEluaQmNbyHGRJrcwBCaVjEqOwMEdpdQ6JKR2fgywlxBQDEkonLaMMIkgxsVMLwJjeFQtQS/LKBVhC9SptyUEd0avTsJjmNWmgJXltGpRQvA57WCmhyTo+1+OmErSyiiyAG9iyNHBc55Abg07EVLcjfpK4UmmzWClRYIR0nPHYXqSyvtgwuzughszFpCgreAuQnK27AMvbZSDJL4VNt0NfXkc9mYsJYMWhJoBjNqUThNlrZ8fqIrB9VuzM8UPADbZrgE+E3el4OCwPptbkwLSbY19jxUDCasltXezVTKxBv4e1m/UpD+5ssnha41uCgrhjmvPWN1lrPD8i0kZjpJeMNxzjU2nSL42H+CpedmpWjHeOP/4OfzId/mStO0Pli+S8S/zxW4DAngPu5U9mjz9ZpRTOxhMqdCVtdow3ceYcBNuUIGx1psbPdCUrOJoQ2Adzxk9VyNQ6s+ngovHy+zffTN7bv/kWHv7+zbfyyOzfIsDs/i0CzO3fIsB8szPF1ldGvT71/HMHg565J8XFqvHtzoTCC53hQZ863oHuUh5q/DXEWu/s942X2e3sD4aXwPci8QZICGezqDsdTGbkMoILz4MOVQ72+9NBd21w7mDKWODTuP29QU9RABIeYRGNN5PWZharhpNOl1mwUJc4CS6JWD3NewRg3Jb4CAJrog3SwTQFLC+RD03jsaH/qhDp2qXOJEL751WYsLoh9nhsxxm/GbANFdYzALaTnOwGiFFLMgeIzq6TzKfoN2O5p9lit8BfNg34ZySUn1CFzOAkWBUmgc5NL+zvQ2rQPdsfnNubLSARHJUuJSgVthmD7gLKnE4J7ywc0eO9Me3ptMkyPm0bezBhnd30BobMdsNryMrqx9BtAo52Z1Mdx44efbLTFqnw1xMT43b/Lpbts3fS1Wyt35mpcvyT12SjTJEp3dq0bFkJ+qVmKPCMSJKnCpdnzkWz80TGxNFfarTKdZ7LhbWWlK+U62p5j9U3a8LfKvsSiegexzmQfpwo2+dJ2bDwPEUgQJ5XFAq6R7qyZJ9XsUmU59WhzV/T2tIoyrVihXheF57VoOb1pfCsPG9AsQR+Y6mkoeSbQutrPmiDkC7PBzuv7iGNVl34e6gMBM+HsZjLmD283NZQwCPWqgXpxyNr6y2R+KNC5gnPR7PpkvYfs8bWgOdjN+zzcRu23ce3bf7r7rDPJzTt8+tlI8nzidW1ouS/odHU55NabX1+Y9PWv7l5pi5yuqWKreR5K0/h87ZWuyr523lK/smFYmuL51MKxS3JP5Wn8P20LUvn6VswxPObitWzMj7fzFPwvoWn4H1r4cyG9OPbSqd1g/ztpTWdxN9Ramq+UNpsCV4Rv0byJSy5PMtrln6wRnCI5xrPW3mu87yN5wbNSnsVnkL/9IbtD62tCz/VjcZp0Rv8enXG6hW8Jp6N082nPo1n83TzaULnjtPNp9/Ms3W6efPtPMPq6ZrUa3NqIPibLOEyLlviyfE8y1P4uLN2pibwu+pV9UHvrm+eafP8TlY74eu7eIY8v3sLgfP8nmbYFvg2T4Hf0zrTknyn1dyQ505rsyjj3g3ZFvDstS0f/XZdd267DJOM37ktYpA897Zs+WDL9vsZW2dUX85vtdotnkOet/LcD0NWDWNGPCU/5nkbzwnP23l+L88n85zyfArPiOdTec54ipwOeD6d54UwZL0x5l6eQu8iT6F3iafQeyZPoffveAq97+Mp9P49T6H3/TyF3n/gKfSe5YXhrULwB7zSlnL4bEkIyR+UhNB8jiSE6A9JQqg+VxJC9oclIXSfJwkh/COSEMrPJ6Gs/qgkhPILJCGUf0wSQvmFkhDKPy4JofwiSQjln5CEUH6xJITyT0pCKL+EhPL8U5IQyi+VhFD+aUkI5ZdJQij/jCSE8sslIZR/VhJC+RWSEMo/Jwmh/EoStwnln5eEUH6VJITyL0hCKL9aEkL5FyUhlO+ThFD+JUkI5ddIQij/siSE8mtJ3C6Uf0USQvl1khDKvyoJofx6SQjlX5OEUH6DJITyr0tCKL9REkL5NyQhlN9E4slC+TclIZTfLAmh/FuSEMpvkYRQ/m1JCOW3SkIo/44khPLbJCGUf1cSQvntJJ4ilH9PEkL5HZIQyr8vCaH8TkkI5T+QhFB+lySE8h9KQii/WxJC+Y8kIZTfQ+KpQvmPJSGU3ysJofwnkhDK75OEUP5TSQjl+yUhlP9MEkL5/ZIQyn8uCaH8ARJPE8p/IQmh/EFJCOW/lIRQ/pAkhPJfSUIof1gSQvmvJSGUPyIJofw3khDKHyWhJupvJSGUPyYJofx3khDKH5eEUP57SQjlT0hCKP+DJITyJyUhlP9REkL5U97hqBlu4Yzl2jzFeLF76IsDXetMJuKgef7udLxv7jHebMxfvzgc48B6O5dm/chkPBuuM36GA+s9yY/Em8R37HVmHcVdMpmtQa8/Nr4f40S3bU6HgtTsRLN+OD6YdiHhR1M8SpwicUGn3bp4HDQIiEBASTzmQu8ZBxEcL8+EcfzYaK/TG98bkfT3cJWIfezh1+Ip9/qzzmBIKtunv5E4InjMF4iN9InVkc7P+vsa5bVFSxcGO2zGYWOFja7IxTbrLmMY/9j/v0128QinCIP0ys5UaI5omdwxZcb4D9dBusLYrQN7CH8sHvRMdiSZC4NosIPgPJPl4U7hTppcxM4jMnteHtqjaHc83TdDszTQEXuRZ5Y11d5jezAS1gGtdEYA2WVVpEggV1gILi0eN0O7ZK4knz5lusocs5C98cGwVxL+ap0RAPi5bjrG76QybK5GUoXE8V2VrWK6IX2pZ05MpKdrWoRNNSf7++NnDMSFbRK3R8ZL3qkLqkgv9sxVxNjPDUZs6aTls4PebA/Orl6Abljveclc05WWcNBlu3XtQMpc5mEqIck8w7t+JoLY6ER7RY6pMDSr5oYEhNbeGKmeilpWZIt1UyQDwAxZMQ+a2AhwG+1tyzi9wjMPvuAC+QVUZLTPFg2Tbx6yB4v2cGAB/tCBkHx48xAdzpGIixFDd/ug1HaZqLEeBKurkWycF6BMLyU3b4ndNCfCbcrwulxQyrOhKt2U1NDhMhPX+Lnz/UuGPeMu0OpgFAsTrRdIeXCuz6hl2DWSs1uZ7zdZybg9S47DKXKIdmDH3890Lg6iduccA+JJsi7ahA2IrY4egdjGr+7udWR7159GYHhJThuqlEUV/EjSDYRMAL7f7qD35rnwM4TXyLw+6x0fanx+CxrS/JJZ3u0MhztESoWvyEy9Y/uDOFKa9O5KW0uDuz1mE5rgKHpe7tzw0mQvYqX08r3k9DBinfSWdobskb73YCxG8U2ed8UudBNhvsrzVvYYzimkzhfHF8F5reetzpLwPnuzqdvB58wJB+/3Eq5ODsfnRJUUpT0uxfJo7O5G/RmW2qx4p2SAoWXpv87zruqxTb7Q71WV/zdkvavLFjCXs5OR66230Ft/3ltM20JvMTILvc0d7m3+8t4uuV5BY6G3yw6e6u3Kv6G3xw73drVnO1dV/unt8Y0UD8bP7hAf70Vml+CHXXtcpCSzF+OxmcoRIk4IMwnmlaI504SQsLFxOjPAfgwhhfHdt3XPMHWWTK7oxGn8ZdYDGxUA7V41VkwkKbuLhOps0vus5ApRF1Lklpi542m/mjp/ZrXYHUyjWSIXaQuG0vn8ugye8Ve64/39Dl0o2pV4HhbqGTuD6DR9kAFULaD9y4l3ehfcOpW/3CYvKagiRjXsz8zz82Y5ZfNXyonqsMBPCaUhTQ9pxk2LP+F0CRNxwdnMIhYZoSu41pkyhG4c0kzbWJ3qnNSUTL0/u3cMuustottnbJ5J0JA/SZ8vtxoyJTCWe6GMMoxit6xRwv5N7+1MGTbrFQmS8T3Rncjc43nhpf2d8dDxEGkG5u5BXzQdtxRJKz5RN8jth3Swv4Z0WccZ/Zgsiq0Ol++jTFCYAMN3JrKDuNf7I/EcEKNra5ym7B1E/TXUZl08Ojp7aaQLk4cXNtjdbYyGl1qM0oXOULEzZTtVKvv7BzMRgS7slq6/SJeMs55+IYr6s0oPLuk/yjkdgPNuz/NcQQDoEgQ6kpUZgOHWdKWHx+3qt/oMoX/elsbEmYtaCKK/JJKV3ncEIujvoW6EPtG58cGk0sNZNxkdRtL3M+mspMm838PdkvWGLpH9gGfycTZU6h/yCHunSfmxEVhsLnTUH6g4bvAByrdcoyjCv4LRQAQi7ErvX8MM6UD5gZDwwg5orvdA5Rw9TzDdjHkImQdEa+/1978G0zLrqwNc1umlSu9rIeHCfQ1mBKM03oehPlHrB0RT89rqjMSLlPGfG1+Uzxrf4GJ3eCC9AgjZ4bCzo6bmQl+mc2NCV6iKG42SkaZmFzOCTdPMUTWsz+VzCoc7hU9kykE1aAckCKUewg6ZAZNJv9eYtA5GcoNR/BLfWs9Kj42W8aYHo2p/dI5pTHMTG6bvRRR5mWl/h9Wh1xjBpgVl//UWquMua9JMmPy0kFfpfBJhacq638V+hR6i48io1Ue/IgRoMl0MPM0XZddWGRUPdncx7VTNOkZaQkEAucvY0OZZwwa2Uwv9sFtHmMlMYwJZTX0tZnKOGSZ+3jWfksOSA7WEjBBcXuCoOcTECVvIem+A+z691JhEIh2p/xns0SJUZPZZGHVQkenoXMky4MSARezuSWtRe1xA4KOe+RzjMZ810pzaBJ2NMO4v4Tqedeu4tzvoD2n7uRnxZUFguq7RgC457DEyMbCKbXbLPOBsApbt4TR0mwlKEiPW7Ew75zj130sV5kfYaiS3tDbsTJzC5pqcMKKkJqgV9cCDU+JS0LQX/HwOA9brcq2UTEYuHW8WBZ4NcVr6Oueb0zHbRH95JpktRokJQxPEAywfoVoNrKc/iyUhwr4fPcajB8QI6Z7vAA/7Utgfshb3e4x0dhAVx9Oe2+odgZCLDnbkgGkHr1Qad7M/H3XJdWJWlnCDIrcC9ntrhCPK/QjHCALL814srkxfQhMWygIKZH2aSZ7ufBRd1rTt/RfpXYjTI6unmHc46aPoeD3+yi4G7YxdsyItxIDcw2Bb9nR7yPGYmLFmJ1nHI2JaeMoy4dCw3NBaTlns2+PQ9Ro0ARCt9PLd2CbalpYORrtD2b7JtZA0yeVBtBkXqQxXLNuluH6tQ0wldou6MdRS9SYHO8NBtAcxaVjYbY/b/c5+dc6eNOIfbiRTIV4kTmC8ZIUz6fbcDxFSjd3wXjiV2R4psrgvGN0FFhY9jKPpbt36b6I8lDPdMDUicRVLujg8mCY2fX48xinjOoF6uRlPzmv1J5xUOSwO9OwpuyH0bk/JvE3OSl1xcpvTtIJqQW7sk3QUGqLn4Kw1WmcLLZmFILEtDxXH3rItsO0F5U4g9nUQCzb+tTNp4BoRFhNFozu62cFlxbL2BgcSCsrOwzw5HkmYJx9Npv1OD4ylaG98L+pAgKrYZ5B74jqCvmxpbOFVY0LYFNCIyxyzlV1u9aJLHL/kEid0zWQKnpxqN9vC6HN8c6ojfXm+b644iOXzXN9cOVYpPM83V+3Mpf9s31zNsE1njbhT12i2pVzB97XtqYtP0aUB9nSq9fBcAneV2KSuEnuXYYvtkgov9I03jtvw5+JiGthOsNylO5GLO5FPd2Ip6cSytqQbpspoVyKYM8G503i9A2wRYJj3MSCzsRSU+xcGXRe4ycYnpXIopPcsvRLHdHpw6SuMII4cdZPHIZeKrXjbJNpqK5dKZ7c1EOwdaoTVTzLmJfQ4koWG/jKQ9LzSY6pZqWCUqGVpvtQ32QbTgx1/0+0B20KA5RVONBBk2o1mfCfGk3RS4ksuvhmTKXJi3Eju92RdNkHOOUCMn7dvMJBacgwUCcKcwwUXPw5TxU4Ibmgl6bVcMeNA2d72khs37taydxkB24ekJgd+lfJ2fEv/cvQCNoRFVQyI7+8kYKXySkQ5B5VkjshErHcI4aoMFcvk6oUtzpvVKzQNJrh9zcALz+ohty/PbaJsipBxt3/0El42IC4soXcoM5yyqoARv/QBgglb63pRgIPRJmS3m7dtb90OwLc1QzwFLDdL9fEI12VwkRH2BrLzVtZuN34Xh2Umm0A24qh9dOGcrAN1cRlYjclWysyZvnktuk+ucTAb4pTIEk45SxDDwa5eNozkl8BYGxPyDPX2NOvK+QjwMpvNwk40Hh7M+m5fziLUTffqPt8c+17WehueXqVCcdA92Bl0w87+ZIhmeua469LWumMJt3ttux4E7kZPoXq2cFdIwqtqjEru2Rr/xEw6+jT2CjJx/YU5PjrYDzGmDFRkcK+cHSAEH1loKNOEEMa5A1a1qcstKd+M8/JEFrvpyHyTWUlRclbwmKXmcquRLRUaDnR8TtVBTqzjD6BmGvaE1dgwYTDOUcJylWmysoFwL4aaYdW3+ZYNS8BCyIbNj/hbsmXJhJJsiwjkBotVebnkzsML263GGYH47t2qTLC2RvCYVJYD9oZuaHLuGm6+OD2I9hp4SkSipStUO3rhUkTbZOp6rQlL+tIJKa98adTZZ2hVScJERTO70/73HuBBiQoQ9Dp3ju7R+Wh/PMbvEsuZIRKiUjtc9Ryu3EIlvPODYWd6eiDoADJU6c+6ezwWanrjVJfehNAZDHVh1VnXmBXkJ84AQohNp4u0+bgNLplhCcWjUmmn/EA/EoD1YuLghXP+YtdREJgnMCnzjqYigbgqEfrejJumjkwVW4Qg5I4bazbGBnUEoHZD9J8BvjMob5/dCLCHG5Vqebuxtm2LK/X17bWWfXGT8cdW3uVKpKJfmHYTLlhtkVBhZOWJlywaF2f9wQjfOlmNM9alqhISpe7BdACHXm8QTYadS3UxJasIy2bVcsB/c3jAuYtrbaIZ9IxqxJwOtMJ529GmlrX6ww5R3z1bITtRoK2w37cHblRxE4Ek24wymwacfyZ6tnYwnA2k9f50TbZeW3YoGCBd5lEQtvrpfb9fGtNBibfVOnIaJ1eH3Oxx96NluePhuzUtY5cwUtl4Fcsl61te6mzPD2IALQX2tbPl1KXtlaTRYNSbOM3ru6T4ZbB2Dw55rBBYt33L3ft9k0kqk0DHh02pRQ9T6NYGUg0UiyujEZKScqJClXK5qvfPWY109ps5yJ75ENVwVRu7uwXI8YjgIHXPq8gSx9MrBlV9B2yxtdrA9oeuRQCl4Q8x68aWDJpFKkX3w+meoV+sLEwPmguqxcZZa/gxMgUnczymln3jOdWqNUWJT6FX/pgDpLzCaOTcHRYigvqzSxb7Rmcjhba1kd5ZtmFiyPzkjYtMrVLfjsFZySRFuVrhzqQId+bOedGSJZmULpcaLXmFTrYPmzILVxIrfEzsMmNhr0Suak735ou6dHyN1PZaoVbR+3QnNOtulp3UzNm48VNYgGDOyxXEqlDRbbnrj2kAciUjjwM1B1xlAc1CuWwBV1uAu4d/jc0pV84nubYhlfV+2nXpd4evV1bi3txwueiN781E+h9HH+alJXbw54jDNNVXRdB1CELAFEryimylWKnaxlC4DRwt9eN8ud5rm81cTqqkK7hZviuoWhU1jRYnpkLVa1ntaVbqcmErAz1kRCpbrG4KQq4dqNDz6y37XsTSEfQPiBzto+FdbehT9KeroJLmdzjI6ez05UjpCOaopmu9N7Ed/qSPXdPa5tNMhssqSOjCjyMLmC5vMOvvE9fyPX+Oi8mMm4SuilvqfQIkhbN9hpmupSjB2ntMdl671u/I5QQ5qxIzFIqXYrLWAJrE8HnOFPqxAUzxmqJAdGQg9L1dojJCjrQ/G7sUPoCFaiOfZwsyG+MC2iy7WF13rG2QJUHiexiNPO5eDF4bXMTo46dZmqGeV6jfRABgGRfDOq+rZsVFMGrjC323VxsPe2d01SFmyZK8liy3fgp3w8YFK4iZKoeO+FmyJV86FMFgC9YfitiVaT1zPM+YjGw12tudNzWkzC2acs53flMPH7P4I+f6eAPYTtYrn5MqrUuTQW9AqFs6kJ0NWA1nuMyVaPy0p9x8CxXlpGcKolCmU4Lc7xVka5vpso+PM1kpiI3lUjmQb4EwhubsRqUdFBvWzfP0FQkxUn452NqW1wMb+kmOTAiWwLOlhnwHglQOC8r2NXkTOo+Xc96SzxSqzQ25jyjvL4hFIuXp+9HuQwLufMJhxxM+xACxFsVvGenb4HHOD7H1KFqIvuGSzCsVN3GAeHpiipjKdnovYFvZ5SLNmGdnCBMhqM1JD+FsjgYX27FQEZP6fATZpTYizSTCzTJdL4QJiVyd4SlpjNj492ukT4ZKnvZCw5Mnex1i23nja8ICnzLBJyRULmcVZmQyqaxFeOpMRHKMWcHTgp42srqSk6cFPX0QNW3UTnSfafMGb5Htd/jDuT5r97/gm2elgU7JzRd972ecJ/b76n4W5MhFYrnv8sz/tf4tbsmSucUlLQf9QRSOd2fOBQulCDbe6A2i+nhkJetY+w1ga4PhMMb5OfLOR3eQXwDSwL6xndOYn0zfuOxLloM20jBv9M0vepotL3T292PPm/SvesjkCLf7nb55fbpo7sO/wze/plOI41cc4K2E1I9nDnnn7/THzyD2Ex4wzdEvdhuiA+pvUmb+hoOlC7XxeMQetzoYXorb/Ri+9B7HqxguJwXkeY95pefAKWFowavjgkQOCv7lGOx2yUnBa5MCjRzOC34lLpCN8hz8uhic4oc9vWWD8t/xIgX2AAoKQX1zvx0GhVnEuOTPUiXCsMDen4JZpgT65ymocCSwD6QiLs0Oli8yL/e8P/CO5LCYoMLlu1AamY324BZN+QfYjrNNuwISsGSr0ZDQXWRek/U+H2uAbmbmKvBlzzwTagpdnFf/jlRSIR1y/750wVxnvt+Ck9UhpYFf8czL3FnBovq+yDuI4+pQTzdyn1w16GKiji7+VBy6R0xiID7s1qaqneVndFL/aMYh6dj/tYQSLGu2+COIsXQrPf2bmFg/2TytciCC+8E+rLRY6StzKiLpcn83Ml/JeM/3F8DINzL/kvF+1He9Fim8zTPfO89aWyLjwzLvhClwidX/+1Ef2REOZFgZpFY/IpASjGRg2OiY58eHAcQ2bUXt4I8vsoYx41BIvJLIfDnjvYCAKCc7hWm/eLDjCP1GckQQyjmD+arnfclbAOE7Pcv3vqy2PfYzxnHGdmESV6iKH2By5g/8/fkK96yM+arekQvpAp7LtXHaVq6wCthDPVkIcKBWzHWHQBbxdAKNT/9WzPWHYRb1zIy5WJBLfhsMob1daJ5gHn4E2FZoJyVbzBy5cGOeaB5xGdAibwq8xKpmrjOPjNO2aEuyqRs+N5hHLUIs2lkcn/jkc2IeP8/Z4u8SCdVZ78zUfF2ctkXfreRESe7zzBPijC37HqdJbQc1r/HMf1TJa9BnRKB1f388qkr0Fm9VopT/YaEU1+vi7KBDoGOO8SxmYYJSHjB1+9IPZlga6wfSWHZxFXmlUZ6dRsEqya1UwD+YBod4JkzBu/vTMUXPSRfVD+xLbvYFu5n5oSMKnQ6YC+a5R5SuxXH1i+aH08WlDqedzzTPS8OSde/7zI94LPKYsZj4xPySxUzsxPvA6NAfexvtweZdvjhG5JuEdJCnEvLMX8TgKvIh/5eENy5WGXqJzv69j5SYuUedrkfmnz3vF+J4ApPSOWGfYMlNgdTReU7G/KM/g8Ama3pVA8Uxo0vmTz0pYQUdDrqs0odKX5CZjSW8KHcP2mu4zgg6Qizen3lxwe7uYsn7veSuoHl/1vy9J7ZGqH0wS9hDpSRdEFDEyu49R1krDnqDebM/rbD2FFkpovk28zIkFW10eq12tU0ZsrrP7x++VPfDmcieZh/Yy9obqA6D8bzU3e+8S9rp8U2cjp5Xo7dkUxb8zZKp4cqgNOZNmfkl8mWXtGjfAp3kgHElydjCb40wZ0SeVuVpQd/OqYM9kzNDczzJ2MLv6MEs9hO1GpkV70QqaxEK++wm4PQKeVpQOT65auiiRGuvzUhpJWrYQwvQr1oA2HprAlND/FXf/F7K42jY7tHTqy8D2qrrWC32o0kc9Jp03qJsROoPuTvOK+amdN6i1C1IDal5pHlIKmsR7rAQ5qF5tHlokrGFLZvXL9U8Vq6nxzlbHO7iJM19p8fOs7b8blvBggTjcWmAxfnOvnppkXmB7329S9uS7blg4tjGrYdAFnFX2l3vj/f7cqfiDb53Wxpgcc7ZlmOgYN2+CLJ4ezN0fr5irEHIcivs/2xmsTQ8P5hUmH2eeYWWbLJgynzsM1cjJsrE/JzC5zXae4PueYxORNnPHypTq2NuMq/KJAqLkuvZaWRe5Ht/nJELq1gx5tR4Uu3vsmjMNYLh/wkvjdASJTiE8eI5RnE8I+xzBJWfPIxzFKGXzJHmJQNxGOTCEnYImfzUYZz2GE+J0jnKSzVgxJaC7kcsgYwIwlYz8dMepwQEJQrRBCotkZD5eM78suyKLzvve7a/MxZXjm5vqFsG7OcdzHYiAb/KgaXnCfAXHFC7mkBf7aDoI5sk5qbM8tc4IE3ZeYY0ftnBbFMJ+LUOLE0lwF9xQG0qgb7OQUNVSQtmTUnL6lf9vXHsNyWimpmHmwcfBbfa3IzkWyxoUd+UDQufy9jCZ2he+sWyCA/n03mLMlRQs9OTBRaU/XTeotAgoBIjgQFVu2I2zEUFnj6w37Y5bS5p3paumQ94mt1I2HYEaeAvbBELlLp884IP2gICVTjBVfOXNmv9NvIfsvkmPgDOUTh4ptSqmn9aAGv7FUJrESx92halGbdFa+Y/uqK9wbDnqq5Px/Kdhc/YEseWDiHQ/7QAtUoA+LMWrGSUftgf7iKcz1l47OVQxdTNj7FDBdjCh59G/btl6C8y6D9uwfqxnab5Q5tzPLuRoqV3+/uDEZ0mvJ0zfySeTZx5z0IN5QIdYT83My3z175EGfospRego3zS7qCLe5HzXpo5x6aiJe+WfThjflNz2NyDfZwJAG9WAMXrcLZifkuzttxC3qIQEAqcrGG87zG/rRCLkwDfqkDQ6I04JL+jeYvkQG/jvC0cMQXXO/tMeXv9/SM+eo7DJhKUUIjuwH5UzIm9lxJiPTRGogUvmBcUEce5+QrCovJj3pyUunEv9s3PpGBtapk7sf9zUHl+3+ZnPcLPiE+x7javSGE1cdT60wv9UI9TYfq32CESY1a3UfHb5i0pkHzaaNX89pxXIruMBh4Z2z7mdHw3pU2R2TK/m2pKwojjA1HGt6cxax0y/FOL+nsembgk1YN3SACP81jN47+ggcOO3Lh4Z6qBUG/QhsyFWUHfwBNb+OdzVitz0pF5a9b7pDfeeQbdssgx9HWZpIIOEHLToLN5b9b8L88evOrm6b2+d7/LS1Qb99Sezr7P9/42lpiEg6BBIMd8YQ4LCNEA+e9zSJX+27X1o7754hyutXF18Hv+xxxKfQv7lzmsxJRhCJXVyHzQ9/7PvKzNGp6cO37EN/83VUQ3CcGZ/+F3ksOKyHzO9/6bv4/S4MeLx84Gw/eelZmjlBAuJyVyhvJZ3/xRhrjOoY/SHjf/zVPoJvrlbOCK+Z+Mo25Bj3iT4p0ewYUHLN7C5tAwoTY6N2LSuNutwKQYDWET1AVeFHe9ypJ+wFbAvDJrfpC4iwO35faqeVXW/IaeLKD8Fwb9e7X+R7Lmpb4y7HYadM0zL493UCXEK4JIFt6f9fXNyiZquMN0xUiY14sh258ouQ9nza/FdWkGT0un7QvzRJonhKvEcwqlNaJDg5Gqr3l13vxM5l495pD3UYj4IOy+eWfG/IQ/B5fsJwyXMAEWWLYiCw92ZhzuuOJ3ZMxPuvJSp8uWGWvGDKLkS755iSupjCYHs+QKxYuz5udcgXhBs8GEmf5KB9kYX8Caq4a+PWN+0R9EZxUesgael4FCJL+E/GQGIiPHRtSQO9+gaXVQPuPI1fqzTk/k9JKsea6DBRdEwOZFWe+HHaSJ48Uqe6nWHx3Yhe8VWe9HXKEyL+pWZ3RV5V6eNT+RUa3BVsdLF3OBlcBXMNYUk71Q8lu2hApWRyPz0Yx5iwVa9LOynCv4t4lUOwuCwZS9JVqxO9ALYzJK//2y8iazl500a4SNt4D0RZ9opbuG/gXPvNhuUsNJn8VjWh+L2q2aH5LlBMd9wrBKMZJ7eWYmystS8VHP/G8/EnBbIEr4Y3nzf1IwwqDYBsKEFtTfF5WTmLQ7Y/sRW0DcQ75y9PG8+d00IOxPCJqJrqya92Z6A4mf7Tc7BIM5+GCl+s8cpElkoDUez8h+1mVjuVLrc76rVdUSuaelHf7nDEearsgRVCfiCxnzX2O4rdLsHESsCF/MYHk4zWEqlwcy4USJvmLlTHgoGB3sr2HE0Gzz6qz533b1oECEEhfclzU/4Hf0e5IjjAkETs5z1kEsyhS2K26QhFBPXQa0yKW+njAw9moRGvbq35WXQy16sD+Ap+qABwbwRh4uZ4trM1S4jdKcZ6EB4UHpvEVpMHdQo7TrjEv9mMuhFv0uy0lIUAoSRPZ97xsWQRYPjSB6qZKIxBX7FvOkRYhF2xnqgKzj8kTsAbxvTOUtRneXYUPnovOE/1RQyCO6DGiRsVFKe7yGPDzDApNkLcKFHYzPwhdlH28efRhmUe8kXtbjHEs/pUrHzM3miYdAFvGeLqMop7zHNGGB3xaxuFZYB6chUpTA8w2LEItW7bhLYe/2zR9ylCarpubf7Jmb51mL3LOAhM8tt2otmV/RnTQxnL2QRmY4VeaNGTssRQbb6lksKgRzr0TQMQav973ne4ytqrVoFWUv9CJ11+Zfh/su8/MsfrKBDfeZlXv0nP68yuG5rX6PeK9tsQ0rhSjcWpcEBH/dIaJKaFIXfxsmWXq+x7wJsgmMgYLIb3JYf5FDHPHFp/1RPC9XEYilkqwo7/I50KAMc5g6vaiq/sSSyZl3eyPQiQOTVSvxajwKPWIYHrp5/XLfvCcuEJdL7GyMAGN/HJfNBVoRwcG8ILzCN++9HKOAkcXasTqy7TZ/ogiothrKe8xfafc7eGdTzjVFdO6wVrbAhRH+uchcPIWP2R1TCZo0iahkCKrm7+YE5GRUKDwAgY975/uXCBCfO4cw78+aT3gXxnjWgayKzb0pJwiI+B894VTWcdGkYn93PMWDIP4sHbzH+8/uBK2KcxOxsfL+izdjhCWeLJI3r82a/8qAwOheg/M1lBxG8bHGWFGC66Rh5If8IfhsbNzO7XmEVnf6PSXwoax5oU+ofK/Wx1wr6E05Aj/oAeMsowx7TnlY7H7KjwasPWyw43OqZmfUH0p3X+F3uvREw68b7VpV5s8ncsS8JB7cYrabT+bMr6eQqnJPBxG8MXllTJv/YM68KYGUMIUH+/RMthUT8242hUmZBBWKl0J8D0relzFvT0oERmFkPpTz3pqGsth+yDO/k4BafWI66LIq41ty5m1JibCip6lsPHPmdxN4m1Ee1TGEMP7xBBp2xxMwP5rz/kFecqQYlbmc99/LiOOKSGedi+b9GfNpkKPk4y8v4fwjM2FhVG6+4psfy0SqVXr/eB3rgf6+I3mVTt2YpuwAOBz1vd/P9I68hPwWn3GLcH/h6FDRW33zB9LEEbeI3+abd2V2pF1l5s0+7O8wGyjccu2DW+mJOP+Xf6gE8Lvz5sss8zhc8p4bEggusor2pBRV+YHMFJsWo59hYq5yuiGGfry7G6JrB5FI7Cs585985EG92CgI+OMZ88cOXEPze4yUgD+VYQO3P8DjEERLxXwqZ/4EPlJXN2j+fT66jqOC+/5l3/wpuwn25Limu7hT5rM581e+nVHovU4++vN+z3zY74qBbNmDn7ml/nyOLd7UQq3zs2r+1u+Nu5xBcdSUpv25nPk7aHNiirqkb05xbux7n7T+XgGynAiJ18fBthXOp3QSFWaz6WCHECToOfNP2gvVPO3KV3Pmv7BB2cc1Tb6a+CwPwjHMfSbx2Z75n5Cz/ixyti8kCufYORHPT+KrMjHc0RTDDOwHM73+budgOFsoQDD3mBeC7gJWRcRwfiIqSZX3se1W6LyKOPZa50+IKsdA6PC/VbvnZ8yLMjtutYnMfXnzkkyks6NEVQTxSmZQ6k3YcF72eY99DAZlDJ32WEBIb0rzNPgxApluabbvTkrxGiNC2cc983qI9vqBlteZu7TzhljbS5RwiAqviAf0T3jm1xSd4FDqm5LPYcnNdPc67IP07nZkPpn3/nABkXMq86eZ7n5ERA7VYTV9IfsuARwyFK/ImPsE3MIqt/vuYFAKXp0x92c6g4Bh7+trbSWmzDk60h/26uroy8cofsqhqGZUnY19WUZfyi5PO0wEJox5ad78dAp2ZjALhmic29a8PE9j3TEE0FLWTwt9S8b8UmbvYEckF+siPJvXZcxrOJiSzx2xUoiTpuivz5j3ZEqwmUjAz05YOLFXHGvEF6R7xmf5xn/QxapnUDSJPzXxSIYtBnmMq5VtHakt/lWzwYxptWpYAvFUkhsmPvZuCIosAhxyGrF/mh+MkmVxxWRjaOdiCpqLoYNRVflSO0tBPi7gCHehYGnIKNDq8i5q203eh1iJxt1Bx32GyYKOnRuPOZgo4PhdYkJGLEerZnVHAhkhPktXLz9cpA3jmePdA7wC1dQNjAtqho+5ak4sggMCT6vm5BxYHPcuxbinFsEW9wrHJW3fY65M8aiAq1KSdt2ltjF+K1hzN4vDUqEa8PRKtTBRZT+LwpaYmmQZAyYKg7Kr37EqTVFXrBczm4FhikVoo3ykiB2TjC1k1lKIHeMTS2ZF0oXnxZmYTIQp8PxDyAMsf4xq/FqhXdrYtp9lNS5T14vUVItZtdWNLzNMZ47ldTwxL4W/LlMdUxvh6MviT0nmsroNZoVupo0X3LFZqIa0YFJYIX2kE4foy0FL8RK7fmM7QUnDwYxfkF9cc9fRTTlI5YT1EgOSsg/zF7xfmfEuLw8ovCTtz6HaGkd8xltgShgpHcZCjJVQLqbSuNEL+uVCW662SkuXmaQ5L/dZXhYwAsqElUgypWGHE8jXwMSM8nI/6sqERYyvtSJZqGmRzcpGUBBByOf/jEvfStJz6dtI+y59O+mMS8unALMuLV8D1J++Wm8VmvJ+Qr5qr8IvFauN0pk7NhvtgNxyioUUc75yqzwhs/s9mr7cAPr+ngWCwli7jFtK/FrnsGW0XxYDs4vdgTxJHyPADpUUdhcgS+ibMibr0iHOyH6HVcnkFqiVFoqNt3UzPTELKLJO2PnhyWhSfHk5HZgJyhvd4AhMGX0zQ7OA3U6X+smrTV7p8Frho/FyaaEz3BIceRsd9vA45gFWP9MhMjEhi7nz9vvsP6qQIeMTK1ZXJFMTqHhESNmsyAuh8G+ahU37Zl67sS4XqAW+HQP9mn35KLNZd6msQ5PsdgLN6S8+zt/4y2u+WCidcYAlBei7UcvYeiKUGvRUXTB+fpddX3O+nEXqQM8B6W8T4m2tJdgsX/QsCyxMVbHQ3CBq2Go2n7ftlrF07FIWA8JMK3wNBIPhXhJV0n0qST/1ctjiHH0Xc3SxMKBEZqjTxwsyViSSb+7IWIKWovEeaBwqDSiCSGaEYlgjAj8XUjiyp0v2ShbjvazKWwsQ8+iU4Tn8CpGXTODUmzz+HFipl93LMaF7GSl+Iyhr3+eZ18pZgHv/J36FW37VMQW1r4IsLQLj10CWF8HJ+yIrW5WwUtTF0b7o5Cznavxm1PHkPaUT7puGaCVNKRPbh/t8chFHW78M6dQcyfJxNK0rLkM7mtyVxUarDEAaTER4lQO6mgn8agfXFhPoNQ5qG0jA1+oPntTb282WvE/RrgTS3nVWlKXGZn3xta3ra5X5q2g3yPtmceZGKUkEeZMUJbkH6RtZyYtjD9Zs/ILWQzSnbLQrjbo0/9D5m10P01L3ktnDq4dfI3ski0bqPbNHN7aCVqtSRuu2Q/25zm2moTGPiXVa3KYkODGfPfenZk8aJaCcKZRMEqDQY3OdzCPBBnSP8cWfszEEKqZofwDaC2UBBUKU2a7HU+ZjOaHnpnhbqHJMgtfGoUh6gz0n+SFIPiBeAJKQH/Tgav4SJ6TlEypNlwcxRfAjEDxUGlB0NJnFlsU/Bz1F7GMQOxInAGFOMgKIFfYLGjJougZAS5H6BKQuKw8onJOZuALhzKJWZv39tqybxncv7Rh1KXg6Yun4xLyxTyeNpcoDCueNCdB8htV3EY9lZ9RRr8K+WPhJMHD2WSLqDLyqR2bGqTwxbyICn8WBuMABlGY+h++wfxARBpDc5zMmb0m3E3RcHUlX4891OR63Ygos9yRLss7MS2sJSdYj9t7wAHMRTM3aUKuxIzV+OX0QlJwdidTsK03tViBPz+E1WRvZbMteyHjxlwIW5O8QLUF3siTkIGLuUsPCTHCbdoIvcjUfp2uEjOxaA/vEM+D1HuM/c7y/M+ivEQQRr6RuxYsTlqpeTyp+CZGmX8TOlY7GM9n5WrDoRT+A4fAr9Y2gVcF4VapVa7JsATvoVAsFVnx7v9/42bgLbk5/FWXAWmxphhU3M+yf63QvOedBPLeyqNBrcD4WaJZFOMeskEe2+5zHIWvnuwlhojALrwaxkZcxctUrUjc3k0F9Vtbk0wJamkzltRMiyUorMs/OmuU0lytQolFcF5xZzl7Nc7Lm2AJ/FlW+Xjp2DGEWZ3THZu7z7NckbO4ek9kdjjuujE3+Aqm2sGjy8gPPiFYHhocXfyyFQWA9qpeCbfmCCYBMfbNWdC//1exvvuUXCDYP9Y5JwByXUKhmVz1v4OLk8vEmB31B1vObh3qN96QRHCHqQM/PGrw6zMJ4aJ6bZe8sAbsY/3lZkzlEg7+Ky/QI1uLfQtT3G6UD9ktgDpXm9gcjEb+3TyiaJ3z3J5LI1A/zwd7eUYYLz9Vjj671iB/betlKqqOLYkEqMxH8C6luHU3/gZHbgml8ebkR66A+nWFQ8NzlR1ZkUDzrFAdyjsLA2N8Tcz9MZvRzOTw9GdvtoMyMYi8NwC+0cTU2AvldZlDkp9fiXymXYvzGTRwRaSn59XKBu7dU9W5C0QUmwXY/O4fl2qyXCu2ApH19U9wEMr6tVkvs9sIXIWx6i6AGs0lB7gpEnfEklzmrORkD9lPJbQkrmqVCSdwXGjFhIB5wW3V3rsRlHCwnjowCt8OgivunpW4vRCoHqyIpt8dINxZHMuRIienus5fRBKzPmITsH0i6Lqpk2sxGMX6WQx9XbT0Q57KOM+5+f9Skf/PaDWG6Temg8VcmDuQkkW5vAIY28FJ0X0JYALOWM0JKWS8XKdv9XkNhlGKJ2vY9BkzG0h56BnAZS4+/cGBDY0TnKVsRv6nIFnx+z8hc0b6rSSSmVdEfZjGlpgy4536vxC+FsspkThe2iN04nKwce/HMnQ51fPK6N7lDQEvNu9obClxel1VqJVTwsfBsRbcfq2ca8t4wqeOtzVAgJ4oF/eWdk2xuKzjHKrdTCZ96PgDdtcr66UKN1UV/rsWUW4XSZlUXmjKBDWYQgy9ZP8ni0gYAMjEgKLTUr87GALbEgbKQiyFV5/XmK7LFZE8fjObXNFjS7PvIcWEZhY8L8Sl46JpYMFibUKLl65zTMuvtQOuk10gYejZxQIbJLmpiQn3RrionmEIYazQkyaSB2s4BAUd7O+11GMgBHgOurwx+/FoaYcaRuwRDLlucVzBZ3aZY3dyszzNespfEoaDrKoqM5WFkt7P+sSFJJfPGrMHbISLAGpgzx45gAbdIDimSAyOiqnTwTVmz0lsEvRm1XgSJRLFxb8mabG987wiXB+8+aSzHFIiQRX/UJeQbQ/MiHsScfGkuJ1+OXJNIfxWmG7tVylH55fLcL5AC2zFvkQHhyZNS7SthNNFFxGGcuGLxeIkAY4ivnnAcXMtILE6XoWx4lDRM/Fulpqo/4+O19New/MNovi02thh/MV3spMXiUrM/MQqKCe5M0vPvxwlmfInAzw3Ee/EYLSq/DTWyBZF5Z9bjaGvuymQjBpbthYTD9kF29hsB5xLKgVLxlwbzFtqAzZbBEUhACzdkUdukIHVBNsNK2SaE5i4P4MhzKqLkk7sDudk0vikrvjauMPXy+xIy2xio+01+KeFty+0k27phYLbR8Q/gSo2wKXaGDgcdAjyobGk84gQJup1hQRkTz6bjUshF/BKLIEv//Ot/BUUx/iPmnNWhzmxFwnNYG1RzJ1uXBJLueL8T4UEpzt0mO8eRDtk+pjoe6gXFQ1eE87Ant2EpVzJtsySRu+GRl0xWLr+scmxOH+ckWrhOvWrZWzsYKX2z4h1nBk07FsHNuZ78gkFMogUFQrRSnDTrmRsPIVRiLbjQTzxMuVZx07wv9qr2MiZytDkdVkb1/r1sf8G5aqZDGg+wivvkImxLrKl5a86cWoSbt2fN1YsgtQQM6zWqSQVt2rwtY644xLGN5s57dKXiyy3H9ljGioG6NgEVLxX2dee4Yq6jR1Z5Iprxrk+yc2V7R9a7YZGpEAmVJSDyoEV4EhZ58CIc/DPqaj6ko2oBWR3dd2fNQ+cQrVLpUf1hCbC5J7PrXVnz8AQUysQ378maRxRikMXC1lhzuKkGJinVpkw+3t+6H6y1HxvZ1t94lZgZoPRv2GrADFj6R2yJwwHJpiA2CAcwl7Rm2RMvTUPHiNjOtV2J+QxT0xPEqRydNvWIni2Hc7J6/UjPO6BFdv6BLTxRZ4LKeihLo2eCu+Jvp7BqnqnjZ879PLHN3p3Fxp3btuN+M7ydRwYvRw7jiPyRyzIujio8n+9fEp9GXv6AaYW6tt6HKd6AaXm37TzMHuhXY/SldMaLzvZHlfkU4KRgJDzb5cWwdMz3QKVG867t8qYsBLGrbpHFUAsxb9/m+71NJnulRzt+AipeSoCZXY51zqhaZSPb0AeyhFViVItYQbanxA47aEzAwpcCnBF798o/4foUTbubmvLjA+3MLH7J1RZk73WHzbk9e7MDQ98XQm0kRPlSgl+Rs9wNe94cn0inYeJhX2Dmyv2+Y/EZjTgB5FcZiJQiHNcWtuwypwI4gQa5+/AMiPYKqMSF0KrQHUcIiO0kiPO+A8pUGUfMaXJB318+0L55cafF/YtZyyyykj2yf7kj+pdfxDzr5HZYQLEUl7dgRy5+4Fh2O6MLnUjuyXFefiAv+e2yV5OLCI5t9MzXfLkvhlBmWsZWWrdama2NDzALfq5rz2ieZDxbrkSrHPFpf3rGT4FDPAy1e/J7K7uHKVpKG/qWQou1h+pLhJ2Gg+55gmPgEMua6HyGanholdH3KqDi7nEmq5PfZuCZauyVLjDB5AROPy9ByrXr7Y1n0WQ8c1k/YqPu0rFNSCrb0cyNbc5hfS0CjLM1SJV40RuPXFnWVSuyXE2IpMwqPfNWz+SSNsO5jS9oRdu6fnlqTY7oWUzwHsaT/TF+cJfzMtFI+MH2YezjusBQuEWYUkL1pn17KzCGyxrDRoS98xFMSOH/F0YgZS3KIWaELviwswgHHzALYXaLqTIOxfaX9B6QbT9n0eu2Os0NoiajAiuivUkmFAUHkkG/JJInCzaxWi/b0b7Iy6fqcEUyj9GxXCC2oNfvNeOxs82phtmGomT+L2H5ESJkEZUwCJ78oIGTQlmwnbZE5lNEw9qyXKnOJi69MQ/wNVYkqlsr6cgOEVvbeUz5GD9QG/t81nij/r1Jxr9Mp8qiUxlSsfYBQfcG0YbFrIzq/XsPdQEl7CXM/bOEOeMY1kzGRa7vCtWlyhwcjwyjEklOW/EONxuzFy7QgbsoppMCZyd7CNJ8mWVHjHZJrQPGOFo0Is7suEml31uoM1Aur7vZMK6B6KI4TW3UYBcH/2vWl3wY12lpF3vYaKCC1ZAoo+xv0LPKrquDXtKNUn845LSmIpB8AiEMo5ClxTFtaldNRn7LljM73Z3L1zhbNknEq1arcE4nGX+xKlNKX1dAMhOlgsDkvcFzjKm8Ss5CG+s2NjyUweEMRr40xAyOlLFY4vrttFjpLHXzBZTqcnAImYPIfIV9fJp8FrXH+Cb0MzuLehhPhQqxA/lxFz9S/MRYZ+Ku2c+MMVyXNy0cHcFomHDkiDomIvOsnLfIpK4hnP7M16icRM8stTWRpSXJPMhTKZFXZL6a9ZYoI9ipVx+Z66IIWC4EzrLJiti2eX9L9rDzmKjsImVr0++ViMmhAVQpIJghm6tYsWWFAzybsnK7l3bgwN/o48nu9DszRh4zEUhsWMO8psh5cpLzNvE+4E349h8bG6gyQp63LeScI8ypj8QDd7AE4iTY/VZOVn71ED7KpN+nO33zsayZzxlzj7c83qEheaEZE7rS6+OVxNd/jmEysCK6YEfm41lv1Y5EvEhz9pj1js/ilaVhdSEyn8x6J2hqCrer5qQObYyzYe0FE+bUArwZm+aKjGTKwlyxgNZYfEc2VrvHzhIEx0NZRgnzfOWE3FwBOcPJeVd1UyP+nJy5+sLC2D6X7SMm5Kzc0kPA18rPhK6xtQ3RHBTSM9elzFtsJiPzxax3/QxlcaP/L1lzg2TDRNRfypobk5Er6KoVwvtNu+PuQdQYtUF2ddkp7iVK8vwc+8O4e+F8MS0o1bJw/Oms95ALgyNW1M9mvYd2h/JJbWS5ah6mTUFFjlMqPaT78KMoy/Kdov6ZrPeIzqJqPy9nHtk/clH9XNZ7VIe6iEsaiQLFEqoJHs0+2qLI7ikJGCg/j0mG3xEIhn3ZjNg+Yd9g36qV1xmNR5dEpTdjkF3Py5DJYCqhGlme8H7qlIhwDqKYkkXGT75H7j9JiZ4EP4eDyBClJ9DbmezdcdCfXkodnSxszOptAoqV+vp2056uec3q5rruqQ9TMKxxuDay0ajTKgyybZ1gojGYOzH1FxPxlVLLYJSoo+/tDJmiGuVydhUTYAcCpxpRoVu+/R2BTbspEdVy5+LLeE32jBljPQPe6u/b1c0ebzMkbKGAazYzIyXCXDJZGiqKb5fDbZej8SXCs51o1sIkMDi9EGgbbDq2P9HKSxGgzU1Q2b3V5mfr2OI5C1SQaQcSjUsFUhivr00Z5yacjSfsySCRazK4qIS8oMqBXsf2318wkIOoJPOTgLnUSBw6J5NF3NGcyitzxi/pdClOx51eF6aMn1/A7i7K/WXUmMHr1Lyc4ZvE7ZhXEbCfxArfTIPtRQbzCqLdNQgjC+M/TrDQGy/dlI/R0gSB3FafRWQU7Q+0mC49ZjTXFPPcjKfzIs6/IOflBtKeMHnkPHphzjxcKISq+A74opx5tKqaeaHn5SVV7ET92MQ+VA7vO0O3MizZV6EMB+KRhO9DvHZbshLn29Kn7zDH4nwJvwoOFFw0q/r2EP3LmeOadKpN9FGza0m04qRtuNm5xNl4D8CpaGF2ya2Ul+S8K6Q/tifzufPSnLlyF0pbNg5AN65S6hU0kunIyn2pcTCLRD6j7pBVjeCouAtI+GpFbDI+apiuQaWI37IcDPEyhpujnhjb7nlzX867TkGtfgp0/U6sQJF5dc67YdrvWssf2h9ViM91lsyN2k6R4e3usbEhLrMGw7brN2lZQIRxPFW5fcU3D5rIluzSqFtgcDFxoD04+RpkQb4HK06rmLWH4PLPLskrIxV7I6IKS/TgYd3hYLIjnwVJ1qZW/xx/I/OivPcIuEOSztRgFGX4X4O9xxVt9SesSAipZMcSYo8SzW4zAyKZrcSIHnvkdxk+43uPC44gbLecbtgOmbjDJcnlHl9008ISbL3AabEtLDKvzXlZua9VkFemU00TWjiHiBjU+D0OSJYHu7ulvQOJ1q3OSWF8PM864Xnj9+yPJtQpZs6ZTFf3GRWhlLVpNwdyNlehk8xClBdB5btCPSroB7sQYXsPjRIQTSztEJcXlUSWGwPm7bS7d4kmvOXJ5bCVo5DX6ZCM+bHJ0fBV6Z+qkPGLrUK9tMHChcUx9QbBWXtlICTyqVcPOZva3Y3nm780or+xOGjfLkdiIxCIE1pkXodPLtmiMCdo2R1JNZWd+iKF3OQoaF6qK4uv59hPrrPX+gTgFWL8Qr1Sk23UNg9dbc0WYWWJyXoJalmmvE/0k/SGjah507hQ6bwxhyPfsV6OYCvQXCF3aoKCrNxmrdrQH6zywnbLisgvVCsFPTDXCwkk5PdYOGYO7U2GXE2vU+TTN6KW7IVMuQlFbllOwDnm1ktUK5X6FhQF65gKf60SVMvbgLSR1VItTDLHiTo3t1uBfNT7RNzxk7VCnZTcBREOE+RTccdafRsCmndw5Wt3MOmX7Uku3ZP8Qk+W0j1ZjjlaiVsujOyRuPFPPcCFp1XjL1xxynT03I6jvKzuXyx8x+T6FydTFhisiAW9Pcf+xd1CMu9EQSL3eqOFvJ9D4V2MUiiLjQW9K2dWpGERg4Xc55ljI5ROLUdBGrbw9+TManc/SkHeJ6sS5/mt/q4F3J8zJ9TDstl358zJfT1M7YV40KNzqbof4JwqSLjHZ2a6s/SYq+XKdXL7ZbPYbiWXYTy0qVHdCuwFX3t+rzdymjofM+WKKDupbPLSTq7eaG9rjky+ijZut5nFZJaSzHajlaAsr7cC5k9LC8ivpPNpxGMF3X2uqkYcpxUeJ6yuVNaEm5PUqhf0l9xOwa/+9sR2tdE4oxecrqgH7se1rqzARWuzvSGYV80lwgztJ5lEPG/LGfkcgAMXpucOxF3RQ7Zkxtbi8dejF3TJ3rMAZz6rwcEZVjhHcRzMxAVrsXbgjBO81lGTml4nWhONlLQvYwi6cCRNE76RMW/Gd9W2hKw4tAI1L0KzNdWOw/MC8jtDvVIEexnWPj2iqAiWC9vjzS6AbZCfIGV9QTPhkhUVviWU0x5LocZbRiQUy7w3R0hUFtHG9IxKQ3cPWqYU7NT3F15McPfS5DSruV2gwP5OiCiUvACl9WiZqegcAxY3xDyY9fc15e8KeU1mmun54bOhsVcpvVp6XgB6gB8IXkBzDXv7aWClZ97P+OiIIAiZx/B2Qdt7KwU9ANrJN+eMj+IsGr23MHpx1bCv79RTe6CMjBhOusD+Y+FiaIIvRLakHeEJNVQX5iMpZZojBJSyv5MvSIs3C/ELKRzRoUQ1Q3mp1ZjrCnJJlnO9QMSu9zj1FJJxIEtgcPGtBrmQ1t6Y397PrKuRzgoVuW8rOLm1VqEmK4m+PpgPNwrNJGdNtsssM5Eb+gs6Kza1HS8Hx+zv3CT5VZeP14bj87cN3E/auCXB/qZN8trCKc26VxGuqFbqqRcPrrzszYSr5A6g3jRLAa+eA5PrTNcoWcwNsVRspnT62hIixxGedS42h+4lAZM5G8gv8BmMWKvBeCDQQUOwfXuxrjPcQrHZbTsbwX7Dk5tv8sEHU4sv8hRa7UpJe+eFCIEGSfr1whaPTCF0tnhD3uzLbdzK3/zGbfxd2ridv8sb8gbfysZT+HtsQ8J5Ml6ryS2i42uNBlIgdYIVAcsfkjwpOKc2BHoFvgWPKxcuIV2ll36v3pS/1zBlN3leW63w97qywK4vt/l7Q1l6fONaZX1TadxEqlRoug48qEa8gueDWU54PETW8IcGNf4+TJRBZf/wsIZikXiEcPVIRlzoPOoO/jy6vCa1H1MoFoXNx7rbhI9rScuPb0kHvs55Bk9oV2pS7+tLrA08n8jA8fiGsFATtCedKQqf38giyOPmUAV0i3TmVgHcJp27vWZvBT65WJaCpxTLMjJPDZu6ej1NWXj6WX18U7NSatsOf3PY2GzpFcFvqdSkP99KgFV6+G3VQjGQfn17pd7UCw/fUdxst1UuBXvFlFRR+HeXwJig7XjwyqStDAOZTQWWTtJrjc22pbWOPWU91ZHcqIEjbFXUsbO/HXq6Gqzbq7xnZCWXrlRFl1tj1iNzT6x3dawzj9sLzaae99s2H1os1DEJpEpiwasB4w8PIvyyMxyV+poQCFxv19xIr6Oy8luXls4GoWabqoRBoaU/BHg6fQ33xFzvH8a836zVE6V9FJEvgl2O0qPLFXknq6E8PLY8/wXMx8USe6LUtNP5G+xIPMnJ9WZ5olbC5y249MLFrbgZ0uqTUf30D6s+taWvbT+NR0z46aSFtnL1TW25Ck3i29o4uEVVskIyrl5pIyidKTbk53p9+eHEUqCqncEqiWplYXrTcZKL06k6+RgmtljEu5SowXI84LbNlRjjWFhqNaqOk1W9+SKpk2GzUk/4OgXXPK7kgTarVl4lamVbvbrdCgJplfQ1jHexYeHXSg94Xifys6DrhUGeN8jTtnmjchIL6yaaEHSSDxKyPB8sT0fqISI1nEySxUI10Il8ptqQ0arWCq07NrVGzd4rJ4We1bQ/DcUuVwoWuZmk7rCKZdk7bq/OkLpiwZY9fG6SHuGG5JFlpqCDPSaoNTcwstLi49cCPSH7OgyZneFPYB4FrUqJ5NdX6iFs2FrfGE+720SfdfUg85QwNmzfjLFhcOxl52/B5HAkG2e/lZoi7m+X/vH8jnhj0xJNQ4u3byETxplbybTjzG1kNuPM7WS24syTyaiqSuYpZO6UjPJ4V7IE3C2LiR2675wvNd8l89dNbbLfLcPILt3K6ntwCNbVqmzXDn0xBi8s6pWG/c5If2XFSxxC6xX38VXEk/kMnky6KACOD5P8LtKuwHFJ9ZiwZr+oTazoUOAqU5ING17gLvEqZpj78Vsz//FbMl6ZEwfx5BeRM9jDQkmsxxG/mUvOLx35uRpcXGshjVxB2243kntnniYEIiUA/ALmNX7PPbUxzS1sTCPK3Qsv+H+HtqaDkUsTy7WIhem04witermFFsTbU79Tfj852Wyjfow+CS/2q/yKDmnGlsQ3jrOX0cKlnAm5L+TEo5QW/zl3qFMRQ5ca1S8xqpeVBxQytH4nBtJNR++L0NvoEMdMfbYoRo81YS9drmcjG2kINVIMfBkGAmKV6ue6SHs/zlNBzhCfnfe8yH1ShYPcvOcHCYYDU2tX9lsWeYSelvYkSLQmWmm1T8JyqYpCGj4ifT6HSkkRSq1SfG7ecMJsPyejPM3jqZmArCIrJB2fwTcP8WWDthpTbxNrw9NPjnky4V2hNdRZ1oL2dqEprkquUddbhgwvubys7WFBf4RzqSDly6HV5iZblj5b0g6DImoBdeJbIBhpSF//0awXLPyWhPHFOwgowF1Qt8E7FMZdY8q53V8yX5otbJou1x5mplEv24y/wIsdsyyB5KHs5U4Zj33fBN9aQuCnOOhwuTqjgyBlgwrvz8ubbOkBIsrMt4nG+kSZZCglFuljRlKx9oaNwfZMRqPdFYkZSrT6gUPz2d2khy/Is/mR9wPiLwEpFPvSKGk0w1QrhDu1r56Thb+Aj7ad192zfSn1xYR55+VuIp7juMHaWeQA5nmqvWQB8UzyCaK2UJnLvSg/eIcmbOsKCMDTtZnoHUu73YwDPJKSbdyy9TL0t4noZZMTyod6saQTfdnEZN3WTmwNGzoSnjgTPOX3noHQkt3CyV2MOYWiO3dsC31UWfaMIOH34n+xbZMaXqG8RaxYuZ1D5brKnE7MCbYgwBCI9Zg4kHkFbMuoSwwjInzhLVYtz7827HN2Zis5OmJQXsVU3kmz+UqEPouDLXUIQxNZkyg6NNZAeb/lvHkDTXc4MexMzRuptTe+wKL1pjxKhqpH5s0orWqReQsa5G41EOYZDjsXzVvzJm9BbY5l7FXkt+fNkj37M+/Im+X9zpTlkEhk3qx0ad+8K+8di5nQWq5f2T5hcKL9wv7dxrO5JOq14j3AewS9PgcNJLIF7cOcsp7WM+py5kzUraAWor1BrI3FE7NRqW9vVQLxmv0GTkrrMrD7aept68JbfyMbv1qQWmqz1ui5l/F8t6xmdJ0lka0i5YQt6Z3x5c4JVYQ1nn4aA0HMBOn1DMuBHlL7EwwaZiHDsI8qcmftLNGssdxTPdRp4y/PXL9fS/VewuPrGNjxbK8vvxxEIbT6ct7STiRqXsMwKyxUU8WhDYFljMQCRl5ACcLSZNi5FDXwdOBkeUP0Zs5IarSkphfFtfymqNW/BXFNtO7fghiqBsZKOa9hf5D+u0Cd9DneXjHEvuzotcdNkSlTwtZtC2nR3rhy24kRU8AYzQMz/y8V6Gjixs/PHP230ZGFgTnUy8wuh5Jh3NPsTM5NbTqXln6+pBNu3kAG9yCajGd30uv4ju5dpP2uIq5bryVTs5MzVW9BZ+aCw9044FxxPJ6w9Ikp6usXbfFs5xYFE9wlm76m8gk8xzioV+k1CAvbdANdka+1gjL/GgaZD4AfZ1M4H/RY9iWAK6HpLSkXDgsyul5uRkCKpWYkKx6TZX+gZkFeXMYo9Pr6PcMt9eNWTO5oKrYYC2NJXdAsvU6wQxsOTz7LMBlzXK0X18n599p4Na0OZp3hoGuYmNFsKh/cBJi7cFlTkXlv3ssn1NfE09dPDfXjBui7RPfZPPi7nf0BwlYvAi4i8768l03RBPKevJc7iDRwL8G7rv0+LGy4NpRCyxL3/PGwZyHQlBu0Scb2N5RW0sgKoFhw47RFtTUVxom3q7GrwLpkqBNJoS3j8AovVivGgBjbvJ8FTFHNB2McdebivZTxVLf0+qL4tN4cBSoZuYHo5OVFdF1Q/MjVjcyH815GhKOVMLCRfklrK5Ex+zh6YO6n6anj7EPMvb4l/xFMo94MaVMr2XJIGt/3o6KxjhBiUTzrepv5m0Ea3uApHqVbSHzZZSe5TLtBOG2bKACnzdtlAisAswvAObKef+Dpxxfz2rJcsKaIL1wj0oLBAotgHZGBNmdkKaBuZlNV8ToHYgis7/QJVgnUyL3IMeNoJr69sIpC8yzIoUzu/wFDOgAA7ZxpdFXF1q7X3gmhbwQ0ARQjgqJgYocikgSb5CA2RxR7wiFCFBQIQqKIighpkKAgNjR2MUFAEERFxYRExA4BkUSwQVBEhQRRkF486n3etYs1t2ecb9z76/76HGO7KuupmjXnrFlVc9Xam1Ao7MV4TZZ9vmtGk6YFIW9Vfsi7sdm1fa44q/cVObd2u/r64Vd1vzjv0vPvGDMyx2vltfZCx3rtvBO8k0KhUDgcCsfFHG0U69XzvNjYkOeFvdhQvUtzBuUNzx6R68WFGjzoeV4T/Y//IpeQ5/frneTFhutdnXV7duJZ/7ViK/2/ObW9sF+/g+pfNiI3e9SIrGGJ/xwx7N7ES7JG3J012ovz/sfWj4YQEI6TgBAdNq130W0ISMwdkp04Om/w4OwRiSOzRo8eOuL2xJzbEnPyRiXelpM3YnD2qNGJo3NGdE284d6s3NyuiUNHJPbJGpGXNepeVTv7zLPP4l5u4j1ZoxMHDcvOGpU4Gnn3ZKHb4MTcnMTBObQenp07RHL5e0jOCIkeMnR4UuJF1M0Zlat+RiVmjRicmJU4JGvYbYnDc0bkDhmdOCxL6g3RJ2/0reLpg30Vs6l5T9a9fhNpnzsq6/ahgxKz78bP9DZs6OChtw2lkpqOyKZg/VJ96KjEYdm3Zw26FwV8B+TIfVmJt2Xfc7RnaiUOHZydJQtV9k1PvGFo9q3ZiZfQyahsdB6V2Ds7a5jMGpQ1HCVyEm/NTkq8lup3jkDUaArmhkGjsrGGXkaPzBqULbnDcu7O7po4KGe4LBoqB8ucIU6kxGeNuDdnBG24jWmj/D/uGZLjm4TUoblJienR9/1uI6r6RV8BBi9v0BA6Hjb07uxh99Jj1ig6iPSWk5d7ew5/JY5klHNG+FIG5eQNG5w4POtO9ezLvi07e1jiPdnD0FX3BifmjRw2FM8xCvyROyQrN3HoaNpyvScbR4/0ncHA438a5FIlO3GQ77aklSXesRM8b/xJXucCz5sWPs0PYu+a7NvzhmWN8rzTQ5ExUZP/Dcr/Dcr/X0HZhLWxESt2Q6++14DVckc4NMnz6hd63lXhBiFvQm3pfeEi77ojMUPbZObGEsFb6/O/gfW8uJtZlCfmVi8KTxo/u14MN7dG4ZvjlrLmevnltVeFJ3l31I+ZCIriS0Nx08ORCh9SYXP9mHzPGxJVYXo47idVKOifeyIKfHIkJv/Pv76NqvBTOG5lTKTCLVRYsCem4M+/ukRVWBkT92RspMIMKtxxRBVuj6rwZGzcLlfhs3C+d/gGVSiLqrArNm5/rBeznz0t7HtCbDymj5uSdHNDNrFQeII3PsZIKO6BAbl3iYQhWx8xEo57ICEzVyQmPNGb1thIjKSdLhILufo+I7FxD2TEPyBSD7JipZF6cQ94XqJIWOSwkbignzhMGphopH7cuDnFSSIxkISbjDQINKgHOTzNSMOgn/oiC400ihu3s7SxSANI4jdGGseNG5B7mkjDcIG3v5GRJnHjcqtTjpL3OxtpGpAYyBMZRpoFujWC5N9qpLk06CJSDzJznJEWgdaNIQlTjBwTN87zuos0gdz4kpGWcePOLPfb1IcMft9IK/XT+CgZs8VI64A0hUw5aOTYuPvvrv5RpFG40DvsGTlObbqINIOEmxuJD3SrByk9wUhCYE9zyK0djbSRr88SCUGWnm2kbRCJknbzhUba/U1a24uNHB9IawAZdrWRE0T8MY2FDBhgpH1UjBZ6V9xu5MSgH+nWZISRxEA3adD5biMnqZ+zRKTB2HwjHUR8DeTRYdONnBx4tCHk7hIjHaOiCq1fMdIpiCrZc32lkVMCe+pDLv3QyKnqp7GILF1XY6RzYKnaPPqVkdOCNrI0YbuR02WPb6nsuWO/kS5q00WkBatWj5CRrnEPzCluL1IPMiPWyBmBBsdADtU3khQ3zkViS8gtrYwkx43LiD9BpAnk8zZGzgzmQhgyK9HIWcHqInKgo5GzAyKt+55m5Jy/ab24q5FzA62bQpqdaaRb1Pwp8nacbeS8wDuStusCI+cH0lpBrkgx0l1xcKyILF1/iZELAkvVz+N9jPQI+mkAmdnXyIUaOT8SJe2xG430DKTFQvr9y0hKEFUahT8HGUkNRkH2vHyHkbTAnuaQ6PnTSxr4sROCdMszclEwsyRt0r1GLg6ktYbU3m/kEnmnm8ixkK75Ri7VitRLRG1eLjaSHrQ5DrJnupGMuAd2ln4tojjwZhr5x9/iIPNpI70D3RQHlc8ZuSyIA8XbUy8Y6RPEm6TtfdHI5YG0eMg1Lxm5QvaUiGjkWr5u5Mpg5OpDNr5t5CrFQWMR9dN2hZF/Bv0kQMa+Z+Rqeccf0zaQpNVG+gb2xEDqf2LkmmBFkm4xG4xcG+imqPpwk5F+QVRJt5RvjVwX6CZ7nt1m5PrAnjjItlojN0TlB0Xeb7uN3Bjopn4OHDRyU9BPfNjPBSO3b45yNDe6G7klMKYRicuZDYz0l2JdRJTSjB9jJDMYaqVOiZVGBgSKNSQJGXmckX9pCFJElNK0uMbIwEDlsMhwI1lBP80hA6cauTWYcJI2f5WRQYE0aTD/eyODAw2akxzMaW4kO0pagde7q5HbAmlKNVZdYOR2eaexiKRtjrJnSCCtLWR8jpGhWloqRZRUdZ9l5I7Ab2FI5zeM3Bn4IE7kIyPDgvBQspMfZenwIKiVotX+YmSEtO4iomRnXD0jOYqQINlp39rIyMAHYcg3bY3cFeimzXTUyUZGBT6QtPfPMjI6kBYHye9uJDewR9JeyzCSF0jT1hx7nZG7A3vUptkgI/cEbZS4DLzLyBgRf7tQqnHNg0bujZq+hV6vSUbG/k1rb6qR+wKtm0KSnjVyfzAKbSFbS408EMRBO8jyt4yMi3tgSlJbEWlwY5WRBwMNPEjCB0bGhxQ8Nwup0dUbDT0UClopEWqx2dAEWrkAlkmzaw1NBDmb5NVVBw3lg5xbtfY9EjZUQF/Oe9oahtc3VAhygaL16uPGhopATkNtnac1NzQJ5PZO7bfntzL0sKmhZGBgVExO9pEb3iLvppMMFSPQaSg11ncyNAXk1NBqf+Zphh5BYLBCFnn7kg09CnLh1xB0+DxDU0FutVFfw1INTft7X2svMvQYrVxfajW1t6Hp1kr7xO7LDT1OKzdeEhh3raEnQE6gdr6PbzL0ZCiIT3m+tL+hp+jLeV5qHBhoaAbIqdEWdN1gQzPpy4W1xuu9EYZmgdx4yYe78gzNBjkfKmx+vd/Q0/TlwkYm3/WQoWdo5UzWfjppkqFnQS6wpfwnjxp6DoFOeXnjjOmGnjdv+D580lAJAp0PpeHHTxt6AYFOQ23RrUoMldLKLemKw+bzDJXRKioOCxcamgNyGsrk7YsNvYhAZ7L6+uMNQ3NBUX39ttzQPARG9TXyXUPzQVF9rX/f0EsIdH1pfu1YY2gByM0veX5rjaGFIOf540GdvjL0MshNB7l31lZDi0DOvYqN/jsMLQa52ND8yvrF0CsgJ1B2bTxgaInZdQKo22+GXqXVlKSzhRpySHamZ+g1UCBw0vidMYZeN4GNwzofuypyfylN3J7ZJPyQ520w9AbIGVWfhGvgSkNvgpyX6pM9jU839JYhJVbrXzK0DOSGWHnNqiaG3gYFmud7Q3obKjfNmwgNMlRBK6dhPGj8LEPLQUG2CNphqBLkWrUktdjc1FAVKHhw4sios6F3otUo8FqfZ2gFrZxA5SqJfQ29CwpGv8A7d7ihlaDA5AIvttjQe9aXUqn8mYbeB7nZqlwqf4GhDxDoAl6p2dYPDX0Icp5XX+u3GfoIgVF9Xb3H0CqQ60tZxtaosPkY5KZkE9C6hoZW05fzhvKzfvGG1oBcsCnR2N/J0FpbuxJAc7sY+oRW7slHuUGzCwytQw2nvA5j1qUZ+pRWzuT2oIFXGloPcqOsVpfebKga5FopTes5xFANyA2lcsiMuw19hhrOUdLwz3GGNoCchspeqgoMbfQFNhZSitJ7uqHPQW6vaQOaXWLoC3OUfHjFXENfGtKh1Z8LDX2FQBdsarW93NAma6UjtZkrDH2N8m4PVavUjw1ttlby4Z51hrbQl/Oh1KjdbOgbkFNDjlr/k6Fv6cs5SrnctL2GttIqCOwi71+eoe9Ari/tGrfUN7QNgS5EtbrWNDb0Pcj1peX67OaGfkCgG2X1df5xhn4Eub6EzjnB0HZDWuSTOxraAQpMLvLKuhiqNTW0KcckG6oDuYhSHnLlOYZ2ItDFhgTe3cPQT7RyArUbfp5iaBetnA8l8OdLDf0McgLljeOuMPQLyHlDrdpda2g3yLXS9ho9ifb4yN9eNSgpWYZ+RcOoQVmabWgvyCkvb7QeamgfyHlDdj0x3NB++nJ2aVAW5ho6AHKDohOgefcZOmjRKw3HR03YQ/QVpeGhCYYOg5yGSr1uKDT0mwmUGmc+bOiIqdEM1HWaod9Bbj1URnH/DEP/BrlVVAdBac8Z+gPk1kOd++2bY+hPkFvZ2oG6LzT0F8oHj2UkbIsNjQ8Hdnmg7a8aeigs5W8WUoIdLjc0gVZucdB4XVdlaCLIjZe88fxKQ/m+QN8b8vzTHxsqoFWU51uuM1QIchoqDkdVGypCoItDRe/TXxqaBHLRq/Eq+dbQw+FgvOTDe7cZmkwr50OpcWqdoWJTQ+NVtMvQFFq58VKrPvsMPWKt5MMFBw09CnI+lKOWHTE0FYHOUfG8ytwUtehNA7nchjTPK69n6DEEur7a+mneh5H7vPfEqErdb04ut+JKQ4+DAgdO9Ea2MfQEyDlQx2crHjb0JB25IY4T0og49BSt3JTU+72ZJxmaAXJbntK8FdcamolAp7mO0FaMMDQLFPQFmm5oNgJdX3r/OGaNoadBzoHKeV4OGXoGga4vHTt1bW7oWQsMJWzT2hp6DoFuJVd+NbC7oedBri8lh1f3M1QCCgKjwOufY+gFU8M/f7vfUCmt3KCEQH5m61AZrVzMSOBaZYAOzQE5gcrlrlhm6EVQ4EPQakNz6SvwYYE3f7uheSBnl/brK6J8OB+Brq9jQE0aGHqJVs6HLUEb2htaAHKTS3nj6i6GFoKco5RfXX2BoZfpyykv1OBiQ4sMScMVfQwtBkVpOL6voVfoy2moxKb3EENLLACU2BwZbuhVWjlvHA/aqw3FoddAQWwUepsmG3od5FpJw5qZhpaahieCpj9v6A1aObsksMGrht4EOYHKUb13DL0FCiZsodfoE0PL6MsJVDK/cqOht0Fu4VVffb4xVI5A15eUv1grnkMVtHLKK28M7zO0HORCVJlt+98NVSLQBbbW/2Wxhqpo5dTQEprc0NA7INdXImhqE0MrEFheO1ZIS+hdxxp6F+SU13I9/HhDK0Eu2LQ1nHmyofcsAJQ2NDzF0PuGtNds62zoAwQ6z2uX35Fs6EOQ2+Vl1/nnG/rI7NIuP6OHoVW0cru8lL/8IkMfg5zyOr9q1tvQapBb5+WN+68xtAbkvCE1xtxkaK2poa38y/6GPgG5sNHO2yHL0DoEuqGUwMuHGPqUVk6gTlEW3mloPa2CmVLknTjaUDXIaajspd1YQzUIjMpehj5g6DOQ6+sk0MfjDW1A4JziDCHljSMnGdroI7fosZVPNfQ5yKmhviY+ZegL66sD6PtZhr6k1Zzi44QUG3eUGPoK5GJDfeXMM7QJ5PrSe8U7Fxv6GhTs8kVel2WGNpsaOr8qrjC0hVZuh5XJ69819A0oyuQdqwx9C3JqqK/vPzW01fqShpd8Zug7WjkNFaIxWwxtA7kQlTc+/N7Q9yDnjTBozU5DP9CXCzZpeOxuQz/SymmoJ6xjDhraDnIRJeUL/jC0A4FO+TAHYqM8Q7Ug11dz0IywoToEBoE9yesaZ2gnrZzAhLC+4nVi5P5PNHGzNVbHaIsM7aKJW9ZiSL28fxn6mVbOqCYkUb1ONPQLyDlQqdfIYkO7Eeg01wlbi/WG9tDKCVR+VRsl8FdaOc11IFbbw9BeWrm+1Mq7y9A+a6VczptiaD+tXKQ1BnWuMnQA5FY89TX/sKGDINdXAsnGwHhDh0DOh8pDzjzb0GFQYBcnbFcZ+s00VBJVcouhI7Ry46gk6tIxhn6nlduhJHDaw4b+DXIC24BazDD0h63/6iu31NCf1ld7ULQ3/gK5nEd27fnC0PiYwK4WoK37DD0UE/XNhkJvQVSwTQA5DXVWdkd9QxMR6HyonbemtaF8kNNQ7/I6nmyoAOR2jcYgr7uhQhA3hJSwlWQYKgK5odTR1in9DE0CudgQWjLQ0MOGlHr1GG5ockyUewu9XaMMFdPKKa+cJ/UhQ1NAbj1pAeo91dAjOCrKh+GnDD0Kcj6UXSufMTQVgc4u9dV7gaFpINeXjrauWWboMVCwCmHXR4amW1862jryiaHHaRWsyYVe582GngC52JCGiTsNPQlyGup4cO4hQ0+ZD+XeG/8wNMOQ1uSCkKGZCHR2KXuZ3MDQLJALAK2um5obmm12hUA9Whl6GuTml9KG3vGGnkGgG0plgHe1N/QsrdxSqb5qOxh6DuT60l7T+xRDzyPQeUN2NT7DUAnI2aXH/A3nGHoB5GalNMyIWg9LQU5DCcy5yFAZyAnUDpXb29AckBsvKT/yn4Ze/Lvy668xNJdWUco/fpOheSDXl7a8mVGTaD4oCLYir8kQQy9ZX9Jw2J2GFtDKadge1G2UoYUg5w21mjfG0Msg10rjVfagoUX05cZL7r0y39BiWjmBcu87kw29Aopyb+1jhpaAnMlS4+eZhl4FOTVkct3zhl5DDWeyUpTLygy9TiuXoigdarjI0FKQm3rSMHGpoTdATkP1dVmFoTetLyn/UpWht2gVpfziDwwtAznlhRasNfS2IY3y3M8MlYPcKKtV268NVYCiWh23zdBykGsl5SfXGao05fVos3OXoSpbHJSVvbfb0Du0cvmG0vIT9xtaAYpKy4cfMvQuyPV1gp8p3RK5vxL13OvL9sqU1hh6D+RiRpnSitcNvQ9y9ur77CWXGfqAjoIgJIl6wtCHtHICm4MG/m7oI5Ab4kakKIfPM7QKFIxjvpeYY+hjkFPDz5TmGVqNGs7eeKGVhtbQKgjCAs9rYGgtKAhCToc6GvoE5DRUiuJpFXJonfXVATRe6ZBDn9IqeAwp8J4ZYmg9KLCrwFuSb6ga5OyKB5WUGKoBOeWlRslHhj4zNY4BJW40tIFWLpx0BHRjyNBGkBsU7WtXNTP0Ocgthjq+2NDO0Bf05YJQaEpHQ18a0s576RmGvgI5DTuAYs81tIm+AkcVei0vMvQ1KHBUoXf8Pw1tBgWOKvRaZxraAgocVeg9MdLQN6aGEoB+9xj6llYuANTXhAJDW0GuLwkc+7ih70yg1Ogx29A2Wjk15N7yRYa+Bzn3KivrVWHoB5DLytTX6qhR/tH6UqvJ6wxtt1b6glrrrw3tALl3QMpR4+oM1YJcjipvjDhoqA7kvKH15KqwoZ2mhvbQxfUM/UQrZ5da3dXE0C5rpXOe6uaGfrYVT4vhgpaGfjGkjXLisYZ205eLXq3JB9oZ2gNy46W+fu1g6FcTqI1ydSdDe2nlBOq7zc27GtqH8kH6ylaebGg/yNmlg6O1Zxs6gEDnXjlq/AWGDoKco7SVX9LL0CEEulVU3ii/1NBhU15b3uP/MPQbAt1MUd448ypDR0Aub5RdtdcZ+p2+ouxKv8nQv0HOLin/Yn9DfyDQKS81hgwy9CfIqaHdcPgdhv4CRe2G391laHxs0JcSgIvyDD0Uq+j111693LzjfkMTfOQHtjbKQRMNTUSgW4jkjUVFhvJp5byhvv541FAByPUlz5/ylKHC2L95/i+lQw4V0cqZrL5iSwxNArm+ZHK/eYYeRkNncmPQ0gWGJlsrBXbsa4aKQS6wFTbe24amINCFjU6i7qk09Ait3OIgk5e/Z+hRkDNZdv242tBUkLNLyu+sNjSNvpzySvP6bDT0GK3coqc0r9G3hqaD3JIiNU7abuhxkFNDffX52dAT1lfknGdG5P6TNHGTq7myl0WGngI5aQ3IXkoqDM3wkR8zbZSHXGlopg1xQ9CesYZm0SoI3YnemXsNzTb12pJsJLQ29DSt3LO8zl4m3W7oGZCbQR1AJc8aehbkdkPlPEs+NfQcyI2+EoBVMYaeNzX02qv3MYZKaOX6Uh7ST8uaQy+A3BDr+1dj/mGoFOQWQ6VDvbIMlYGceyXwhwcMzQE5gUpsDs8y9CIoSvnaNwzNNeV1OjTkPUPzQO7pVQJLPjM03wQKTdtt6CVDeipfUc/QAhtlba+jGhtaSF9ODW3lZ7c09DICXVQrN+jVydAiUFRf3c8xtNj60s67s7uhV2gVRC/HFxmGloCce3U6NKefoVdBLqKkxvihhl4DOTVk1xglNg69bnYpD+k+ztBSWgWxUehVFRt6A+SGUgcsq6KG8k1QMB04U5pv6C3rS3nIyFcMLaOVm3o62rq10tDbIC+y4smH4bWGys2HOkVZWm2owpBee932haHlqOHCJgxqstVQJchtDfJhSa2hKtRwPpTJMw8aegcUmFzkrQgbWoFAZ7I2ysQ4Q+/SKnAvh/lNDK0EBe5lU25l6D1QVF/92xl63/rSlre8vaEPQM4uLbw9Tzb0IQLdwisNrz3d0Ecgp6EEHneWoVUmUGqM6mboY5BTQxtlTVRgr7ZB0Ta08EJDa+jLbUMSuOciQ2tNoDaUq9MNfUIrN/VkV4t/GloHirLr1OsNfQqKsmtnf0Pr6SvKrowsQ9WgKDXmDjZUg0CnhjblM0YY+gzkwkYCT8sztMEESvmHxxjaSCunvHbDkgcNfQ5yK4Byg48LDX0BcjNFarR51NCXoCg1jn3S0FemhryRN9PQJpDzhtR45xlDXyPQqSGBtWWGNtPKCVT09p5naAutXPRK4PLFhr4BRQn88Q1D35pAOSr9bUNbaeUcJZP7rzD0HciZrHToxo8MbUOgS4fU6pk1hr63VlJjZo2hH2jl1FBEHd5o6EdaRUVUxWZD22nlfCiB8d8Z2gFyAtXqnh8M1YJcK5l8KGohqqOvKJOb7TG0ExSlfKNDhn5CoOsrkil9Frm/iyZur4k5mik59DPISWtEpuS9aegXkFug9Nrr6ssN7aYjp7mOgFo8ZmgPKHA7reRAh35FoOurHYnNpA6G9tIqOLziCKinoX2giFFxodB//JMq4Qdzq7vFtN4wcdtHh2O63tZ9/T+OG/f7TyUxzeMui/XqlcR5DUINHwx5XqP9sZ7/7zh4Wx/Rv82AXvdN9Fas5HM43xuYSNp2E71O47OQU6Zv9K8aFHjvdy7wnsgo8PJv1b8+oH9nQP+igP7tADKlLfr3APTLf3ar5vo1PxtaR7ans/VbfP3qvtAbdnWhN2BAoXfF7WxAI3ijcDcnB/ncn65fscNe0S/TOSX5sNBbV6PflRd6Cdt5ibSfA/xQkTcjlqCoX+Td0qrI+7xNkTcrkYfcjvrtNc/cXYmKM3lzfHaRt+sC/Rqas+xLeCLsQzz31a+Wedr4l36JXOS9fAfH0iM4ZM4r8ibdyzy+v8jrms/9Ytbg6TxEzNSvdfW7XP0CV7+11a9qi7yWrxd5G9/msHOFfv2q37nqF628XN5Q5H24qchL+Va/PC3yttUWeb/tRreDONnrTnrcYKJ+3+klVuo3m/lei2v4DMfRU3kBuYrP9/q9JElqV3LYCwq8zddwcJajXzDytu4NPh/hdOrU/qLfFBZ67Vvrd4Lkaifrt3/6lZ9+z8cZ0nWFXrNBhd7Au0igHiQrm8QLs6n61Vyht7VUv4TjuKsKp35QSCDq92qF3uxaUpmD+qkZD6c49+PGLNjNi7zzW+l3X/qBF47sVOSdeVqRty+ZFeA8nvZTeay/qMib2ls/lCry4q6l3U36jRNGDyzyrhvMKS0O3oWDf72fU4+HcPQk/VaIfQIHxz1JfRzcqoRDhXlFXuHCIm/7Yh4938Bxy3k/8S59vs9grinyttboly4M9lZWuh36kQqDcIDB+02/L9EPSbyHPG+DfgOCk9P9X3Xo5xv6nQYP4vn6fpo3fgdObUr0EsGtz+M4sK9+76AfNuDYmXwWFHhbP9SPDwq8q/fgLI8IbMhpWLx+CcBbrC449gLupeHcK4nQm/X9+0Ivgwj+cxxpYgHv4qbjzBKiey73Fup77CRMK3gf+LG+gq7vmutL5fr2uL4mThTXJ09orG944+zj9J3tIi+5Iy8xuhBRybyxOEdfoCbSU3jZcCmZyBVFXrtr9W1mIi2LB+RsfRFZ3zgmqcjlvch9HKiMY4ZM0Nd/GbCHieppRd79M/QVXQZvjr50i7MX4+xX9X1ZBqpK34At8p7+mOheR0pTTflL9l4i+d5tJBB1RV7RLh4/93EIdbDIW3ZE3/bU1zqJ7BVX8u6/DUvGw3yq/S9T6luT+nqkvgfpjVmjbzbqK4w8i7TlfXp3nNuPg+QcBuN+IpzoXovjr1jGZ7W+3IfzQiwNDThebc9BXxeiFKc3uLjQW9GH5L4vTh7CO8rh+n6bvsjGS+SZ+moadV4l0t/Rt8p4X0pk9/lGXwhjKdrHbPkdxWNxbkMitgnReCyRfjwOOpmXLqcwXTsTaTj8/PNZYnoUeZdfxFLSG8ddo28i6StH+m4R94fg6Dt5yTCagRirL/oQxeOJ1kk4aSpHcU+R0M7iRKaE93Lz9IUZfTNGX4Ehmt+lj1XwTzna+owB3sKS8b2+YUJeslvfGeGl5x/6Foi+7qHvdSiqF7F8/IvXBifi6GK2lfX5Xu2JfHpwhn8Xnyn6agPLx2GcG+9/K0FfP9D3DPSFAn1zQF8R0HcBqOe/3ec1vt7Xs6bWx3ksIx1PxnHdC3l5rrfkPLoM5Mh2uF5wE7kP4XCWj/BTOPUZygtYVpbBP2IQPmH93lzIq19mxyGWlT8wIMQrnQZ6D8t63YokKB5nt2d97UAZRzc+Q685STB74KCL9IYS5/0T5+Dox29inR7IujyE5QUndxtFRI9hNjzITMgnDZuMnMeYCTP1fo33XmUM3iIeLpZSxsEvVbEHfECUriVL/Yw1+mtmzDb0qSPX3cVytJuB28/AH5Jj1xC9r+tVDc59gkOP39nozsvndQpOncdnJe80GhCpHbleRKTiVN5W6LWEx/sHjxcNvFHA6JDeERCt7XTqz7JwBmvwuTqw18k8h86ZOmtnGblHp+dsdo/jvNk6+GZtriDCceTkddT7WqfQOm7WuTKG1MNxTXQkjEEtiSwi9kA71tIOOp9lzeyKk5JZg89myl9ARPXSqShO/AdOvApHXUfCeJOOKHUWidF36HRRx4hE5/06GNQJIOvtozrT0+Edh2olbJDzWFYWUH6NTfBtkrNK0tX3yEtX48RqloGN5Fff6qCK8s9yJBFaUoEDWQr2jGWj20vm0JpU5nYd4fhnNTqU0emLjll0nqKDE52Q6ChEZx463NApBscVTPN6bGqNddKAgzrxZH6ODgmIOqJzTj+WgKF6kOf+ONbcYjauWUTsfD1Vk21UEqlryTiq9eTLMrKVqK5lDT5Y5K0IEylxTL8mOKcVGwnOXN5ez4R6+CNSzmLt68Z63J0pfiFZANF5dbqerVgDr8f4/kRtFpE1mA1sBBtknh5dWCcfZAko1FMH0/hJPUcQqc/QRxkRjzOXL8Z5bzAYOLP/CuXjSrwZpBo20o3KmZUc4+gfWLdrWXb24GA/QnGs9yZp2eVM+8e4bsSpHYjSnvrXyzzvwdD4UOjFkBdeHfLWhGKnxITyw96McKgohqzQ/1chGx/9N80i/zwkf3Xw/4VIRragrQonhE/0TkFYmLL+jtH/YkP1Qt4zMaFmoXZeEhnmyQ+FvNCA3F9TYF54QG51T65eOK/6ydQpST3SwgmZ70cKZcWnpEHYVWqbRQplxYtTk8uPTwvXlS6MFI7K8UJ1pe1SM3MfSw1PSYpLCwoVtdekUrtdalAQ8g6iQl1pWWpdaWMJKwPvTUVYdc+gECAVvFByea3fUViF8tr2aTEqVNSenlZe24jmZ6fFZOaeRKEHnadzTU2LGZA7lMLFacnlk/xrTFnxTL9QVlyK2It04+XUhMxeNHk1tSY9LS2cEf8ihnVNi8mrfoE7Z2D3M6kZ8UlpMQmZT9E2KS0j/hH/GlNXmuMXksv7p5YVn5YWMyWpD47rmKZrXnWbNBzQJxWVIzpzZaTCsqSEzjFOBd9cAJa4QoBUUO3alIz4MyLCggIPC6l+fzXph1KSy/shpyYFjf7FjVdSEjJHppbXlqbgovHcmJEyJWmyf42pSX/ML0QGe3YKVs1G12fp4lmElqQQBi9CelyIN1+gUP52XeksPDKkAo88RqG2Iq+6wL8i7Ha/kJB5KTLq9aTGSQhZ0VMj4nkD1b/sXoKGtXwapGJXxBqPFC+UkPkMPfRYHuN5Q/xCZu4ZtFvRk2HZTruRKTXp82h3OIWR7Eu7lFRdM3MfTvVvJGQuxZh5gI2prslBvNYFWbEar8HEWlMGcKZ/RbtFfiEj/j3UbagaX1I1Li2vuo5u/52KQb9DfuITplZ1Koo1SEvIfBPaIK0mfaoGqAHDOzY1XFG7Da8GhdJUps0PSCtNRewPSHibIdlEbK1NZViq+eMb/liBenXq5xX+2I/Ymf4VP93vF2rSb6DGDg3t2Qz21whsT9MPdaMRvn6NG42o8bQmVyPGeEKElBVnICyRa1vdOI/+t6QMyM3k5hKN8QRVxV/P+Ff6X+QXKmrLqfmkxmkVrnkJX9fQZL1ubEaZQ1i2jW4TUgmLekySkPwcZvosJkwPoGFmCt1tp1DZMzP3U7Qrv5C2yyj0WK7udPW+Z7ITXwwPU0EFRXZYszUoZMT/nBquST/VL9DHeejn0c8A3FI/DYUnomhTxuIZ/xqTEf+CX5iSNB/9uCGX1pU2Zb15DUuapjEur2HBbvl2CVV348b5fPbI+wrsvbSb6V/xT75fIMqRwfhkxF9G2+9w53n0X6MaHSHv8UdHai3RYHfEUc4crqx/XiFzO3J//n+p4Bdwh9bXjnTnCnWlP2lZ7OIXUC2Nggy/jdYYnhFf5Jsjmbrimvf9gudtQhNqDMjdjdPChOfv3NilaItJG5C7ETkxjNirkh5DdTRIyNyMVFdgDGXXZnzzKQLWQLYp4Msxcj+Nn/av9FfoF+pK72TyoWJZcR/absM/53ODOSIrFNm6Sk3vCFNbw5hc/mUqO8aH9PBJakxF7Urqf8EfFbTfqhtL+aOOMZnPlYEqr32GwgF8M9m/YnyWX2AtR/JO3TiBbr5BXV3XHr2xnM+53Hxdxl9Ok5f44wFULtOEleNmpbKcfUK1adBv0f0+TZO9dHU9n71UbRe5UZP+BdPkB24UaxJ8Tr8eo1ZFOHboiXR/bVyeEV/gX6lxrl8YkPsbQb2mJ708TPWxLFw3sMbWU0zXpwazsry2JYVNkHPQblEKru6H9PF0l+9fcWSpX/C8pZj8WgoL1ge4ajuCPkCx+FT/hkytK62gZm8Z9SqF/tyU67I11rdA71N3zdC5kLsbEThb4/YofS9C4KNouDpyI6/6O6q/Rw2GWkZkxMcwhU6nuwYKrZvwnSbZZP+K/a/7hZr0NXTJGpsR/z0CD2JQZLj9OYAPoYNl+xdIZ4ZnxIfSggIe9XzENVJg9UghJjf4BfRaDboa3d6gs1d70skLCK+tyMx9yL9S4yq/kFfdCZeO7cnIHcH97fisYU1bkEKTZ/FrLAK12FyeSscqoIGiNCiwiRyN39bYkUG/W9V4KPbPwFtT/Suz8nm/kFf9CjWWScUVKPAlN9agQDPNW5lzJrUipnu7mAPJ5dOgRIkGRYUpSaegUWVPHPsdnh7O50Vcf/jv21t57WSNRV8seZPqL6LHF7rxHQYcQstT0B/XJ2T2xz1NmeKP+Vdi8WW/UFa8nJFn+MqK13IjlvHcgOA/JGMLeuzls40A26lF/UcroKG8ov3NFRgfDdAOTHMF0r4Udp5tfsGXRzbErqGhS1FIr0Xeyp6a48TqhVi+UHKXH3WFFyorfgrt2IMSMpf4hSlJK/HlMjXegP92Y+4WxJ+qAN1Ozzdi8nZuFEduMLwYswUvr9TQbaDGJmqsRIEdkbVeq5V60ZUmd/uFKUnXcN2uSZ4EJVK94+l2hW40ou1L1NDGSi+Rwi1UP57eTtdClUSNA4zHNYAKxcM9vurqRVc/6hVGWmzwnAo4TDHHNVLwY047XVThJ+VDnf0CpvRksDx2uMHIjFMyWciNpiQnL/pXbqz0C1pE60pZ+bXal9eGGPDDKLtLmitt2YgpYcKClV8FFFCS/1VEJxX8lV8F7dgJmasYqu8Uwm/xx35uzvKvrCD5fkFJtL/yZ+ZeRluFznncqJbOHakRtfIr6mUs0Vv1P1jth5v2OxWYat3Qdi8apCOSEK2ovR4NYrHpbmwjiGvSi7mhqJ7rX1kDP/YLyeU/IJWJUFf6F4VDaFGfhYmpwtJHzL9J+2Y8G0yO3CA+/Rr+dFMTzb+K2h+4MiG1ICo+ySb9K6ZN8QsJmWNQjkhWICq0tUogS6tENwqPYKL2bqaFvBAUAg+o4IXYPWDFUqUDrroRC7px41RtuL39qNf+6k+DutIiNJ9AlvuCf0UVzWdlb+toQvhp91Q8KlVxAboXcgt/6EovKiimtb36QV5Ru5Wh+5I/1uEFpkFy+XIKGu0X/Ct+LvILFbV30HSHbvwDTTfxRzcAk02qa/bpql68ZfW8UEXtKNm6nGHxV6/lZcUtabLlQrRcx9zexGPc0yxp2AFlOqyXR5g57RWCKlyFYo9i3DDF01JmfwHS97G0PqKIa0PfT3EjjVpsYlOSbqP/5/ij0Fcd95Vg1BwsfYWac7VFvsPAzUeHj7jxslaAdVRfwmcd6pcrI5EPlkeIAibSZLtMfpV2B+jucf+KsKF+oaI2g5s4xfOUum2iybHcXK35OwmDvoroHnH7HxjlKXBPRrP6BO5V9N1I83csOms3ne5fGenn/UJG/KsIbKwJvRKFGnHjMzSspxrfU0Pp4C8I/lku+40aX+Hp3xicZXpQVoGJLWO4RgrarAjDtX4BpTXFs3FpJc5rqRB7nbrjeyaXl2JNeQ/sfAyRfZcfHU2SWW+8qqQwBLP8gkaeOa7oW05hPfH5AT6pf9SNp2LkOqT1OergKXLfGtR+GLKSG4Uaz7fRZCI2LeL6kNK1FxA2HvoUNR/QEBRTfSw38vHeGN24nT9yfcllxXdIxhlUzaLvdsi4UjGhx/8e1GjEp+3RG8q0ulCTTCu5/Ar1QvRFjPLe/a8PJJq3QQESQVxJ7pkaRHEHjeJKv6Bn5ilJp2ofzsUXXVi4dT3r6I3z/RrJ5RdGmnheL2rs96/Y1Ar5vRjnThhJDeXSahK5IiNS6OLX8HtRE3UrGbp685h8enzkEawKR9/lFzLi01Mz4q+sQocE2qdUEbzYdnIVOpSjbqMqBQQBXEle3EJ+rWQI2qHEzEr5lWfvSrpKo1BbOSVpAB4PVxF0DyDsmCp1pyvdve0X9ORAXlLJjR9TmYmVuqLdcj+fKGMBYAfa5hcQsoUqOgnYQBWWgylJa1M5CcAjy1WjJ2H6stxPVE7zr0jN9Aue15kmHbTk/phCusP8mpui5BqhypIuRgmlT49EbmheKG3Kq2YvQD0K/y9pk1ZEf8epqF3LjVj22Y0I/iMVTb9hEPYSU9v47FReu8MKaKiIaRBJcFUgxLSBqLAEL3qMYr0qpOxBi7Or5IC60n9UEchvo2dmldzqX/3cSDsIjZf4BSKHjjZpCivDqpeq3IgA0aTbnir/RK5YroI8KD/rgAMZG9A6khtJTwxdwoj/D7mRmqNiUippLXKOp5d3dUNTagGfRpFeVBiQm0UzZU/namNJ4o8GaHkNNbakED33+KqrF129ReQExBcy2FZZhvwCJ2w0WalBr2X9vItBm4+1RxQnfRkwfy/hxmSNoG68gVLz2SU+1xqsY7+D9N8VLRlSCY2MoOKTIS0rrvILuI4rNQbkHqK7gygUwwxChsZKQnX1e1FB3aqG0+MQOtxFT5toiqYSGlE9YkvEKj+UM3Pf8AuRhbZSa6Qezg9j2fd4p6sGYxeF/nx20Zj+IoW5dKEaVRoMDZWeN1dx88dUX6hGR73oit1j/IJc7dfIqz7DNTkegAyNjoRGrvSigrqN1EAPNZFikuFrKqFSXb3o6j3J0qgtS49S7G69ETRWBl1Mu/kk9t3ou3o52p1G/emVkkzsVFKjGXF3QpXmJbWqaDuJcetWhRLTiYb2VezXdLOnUoHISM6h7QoWp8aVKLE+hfWwJ+EKyE3h7GYbBAWOauI9jVoKPNZibXGLqctDiur5BeUDMpb1ZnKkoE3ZRzrg8wvYTgFUV5ocKZQVX08BNCB3eKRQVtyDWUsX7N6RgjzO06Hq/Bop6GkQolw6oo/3A8rJbkK1CmO2Mu59q+Re9qcqQutp7O9TpTSHpKoKjcopHJIjDmNmTBViUzlbqyIquqaWFf9ZGTnw+FILa1+seK1SXaFgJX3epUIFRjSmLSsO/eMiCloA5RDuTIsUMuK3RBDKRZanjPgnGbbSSpbSR1D3t8qa9IcYtjZVTOQ7UjVcelquK72kCuW6UkN2RAzzfsdK8k91r/PpWiskZPZLpX4tkprS+GtseDOFiFiXyhM6Y/4mVXlKV+LGOs7pyQP+FVf18gsJmS0wt1dPoupdxrMRO9xkAmJmCkI7p7DSIqMzPkxK5U1EGOlJykbDtG3GHy35/KLulFmvoH0q3b6Ygu9uQpliNoYH/CvdTfcLyrtIDbVWLULlT4i5pWgYl8pQyTztFBXU6KdQ0Q1iooBVTOfleNtjAGej4oQUHmj0jmCenmPewuVVSNMBzXrd+AxttqGJkrVf5R5l4B6LlJJ3Dp9VIBtjz9cBSNs01FMedRLLUCV9dlL2J/VOY6ua5V+pke8XdFxeV9pRm5keHhJZ6M6j2wQthZ2IpBbI6ETX9RQdJURhPbUtwTXHsfxtxpMkMgmZTVA5iRu9qNpNCuUyx3umldfO9q/0X+EXdH7g15iS9IvfpKz432h4sl646FA4nk89NrmGkRt1pX/QTOc8O1Np8m/M1hq1kytrFGENncuNZaicn0oA9caYhZHFRlpS0NYZFJzDuXpeMcMAwnGET171cL/geeeiTiNtm/tTmJ183mLUO6VyI5fwUTaZi/HlkRs6r1KNutIWOsA6QNVT8MK51CLzKisegX496VcPFnhBR+Mq1JX+GKmRkBnCWL0Za8hNZCSXt8Al2pBasIrQiwrqVi7x9WByM87PY8P2iKYZ8R871SO2RKxScNJ4lV+oSf+W/lprzT6A129lCA7QGPEqlBXvJK5+whCOCnRUzfkgGikDT1QKU07nCpQS/0qNHL+QV30RNY6VEa2RHsLu1txAqAp51Q9jRGdG4WpFsB6YmyB4EDVqUphx+b5iEupfr/VCvDMAsgyowPjoTdcYKyjQWEFzIwUWAaZabKRQk95Oi8cYa66Cv86TwUZEsGQxSixb2pH9Ql51Hv4Ka2LeFykoi/KRchy/kBF/DGbFanlvGSkkl5/JSIFYfiMFvbqkB3WhIwEKmIiWn+so7JNIQXkoRE8BEX28OUSfNko0XY6Pb/ULU5JOp981PbmhzWgs001Hdn+lkEL0ZeHqxThFpTLJ5Utx6TxqbNSm/397Z6UsQAWWKXQgO9WxB1k5I7kPwSwsii0yL4TGYNt7cs3XCCQD1PG1PpxfUPVHDel/pBQ16Q/6BR30yn/MznO5sQnXtqcWD/1EK2Qh2jVCKEcLKrBv8mnP5xTJOIfQ+hnDbkTDZVqIx9HeUgo0fMkvaJHUTEax9zHqVZyyjqZbUlhpvqDbWHr4mpodlFjHsA51iFgnx5YV74c+rjkemUIVtetocm5P2kpqVF6WrKc1PaYTVyowcBrDyJOcXwiQCt4LjKruQiPYjxCdVUUVoo/qaIVQLQJZSKivtTUfe3QsHnmgJxTK/UJN+ieRGnrpoCZTknb6MujnZ78AOUTBY+jiGHWqJmQew3qqV12J/pVRO8cveF4au0dI0vsgaBeLQh98w4mGCijvoWs3Kwjhv25Ex1d0fgb6MsJlxR0RvR+/t/Gv9NfIL9Sk673eNt1Qjrke7+4ndN7QgeZ+2iNVSxPXSKEm/R2F2CokfcEfmoWEmN69qL4er3Slhp7u9/MZTJhhMM8+BM42RHcjxNy7NT2x6Epmp/7+Y9C8Of6q0BRflldQ/wdGsJzT/0pm0Q09icAZbMdh/phBnIzQvj6DYFvETKxkMD9T0KjJEW5KxhGlAp39Qk36hehNDSWaaqKrL0MFTjV43kzn+kVPDOmJVr1Igc+gaY8L6eVECuUVEaHlFf7pJ6mErzJGLKVL4kyvBYICuYyC+3y/gMheoL34pS8fnjTLim/Fc7GM1EPMA2Z7RnzkKZV0xb/ivU/9gtZ//3k2uTxM7BxCx0aEG0+8edXHMPRv4t9jmEKTIze0mKuGf/qpJjr9TC7fic2cfpJ/o4deay3yr0T4dL/geROQw+lnXekgVF7ZU4+KyJKMXhQewYHnowe7N4/yVsABEQ9wJeyVsPmLhwoep58Z8Rdx41QFw7XopTP/ewiGZVorHsHyCdyY519RZaVfmJK0gSacfmoB0K6t957+6SdZNOQW2utKLyro9LOudDc3Of1MLt/OoH7JZwNRtl166EBKMT/Pv+LnR/yCHon9aaIHJJ1+yk7/9FOq6wxMV/Xi3fPfBlsn91GFU7TMnIsrXaGMlBgH6cg+KMxVwAu5Aturzu6U+QQF1wVXT7uuEjp/beIpivpQPRZw1X7mtkz+QE8KMk0rKHemRQosuRF0VI73mx+5XdWT7h7rFwicViw4DVk/dHx+TBoZQENWogRu6P3CCYpGnax0wAqNSSc9aG9E9KkE4Er/imNf8At1pQXUOFHx2o8mykPPZVzrab1rzY2deLk1jmLJUkGZiGpkxPfV8PWjRjPkFDAeXyp7egH6BHuAhvEJ7bQb/YL04DFVG8oh2uoBTKH+o5KXhsyGOAQ3o+uOmhWtGKCLuXEsRg6R77v6BchpqJtM+5MxLCyFjsegBeQuytZvUAjqWyFLWQoO0Z7pkRH/LcZ04PxUwUpqWpP+uF/QwzcnZQrjllRVYvAp866zhOai7jjUziV0fLNzWZ8OEJOfMtCklWqSmduJnvqjy1lK4h7Hup7ostK/+t2qID3qSrvLlw1Q+VyatMSErrpxPLQjPpAtbTSmp0Hlg8ho//cwluuDgh+rPKIhwBV8VFF7ihVoreYtrBDEc1CACEX68h7n/FITVfHH+B3A1DbI+wZTT9IW9yGWdUbvF/0rhkzxC3Wlo7l2VI2rKCTSpAdX37JOFFpirh59GkZuJGSGUUl9H9EU1knhbnq4CVCr1SeHG99haj4zY7NqTEPfLxm62cjYqD1/BRquUZbzKXc+ou13fDgay4jfh5ByugwRNouVOmkBLuNmc66PKWxb44Vx1GiNln0iN/KqmyKnCTfKtQvp8eksovQndOAJWbknm8FyHtH9Kzfy/EJkn7pc78JDVG1LHL3D1vSSAmusNj96GYJje2l3icfcXnpCbktXx9LuHJTarzX7Cm5UMm1GYWGpbsipk2hf6l+5sdwv1KRX08sCPUP/SNu1aPgr11hNjj9o2wE5fyD48siN5PKRaLmPbvPlmDrIVNrLj0/JdR/xx3PcfJ1PmTLsAposUcifS7hXMvQh3L5BbZ+lq5/wsI7OGyjC9R4/AQ9vxTqGnZyetskM6hUIPU9r0gRu9MTTc/0rNVb7Ba0FNenUqElXCpmMp7WUISO5/BgEKto0S1gHj8ahN5c8Q4mtLGOZPAEDZus5IilS4OQLRAOlp35BT7CkpQqU8ZHC0eZKWCLZC4L+I+X0C5AI4soeycIWucUKQ6XJqTyRTObOfCX07hnlaB3P+z8=(/figma)--&gt;&quot;&gt;&lt;/span&gt;&lt;span style=&quot;&quot;&gt;After the sudden passing of our founders son, Wyatt, in January of 2021, it was clear she wanted to do something to honour him. A short four and a half months later her husband Ed passed away and the tragic event solidified her need to honour their legacy. After only a few months the idea of the Wyatt Wiebe Centre for Healing came to be. She knew she wanted to create a space of love, compassion, and healing for anyone and everyone who needed it. Everyone who knew Wyatt knew he was such a lively, caring, and outgoing person who could make anyone feel welcome and uplifted and that is what we hope to do here at the centre.&amp;nbsp;&lt;/span&gt;&lt;br&gt;&lt;/p&gt;" style="text;html=1;strokeColor=none;fillColor=none;spacing=5;spacingTop=-20;whiteSpace=wrap;overflow=hidden;rounded=0;" vertex="1" parent="2">
                    <mxGeometry x="800" y="550" width="570" height="170" as="geometry"/>
                </mxCell>
                <mxCell id="21" value="Footer" style="rounded=0;whiteSpace=wrap;html=1;" vertex="1" parent="2">
                    <mxGeometry x="10" y="870" width="1370" height="100" as="geometry"/>
                </mxCell>
                <mxCell id="22" value="Who We Are" style="rounded=1;whiteSpace=wrap;html=1;" vertex="1" parent="2">
                    <mxGeometry x="40" y="660" width="120" height="20" as="geometry"/>
                </mxCell>
                <mxCell id="23" value="Bookings" style="rounded=1;whiteSpace=wrap;html=1;" vertex="1" parent="2">
                    <mxGeometry x="40" y="700" width="120" height="20" as="geometry"/>
                </mxCell>
                <mxCell id="42" value="Our Spaces" style="rounded=1;whiteSpace=wrap;html=1;" vertex="1" parent="2">
                    <mxGeometry x="40" y="740" width="120" height="20" as="geometry"/>
                </mxCell>
                <mxCell id="64" value="" style="strokeWidth=1;shadow=0;dashed=0;align=center;html=1;shape=mxgraph.mockup.containers.browserWindow;rSize=0;strokeColor=#666666;strokeColor2=#008cff;strokeColor3=#c4c4c4;mainText=,;recursiveResize=0;" vertex="1" parent="1">
                    <mxGeometry x="860" y="-20" width="1390" height="980" as="geometry"/>
                </mxCell>
                <mxCell id="65" value="Page 1" style="strokeWidth=1;shadow=0;dashed=0;align=center;html=1;shape=mxgraph.mockup.containers.anchor;fontSize=17;fontColor=#666666;align=left;" vertex="1" parent="64">
                    <mxGeometry x="60" y="12" width="110" height="26" as="geometry"/>
                </mxCell>
                <mxCell id="66" value="https://www.draw.io" style="strokeWidth=1;shadow=0;dashed=0;align=center;html=1;shape=mxgraph.mockup.containers.anchor;rSize=0;fontSize=17;fontColor=#666666;align=left;" vertex="1" parent="64">
                    <mxGeometry x="130" y="60" width="250" height="26" as="geometry"/>
                </mxCell>
                <mxCell id="67" value="" style="rounded=1;whiteSpace=wrap;html=1;" vertex="1" parent="64">
                    <mxGeometry x="20" y="130" width="1350" height="60" as="geometry"/>
                </mxCell>
                <mxCell id="68" value="Logo" style="text;html=1;strokeColor=none;fillColor=none;align=center;verticalAlign=middle;whiteSpace=wrap;rounded=0;" vertex="1" parent="64">
                    <mxGeometry x="110" y="145" width="60" height="30" as="geometry"/>
                </mxCell>
                <mxCell id="69" value="Home" style="text;html=1;strokeColor=none;fillColor=none;align=center;verticalAlign=middle;whiteSpace=wrap;rounded=0;" vertex="1" parent="64">
                    <mxGeometry x="950" y="150" width="60" height="30" as="geometry"/>
                </mxCell>
                <mxCell id="70" value="About" style="text;html=1;strokeColor=none;fillColor=none;align=center;verticalAlign=middle;whiteSpace=wrap;rounded=0;" vertex="1" parent="64">
                    <mxGeometry x="1070" y="150" width="60" height="30" as="geometry"/>
                </mxCell>
                <mxCell id="71" value="Services" style="text;html=1;strokeColor=none;fillColor=none;align=center;verticalAlign=middle;whiteSpace=wrap;rounded=0;" vertex="1" parent="64">
                    <mxGeometry x="1010" y="150" width="60" height="30" as="geometry"/>
                </mxCell>
                <mxCell id="72" value="Contact" style="text;html=1;strokeColor=none;fillColor=none;align=center;verticalAlign=middle;whiteSpace=wrap;rounded=0;" vertex="1" parent="64">
                    <mxGeometry x="1120" y="150" width="60" height="30" as="geometry"/>
                </mxCell>
                <mxCell id="73" value="Logo" style="text;html=1;strokeColor=none;fillColor=none;align=center;verticalAlign=middle;whiteSpace=wrap;rounded=0;" vertex="1" parent="64">
                    <mxGeometry x="1160" y="150" width="60" height="30" as="geometry"/>
                </mxCell>
                <mxCell id="74" value="Footer" style="rounded=0;whiteSpace=wrap;html=1;" vertex="1" parent="64">
                    <mxGeometry x="10" y="870" width="1370" height="100" as="geometry"/>
                </mxCell>
                <mxCell id="75" value="Who We Are" style="text;html=1;strokeColor=none;fillColor=none;align=center;verticalAlign=middle;whiteSpace=wrap;rounded=0;" vertex="1" parent="64">
                    <mxGeometry x="597.5" y="200" width="195" height="30" as="geometry"/>
                </mxCell>
                <mxCell id="76" value="Photo" style="whiteSpace=wrap;html=1;aspect=fixed;" vertex="1" parent="64">
                    <mxGeometry x="55" y="250" width="120" height="120" as="geometry"/>
                </mxCell>
                <mxCell id="77" value="Photo" style="whiteSpace=wrap;html=1;aspect=fixed;" vertex="1" parent="64">
                    <mxGeometry x="55" y="390" width="120" height="120" as="geometry"/>
                </mxCell>
                <mxCell id="78" value="Photo" style="whiteSpace=wrap;html=1;aspect=fixed;" vertex="1" parent="64">
                    <mxGeometry x="55" y="540" width="120" height="120" as="geometry"/>
                </mxCell>
                <mxCell id="79" value="Photo" style="whiteSpace=wrap;html=1;aspect=fixed;" vertex="1" parent="64">
                    <mxGeometry x="55" y="690" width="120" height="120" as="geometry"/>
                </mxCell>
                <mxCell id="81" value="Description" style="rounded=1;whiteSpace=wrap;html=1;" vertex="1" parent="64">
                    <mxGeometry x="190" y="280" width="970" height="60" as="geometry"/>
                </mxCell>
                <mxCell id="82" value="Description" style="rounded=1;whiteSpace=wrap;html=1;" vertex="1" parent="64">
                    <mxGeometry x="190" y="410" width="970" height="60" as="geometry"/>
                </mxCell>
                <mxCell id="83" value="Descirption" style="rounded=1;whiteSpace=wrap;html=1;" vertex="1" parent="64">
                    <mxGeometry x="190" y="570" width="970" height="60" as="geometry"/>
                </mxCell>
                <mxCell id="84" value="Descritption" style="rounded=1;whiteSpace=wrap;html=1;" vertex="1" parent="64">
                    <mxGeometry x="190" y="720" width="970" height="60" as="geometry"/>
                </mxCell>
            </root>
        </mxGraphModel>
    </diagram>
</mxfile>